<?xml version="1.0" encoding="UTF-8" standalone="no"?>
<svg
   xmlns:dc="http://purl.org/dc/elements/1.1/"
   xmlns:cc="http://creativecommons.org/ns#"
   xmlns:rdf="http://www.w3.org/1999/02/22-rdf-syntax-ns#"
   xmlns:svg="http://www.w3.org/2000/svg"
   xmlns="http://www.w3.org/2000/svg"
   xmlns:xlink="http://www.w3.org/1999/xlink"
   xmlns:sodipodi="http://sodipodi.sourceforge.net/DTD/sodipodi-0.dtd"
   xmlns:inkscape="http://www.inkscape.org/namespaces/inkscape"
   id="Layer_1"
   data-name="Layer 1"
   viewBox="0 0 1028.5 1728.685"
   version="1.1"
   sodipodi:docname="Report_Flowchart_links.svg"
   inkscape:version="0.92.4 (5da689c313, 2019-01-14)">
  <metadata
     id="metadata1483">
    <rdf:RDF>
      <cc:Work
         rdf:about="">
        <dc:format>image/svg+xml</dc:format>
        <dc:type
           rdf:resource="http://purl.org/dc/dcmitype/StillImage" />
      </cc:Work>
    </rdf:RDF>
  </metadata>
  <defs
     id="defs1481" />
  <sodipodi:namedview
     pagecolor="#ffffff"
     bordercolor="#666666"
     borderopacity="1"
     objecttolerance="10"
     gridtolerance="10"
     guidetolerance="10"
     inkscape:pageopacity="0"
     inkscape:pageshadow="2"
     inkscape:window-width="1920"
     inkscape:window-height="1017"
     id="namedview1479"
     showgrid="false"
     inkscape:zoom="0.38613673"
     inkscape:cx="596.18396"
     inkscape:cy="1002.5829"
     inkscape:window-x="-8"
     inkscape:window-y="-8"
     inkscape:window-maximized="1"
     inkscape:current-layer="Layer_1" />
  <title
     id="title1063">Report_Flowchart_links</title>
  <path
     d="M244.75,1664.75c0-143.318,116.182-259.5,259.5-259.5s259.5,116.182,259.5,259.5"
     transform="translate(-45.5 -65.315)"
     fill="none"
     stroke="#192833"
     stroke-miterlimit="10"
     stroke-width="30"
     id="path1065" />
  <path
     d="M512,370.5c143.318,0,259.5,116.182,259.5,259.5S655.318,889.5,512,889.5"
     transform="translate(-45.5 -65.315)"
     fill="none"
     stroke="#192833"
     stroke-miterlimit="10"
     stroke-width="30"
     id="path1067" />
  <path
     d="M512,1408.5c-143.318,0-259.5-116.182-259.5-259.5S368.682,889.5,512,889.5"
     transform="translate(-45.5 -65.315)"
     fill="none"
     stroke="#192833"
     stroke-miterlimit="10"
     stroke-width="30"
     id="path1069" />
  <a
     xlink:href="../../Arrest_Report.html"
     id="a4156"
     target="_top"
     xlink:title="Arrest Report">
    <g
       id="g4154">
      <circle
         cx="726.5"
         cy="564.685"
         r="127.5"
         stroke-miterlimit="10"
         id="circle1071"
         style="fill:#f15a22;stroke:#192833;stroke-width:15;stroke-miterlimit:10" />
      <path
         d="m 714.6,653.878 -2.017,6.433 h -7.824 l 11.185,-32.019 h 8.977 l 10.177,32.019 h -8.161 l -1.729,-6.433 z m 5.665,-18.434 -3.889,12.53 h 7.248 z"
         transform="translate(-45.5,-65.315)"
         id="path1073"
         inkscape:connector-curvature="0"
         style="fill:#f9f7ea" />
      <path
         d="m 744.786,637.125 -0.192,4.128 c 1.344,-3.744 3.072,-4.8 8.017,-4.753 v 6.433 a 11.976,11.976 0 0 0 -1.728,-0.1 5.257,5.257 0 0 0 -5.041,2.784 c -0.672,1.536 -0.912,3.7 -0.912,8.161 v 6.529 h -6.817 v -23.182 z"
         transform="translate(-45.5,-65.315)"
         id="path1075"
         inkscape:connector-curvature="0"
         style="fill:#f9f7ea" />
      <path
         d="m 762.979,637.125 -0.193,4.128 c 1.345,-3.744 3.072,-4.8 8.017,-4.753 v 6.433 a 12,12 0 0 0 -1.729,-0.1 5.258,5.258 0 0 0 -5.04,2.784 c -0.672,1.536 -0.912,3.7 -0.912,8.161 v 6.529 h -6.816 v -23.182 z"
         transform="translate(-45.5,-65.315)"
         id="path1077"
         inkscape:connector-curvature="0"
         style="fill:#f9f7ea" />
      <a
         xlink:href="../../Arrest_Report.html"
         xlink:title="Arrest Report"
         target="_top"
         id="a5243">
        <path
           id="path1079"
           transform="translate(-45.5,-65.315)"
           d="m 780.21,650.71 c 0.433,3.168 2.3,4.9 5.232,4.9 a 4.346,4.346 0 0 0 4.033,-2.064 h 6.912 c -1.295,4.512 -5.616,7.393 -11.137,7.393 -7.152,0 -11.9,-4.9 -11.9,-12.193 0,-7.249 4.847,-12.242 11.856,-12.242 a 10.469,10.469 0 0 1 10.321,6.817 18.787,18.787 0 0 1 1.153,7.393 z m 9.456,-4.8 c -0.287,-2.736 -1.871,-4.224 -4.512,-4.224 -2.641,0 -4.368,1.488 -4.9,4.224 z"
           inkscape:connector-curvature="0"
           style="fill:#f9f7ea" />
      </a>
      <path
         d="m 814.29,644.085 c -0.288,-1.728 -1.681,-2.64 -3.936,-2.64 -1.969,0 -3.264,0.768 -3.264,1.92 0,0.864 0.672,1.3 2.832,1.776 l 4.271,0.912 c 2.833,0.576 4.274,1.2 5.282,2.257 a 6.466,6.466 0 0 1 1.728,4.656 c 0,4.9 -3.984,7.969 -10.418,7.969 -6.434,0 -10.416,-3.025 -10.8,-8.161 h 6.385 c 0.385,2.208 1.824,3.216 4.561,3.216 2.16,0 3.552,-0.864 3.552,-2.256 0,-1.1 -0.768,-1.68 -2.592,-2.112 l -4.224,-0.96 c -5.089,-1.1 -7.057,-2.976 -7.057,-6.673 0,-4.656 3.7,-7.489 9.889,-7.489 5.952,0 9.553,2.688 10.176,7.585 z"
         transform="translate(-45.5,-65.315)"
         id="path1081"
         inkscape:connector-curvature="0"
         style="fill:#f9f7ea" />
      <path
         d="m 837.809,642.213 h -4.176 v 9.025 c 0,3.648 0.144,3.936 1.728,3.936 h 2.448 v 5.137 h -4.176 c -2.977,0 -4.465,-0.433 -5.473,-1.537 -1.056,-1.152 -1.344,-2.4 -1.344,-6 v -10.561 h -3.264 v -4.8 h 3.264 v -7.345 h 6.817 v 7.345 h 4.176 z"
         transform="translate(-45.5,-65.315)"
         id="path1083"
         inkscape:connector-curvature="0"
         style="fill:#f9f7ea" />
      <path
         d="m 789.012,569.479 v -6.594 a 3.621,3.621 0 0 0 -3.753,-3.414 H 775.3 a 3.312,3.312 0 0 0 -3.4,3.414 v 6.594 a 13.988,13.988 0 0 0 -5.6,9.633 c 0,0.006 -0.043,0.012 -0.042,0.018 a 13.834,13.834 0 0 0 -0.137,1.761 14.211,14.211 0 1 0 28.421,0 14.5,14.5 0 0 0 -5.53,-11.412 z m -8.735,-6.5 a 1.946,1.946 0 1 1 -1.929,1.946 1.938,1.938 0 0 1 1.929,-1.947 z m 5.513,23.476 a 7.748,7.748 0 0 1 -11.026,0 7.828,7.828 0 0 1 -2.212,-4.509 c 0,-0.033 -0.008,-0.065 -0.012,-0.1 -0.015,-0.123 -0.027,-0.246 -0.036,-0.37 0,-0.04 -0.006,-0.08 -0.008,-0.12 -0.009,-0.155 -0.015,-0.31 -0.015,-0.467 0,-0.157 0,-0.295 0.013,-0.441 0,-0.037 0,-0.075 0.008,-0.112 0.008,-0.113 0.017,-0.225 0.03,-0.337 0,-0.036 0.008,-0.072 0.013,-0.107 0.015,-0.12 0.032,-0.238 0.052,-0.356 0,-0.025 0.008,-0.049 0.013,-0.073 0.026,-0.143 0.055,-0.284 0.088,-0.424 a 7.834,7.834 0 0 1 2.066,-3.712 7.748,7.748 0 0 1 11.026,0 7.918,7.918 0 0 1 0,11.125 z"
         transform="translate(-45.5,-65.315)"
         stroke-miterlimit="10"
         id="path1085"
         inkscape:connector-curvature="0"
         style="fill:#ffffff;stroke:#f9f7ea;stroke-miterlimit:10" />
      <path
         d="m 764.411,586.458 a 7.771,7.771 0 0 1 -13.046,-2.669 7.879,7.879 0 0 1 0.267,-6.014 7.771,7.771 0 0 1 4.4,-4.063 7.684,7.684 0 0 1 5.961,0.27 7.8,7.8 0 0 1 2.313,1.666 17.236,17.236 0 0 1 1.076,-2.447 20.133,20.133 0 0 1 3.9,-4.982 v -5.334 c 0,-0.218 -0.069,-0.434 -0.047,-0.646 l -5.963,-2.8 a 3.536,3.536 0 0 0 -4.708,1.715 l -2.779,5.974 a 14.161,14.161 0 0 0 -9.909,7.925 14.335,14.335 0 0 0 6.822,18.985 14.05,14.05 0 0 0 15,-1.919 16.878,16.878 0 0 1 -2.9,-4.634 c -0.139,-0.336 -0.267,-0.685 -0.387,-1.027 z m 0.671,-22.546 a 1.946,1.946 0 1 1 -1.928,1.946 1.937,1.937 0 0 1 1.928,-1.946 z"
         transform="translate(-45.5,-65.315)"
         stroke-miterlimit="10"
         id="path1087"
         inkscape:connector-curvature="0"
         style="fill:#ffffff;stroke:#f9f7ea;stroke-miterlimit:10" />
      <path
         d="m 768.079,560.2 a 4.876,4.876 0 0 0 4.848,-4.893 c 0,-0.065 -0.007,-0.128 -0.01,-0.193 a 5.664,5.664 0 0 1 7.36,2.968 4.892,4.892 0 0 0 0,-9.784 4.78,4.78 0 0 0 -2.04,0.46 4.841,4.841 0 0 0 -9.453,1.523 c 0,0.065 0.007,0.129 0.009,0.193 a 4.8,4.8 0 0 0 -0.714,-0.059 4.893,4.893 0 0 0 0,9.785 z m 12.2,-9.234 a 2.224,2.224 0 1 1 -2.2,2.224 2.214,2.214 0 0 1 2.198,-2.222 z m -6.645,-2.909 a 2.224,2.224 0 1 1 -2.2,2.224 2.214,2.214 0 0 1 2.198,-2.222 z m -5.553,5.027 a 2.224,2.224 0 1 1 -2.2,2.223 2.213,2.213 0 0 1 2.198,-2.221 z"
         transform="translate(-45.5,-65.315)"
         stroke-miterlimit="10"
         id="path1089"
         inkscape:connector-curvature="0"
         style="fill:#ffffff;stroke:#f9f7ea;stroke-miterlimit:10" />
    </g>
  </a>
  <a
     xlink:href="../../Case_Outcomes_Report.html"
     id="a4277"
     target="_top"
     xlink:title="Case Outcomes Report">
    <g
       id="g4275">
      <a
         xlink:href="../../Case_Outcomes_Report.html"
         target="_top"
         xlink:title="Case Outcomes Report"
         id="a5197">
        <circle
           id="circle1091"
           stroke-miterlimit="10"
           r="127.5"
           cy="1342.6851"
           cx="455.5"
           style="fill:#4d7dbf;stroke:#192833;stroke-width:15;stroke-miterlimit:10" />
      </a>
      <path
         d="m 422.31,1427.565 c 0,9.746 -6.481,16.466 -15.842,16.466 -9.5,0 -15.889,-6.72 -15.889,-16.754 0,-5.232 1.776,-9.745 4.944,-12.625 a 15.741,15.741 0 0 1 10.9,-4.08 c 9.646,0 15.887,6.672 15.887,16.993 z m -24.195,-0.288 c 0,6.672 3.121,10.657 8.353,10.657 5.136,0 8.305,-3.985 8.305,-10.512 0,-6.77 -3.072,-10.754 -8.353,-10.754 -5.184,0 -8.305,3.984 -8.305,10.609 z"
         transform="translate(-45.5,-65.315)"
         id="path1093"
         inkscape:connector-curvature="0"
         style="fill:#f9f7ea" />
      <path
         d="m 448.42,1443.311 h -6.481 v -2.545 a 6.619,6.619 0 0 1 -6.144,3.169 8.637,8.637 0 0 1 -6.145,-2.4 c -1.584,-1.584 -2.208,-3.552 -2.208,-6.864 v -14.545 h 6.817 v 13.057 c 0,2.256 0.1,2.832 0.72,3.648 a 3.6,3.6 0 0 0 2.976,1.344 3.5,3.5 0 0 0 2.928,-1.344 c 0.624,-0.816 0.721,-1.344 0.721,-3.648 v -13.057 h 6.816 z"
         transform="translate(-45.5,-65.315)"
         id="path1095"
         inkscape:connector-curvature="0"
         style="fill:#f9f7ea" />
      <path
         d="m 466.227,1425.213 h -4.177 v 9.025 c 0,3.649 0.144,3.936 1.728,3.936 h 2.449 v 5.137 h -4.177 c -2.976,0 -4.464,-0.432 -5.472,-1.537 -1.056,-1.152 -1.344,-2.4 -1.344,-6 v -10.56 h -3.265 v -4.8 h 3.265 v -7.344 h 6.816 v 7.344 h 4.177 z"
         transform="translate(-45.5,-65.315)"
         id="path1097"
         inkscape:connector-curvature="0"
         style="fill:#f9f7ea" />
      <path
         d="m 484.946,1428.477 a 3.944,3.944 0 0 0 -4.224,-3.456 c -3.12,0 -4.8,2.352 -4.8,6.577 0,4.465 1.681,6.816 4.849,6.816 2.448,0 3.792,-1.248 4.32,-3.984 l 6.625,0.336 c -0.961,5.856 -4.993,9.169 -11.137,9.169 -7.057,0 -11.521,-4.7 -11.521,-12.146 0,-7.68 4.416,-12.289 11.761,-12.289 6.048,0 10.177,3.457 10.609,8.977 z"
         transform="translate(-45.5,-65.315)"
         id="path1099"
         inkscape:connector-curvature="0"
         style="fill:#f9f7ea" />
      <path
         d="m 519.555,1431.886 c 0,7.009 -5.184,12.049 -12.337,12.049 -7.2,0 -12.289,-5.04 -12.289,-12.242 0,-7.152 5.088,-12.193 12.289,-12.193 7.345,0 12.337,4.993 12.337,12.386 z m -17.762,-0.193 c 0,4.37 1.969,6.817 5.473,6.817 3.408,0 5.424,-2.447 5.424,-6.672 0,-4.465 -1.92,-6.913 -5.472,-6.913 -3.456,0 -5.425,2.448 -5.425,6.768 z"
         transform="translate(-45.5,-65.315)"
         id="path1101"
         inkscape:connector-curvature="0"
         style="fill:#f9f7ea" />
      <a
         xlink:href="../../Case_Outcomes_Report.html"
         xlink:title="Case Outcomes Report"
         target="_top"
         xlink:role=""
         id="a5225">
        <path
           id="path1103"
           transform="translate(-45.5,-65.315)"
           d="m 531.025,1420.125 v 2.783 c 2.16,-2.639 3.6,-3.408 6.384,-3.408 a 6.682,6.682 0 0 1 6.433,3.744 c 2.5,-2.832 4.224,-3.744 7.2,-3.744 a 7.828,7.828 0 0 1 5.761,2.16 c 1.3,1.393 1.824,3.265 1.824,6.241 v 15.41 h -6.816 v -12.77 c 0,-3.552 -1.057,-5.137 -3.409,-5.137 -2.4,0 -3.456,1.585 -3.456,5.137 v 12.77 h -6.817 v -12.77 c 0,-3.552 -1.056,-5.137 -3.456,-5.137 -2.352,0 -3.456,1.585 -3.456,5.137 v 12.77 H 524.4 v -23.186 z"
           inkscape:connector-curvature="0"
           style="fill:#f9f7ea" />
      </a>
      <a
         xlink:href="../../Case_Outcomes_Report.html"
         id="a3951"
         target="_top"
         xlink:title="Case Outcomes Report">
        <path
           id="path1105"
           transform="translate(-45.5,-65.315)"
           d="m 570.385,1433.71 c 0.431,3.168 2.3,4.895 5.232,4.895 a 4.343,4.343 0 0 0 4.031,-2.063 h 6.914 c -1.3,4.513 -5.617,7.393 -11.137,7.393 -7.154,0 -11.9,-4.9 -11.9,-12.193 0,-7.249 4.848,-12.242 11.857,-12.242 a 10.469,10.469 0 0 1 10.32,6.816 18.8,18.8 0 0 1 1.153,7.394 z m 9.456,-4.8 c -0.288,-2.736 -1.872,-4.223 -4.513,-4.223 -2.641,0 -4.367,1.487 -4.9,4.223 z"
           inkscape:connector-curvature="0"
           style="fill:#f9f7ea" />
      </a>
      <path
         d="m 604.465,1427.085 c -0.288,-1.728 -1.68,-2.64 -3.937,-2.64 -1.967,0 -3.264,0.768 -3.264,1.92 0,0.864 0.672,1.3 2.832,1.776 l 4.273,0.912 c 2.832,0.576 4.273,1.2 5.28,2.257 a 6.46,6.46 0 0 1 1.728,4.656 c 0,4.9 -3.984,7.969 -10.416,7.969 -6.432,0 -10.418,-3.025 -10.8,-8.162 h 6.384 c 0.384,2.209 1.824,3.217 4.56,3.217 2.161,0 3.552,-0.864 3.552,-2.256 0,-1.1 -0.767,-1.68 -2.592,-2.113 l -4.224,-0.959 c -5.088,-1.1 -7.057,-2.976 -7.057,-6.673 0,-4.657 3.7,-7.489 9.889,-7.489 5.953,0 9.554,2.688 10.178,7.585 z"
         transform="translate(-45.5,-65.315)"
         id="path1107"
         inkscape:connector-curvature="0"
         style="fill:#f9f7ea" />
      <a
         xlink:href="../../Case_Outcomes_Report.html"
         target="_top"
         xlink:title="Case Outcomes Report"
         id="a5213">
        <path
           id="path1109"
           stroke-miterlimit="10"
           transform="translate(-45.5,-65.315)"
           d="m 471.563,1373.4 h 25 v 4.167 h -25 z m 22.917,-2.083 h -20.834 a 4.166,4.166 0 0 1 4.167,-4.167 h 12.5 a 4.166,4.166 0 0 1 4.167,4.163 z m 13.269,-26.748 -4.68,4.577 c 0,0 13.107,11.544 17.025,14.884 a 3.95,3.95 0 0 1 1.469,3.012 3.85,3.85 0 0 1 -4.062,3.79 3.993,3.993 0 0 1 -2.752,-1.452 c -3.373,-3.907 -14.73,-17.186 -14.73,-17.186 l -4.677,4.575 -12.2,-12.2 12.411,-12.2 z m -25.623,1.929 a 2.1580899,2.1580899 0 0 0 -3.052,3.052 l 11.485,11.482 a 2.156,2.156 0 1 0 3.05,-3.048 z m 18.3,-18.3 a 2.157,2.157 0 0 0 -3.682,1.525 2.14,2.14 0 0 0 0.632,1.525 l 11.485,11.486 a 2.156,2.156 0 1 0 3.048,-3.05 z"
           inkscape:connector-curvature="0"
           style="fill:#ffffff;fill-rule:evenodd;stroke:#f9f7ea;stroke-miterlimit:10" />
      </a>
    </g>
  </a>
  <a
     xlink:href="Bail_Report.html"
     id="a4246"
     target="_top"
     xlink:title="Bail Report">
    <g
       id="g4244">
      <a
         xlink:href="../../Bail_Report.html"
         target="_top"
         xlink:title="Bail Report"
         id="a5194">
        <circle
           id="circle1111"
           stroke-miterlimit="10"
           r="127.5"
           cy="1083.6851"
           cx="206.5"
           style="fill:#4d7dbf;stroke:#192833;stroke-width:15;stroke-miterlimit:10" />
      </a>
      <path
         d="m 169.466,1149.292 h 13.01 c 4.032,0 6.336,0.432 8.4,1.632 a 7.594,7.594 0 0 1 3.648,6.529 c 0,3.072 -1.44,5.233 -4.512,6.72 3.7,1.776 5.28,4.128 5.28,7.825 a 8.766,8.766 0 0 1 -3.312,7.2 c -2.064,1.585 -4.32,2.113 -8.88,2.113 h -13.634 z m 13.922,12.433 c 2.592,0 3.936,-1.056 3.936,-3.168 0,-2.065 -1.344,-3.12 -3.936,-3.12 h -6.865 v 6.288 z m -0.1,13.441 c 3.024,0 4.656,-1.344 4.656,-3.889 0,-2.545 -1.632,-3.888 -4.656,-3.888 h -6.769 v 7.777 z"
         transform="translate(-45.5,-65.315)"
         id="path1113"
         inkscape:connector-curvature="0"
         style="fill:#f9f7ea" />
      <path
         d="m 200.378,1165.422 c 0.432,-5.329 3.744,-7.922 10.273,-7.922 3.5,0 6.192,0.816 8.016,2.4 1.681,1.489 2.305,3.361 2.305,6.77 v 10.656 c 0,2.5 0.1,2.832 0.864,3.985 h -6.961 c -0.288,-0.817 -0.288,-0.96 -0.528,-1.825 a 9.005,9.005 0 0 1 -6.624,2.449 c -5.137,0 -8.545,-2.88 -8.545,-7.249 0,-4.369 2.736,-6.624 9.217,-7.68 l 3.7,-0.625 c 1.536,-0.24 2.064,-0.623 2.064,-1.584 0,-1.3 -1.344,-2.111 -3.552,-2.111 -2.5,0 -3.84,0.863 -4.128,2.736 z m 13.969,4.848 a 13.413,13.413 0 0 1 -2.5,0.72 l -2.448,0.528 c -2.448,0.576 -3.5,1.392 -3.5,2.784 0,1.536 1.3,2.448 3.456,2.448 a 5.324,5.324 0 0 0 4.993,-2.928 z"
         transform="translate(-45.5,-65.315)"
         id="path1115"
         inkscape:connector-curvature="0"
         style="fill:#f9f7ea" />
      <path
         d="m 233.834,1154.908 h -6.816 v -5.616 h 6.816 z m 0,26.4 h -6.816 v -23.186 h 6.816 z"
         transform="translate(-45.5,-65.315)"
         id="path1117"
         inkscape:connector-curvature="0"
         style="fill:#f9f7ea" />
      <path
         d="m 246.65,1181.311 h -6.816 v -32.019 h 6.816 z"
         transform="translate(-45.5,-65.315)"
         id="path1119"
         inkscape:connector-curvature="0"
         style="fill:#f9f7ea" />
      <path
         d="m 285,1159.324 v -0.527 c 0,-2.689 -2.112,-4.225 -5.761,-4.225 -3.408,0 -5.472,1.248 -5.472,3.264 0,1.345 0.96,2.257 2.928,2.736 l 6.481,1.489 c 3.552,0.864 5.52,1.728 7.056,3.168 a 7.886,7.886 0 0 1 2.449,6.1 c 0,6.624 -5.089,10.7 -13.394,10.7 -8.641,0 -13.633,-4.129 -13.681,-11.281 h 7.2 c 0.144,3.648 2.208,5.28 6.576,5.28 3.7,0 5.953,-1.344 5.953,-3.6 0,-1.584 -1.152,-2.688 -3.457,-3.264 l -5.808,-1.44 c -3.408,-0.817 -5.52,-1.729 -6.961,-2.977 a 8.09,8.09 0 0 1 -2.544,-6.288 c 0,-6.193 4.752,-9.889 12.865,-9.889 5.185,0 8.833,1.535 10.9,4.561 a 12.588,12.588 0 0 1 1.872,6.191 z"
         transform="translate(-45.5,-65.315)"
         id="path1121"
         inkscape:connector-curvature="0"
         style="fill:#f9f7ea" />
      <path
         d="m 303.528,1171.71 c 0.432,3.168 2.305,4.895 5.233,4.895 a 4.344,4.344 0 0 0 4.032,-2.063 h 6.913 c -1.3,4.513 -5.617,7.393 -11.137,7.393 -7.153,0 -11.905,-4.9 -11.905,-12.193 0,-7.249 4.848,-12.242 11.857,-12.242 a 10.471,10.471 0 0 1 10.321,6.816 18.816,18.816 0 0 1 1.152,7.394 z m 9.457,-4.8 c -0.288,-2.736 -1.872,-4.223 -4.512,-4.223 -2.64,0 -4.369,1.487 -4.9,4.223 z"
         transform="translate(-45.5,-65.315)"
         id="path1123"
         inkscape:connector-curvature="0"
         style="fill:#f9f7ea" />
      <a
         xlink:href="../../Bail_Report.html"
         xlink:title="Bail Report"
         id="a5210">
        <path
           id="path1125"
           transform="translate(-45.5,-65.315)"
           d="m 336.505,1163.213 h -4.176 v 9.025 c 0,3.649 0.144,3.936 1.728,3.936 h 2.448 v 5.137 h -4.176 c -2.976,0 -4.465,-0.432 -5.473,-1.537 -1.056,-1.152 -1.344,-2.4 -1.344,-6 v -10.56 h -3.264 v -4.8 h 3.264 v -7.344 h 6.817 v 7.344 h 4.176 z"
           inkscape:connector-curvature="0"
           style="fill:#f9f7ea" />
      </a>
      <a
         xlink:href="../../Bail_Report.html"
         id="a3948"
         target="_top"
         xlink:title="Bail Report">
        <path
           id="path1127"
           stroke-miterlimit="10"
           transform="translate(-45.5,-65.315)"
           d="m 253.7,1074.176 v 35.409 h 14.5 a 0.31,0.31 0 0 1 0.279,0.333 v 3.749 A 0.312,0.312 0 0 1 268.2,1114 h -31.9 a 0.31,0.31 0 0 1 -0.278,-0.333 v -3.749 a 0.31,0.31 0 0 1 0.278,-0.333 h 14.5 v -35.392 a 4.9,4.9 0 0 1 -2.7,-3.229 h -9.165 v 1.667 a 0.31,0.31 0 0 1 -0.279,0.333 h -2.352 a 0.31,0.31 0 0 1 -0.279,-0.333 v -1.667 h -2.331 a 0.33,0.33 0 0 1 -0.324,-0.333 v -2.814 a 0.33,0.33 0 0 1 0.324,-0.334 H 248.1 a 4.188,4.188 0 0 1 8.256,0 h 14.456 a 0.33,0.33 0 0 1 0.324,0.334 v 2.814 a 0.33,0.33 0 0 1 -0.324,0.333 h -2.632 v 1.667 a 0.31,0.31 0 0 1 -0.278,0.333 h -2.352 a 0.31,0.31 0 0 1 -0.279,-0.333 v -1.667 h -8.907 a 4.915,4.915 0 0 1 -2.664,3.212 z m 13.855,0.681 9.323,19.706 a 1.213,1.213 0 0 1 0.113,0.535 H 277 c 0,0.024 0,0.048 0,0.074 0,4.693 -4.62,8.5 -10.316,8.5 -5.633,0 -10.212,-3.724 -10.312,-8.348 a 1.259,1.259 0 0 1 -0.025,-0.249 1.172,1.172 0 0 1 0.15,-0.583 l 9.534,-19.68 a 0.8,0.8 0 0 1 1.186,-0.378 0.976,0.976 0 0 1 0.337,0.423 z m 0.035,4.286 v 14.892 h 7.046 z m -1.662,14.891 v -14.869 l -7.2,14.869 z m -27.721,-19.178 9.324,19.706 a 1.186,1.186 0 0 1 0.113,0.535 h 0.008 c 0,0.024 0,0.048 0,0.074 0,4.693 -4.619,8.5 -10.314,8.5 -5.634,0 -10.214,-3.724 -10.313,-8.348 a 1.21,1.21 0 0 1 0.124,-0.832 l 9.535,-19.68 a 0.794,0.794 0 0 1 1.185,-0.378 0.976,0.976 0 0 1 0.338,0.423 z m 0.035,4.286 v 14.892 h 7.047 z m -1.662,14.892 v -14.869 l -7.2,14.869 z m 15.645,-27.078 a 2.321,2.321 0 1 1 -1.909,2.284 2.121,2.121 0 0 1 1.909,-2.284 z"
           inkscape:connector-curvature="0"
           style="fill:#ffffff;fill-rule:evenodd;stroke:#f9f7ea;stroke-miterlimit:10" />
      </a>
    </g>
  </a>
  <a
     xlink:href="../../Charge_Report.html"
     id="a4215"
     target="_top"
     xlink:title="Charge Report">
    <g
       id="g4213">
      <a
         xlink:href="../../Charge_Report.html"
         target="_top"
         xlink:title="Charge Report"
         id="a5191">
        <circle
           id="circle1129"
           stroke-miterlimit="10"
           r="127.5"
           cy="824.685"
           cx="459.5"
           style="fill:#4d7dbf;stroke:#192833;stroke-width:15;stroke-miterlimit:10" />
      </a>
      <path
         d="m 436.388,897.517 c -0.72,-3.073 -3.072,-4.849 -6.481,-4.849 -5.28,0 -8.3,3.889 -8.3,10.609 0,6.673 3.024,10.657 8.112,10.657 3.7,0 5.905,-1.824 6.769,-5.664 h 7.633 c -0.865,7.248 -6.289,11.761 -14.21,11.761 -9.456,0 -15.5,-6.529 -15.5,-16.754 0,-10.273 5.952,-16.705 15.457,-16.705 7.729,0 13.01,4.128 13.873,10.945 z"
         transform="translate(-45.5,-65.315)"
         id="path1131"
         inkscape:connector-curvature="0"
         style="fill:#f9f7ea" />
      <a
         xlink:href="../../Charges_Report.html"
         xlink:title="Charges Report"
         target="_top"
         id="a5222">
        <path
           id="path1133"
           transform="translate(-45.5,-65.315)"
           d="m 455.25,898.093 a 8.287,8.287 0 0 1 6.15,-2.593 7.9,7.9 0 0 1 5.953,2.5 c 1.488,1.632 2.064,3.6 2.064,7.056 v 14.258 H 462.6 V 906.3 c 0,-2.16 -0.192,-3.024 -0.768,-3.84 a 3.253,3.253 0 0 0 -2.688,-1.2 4.254,4.254 0 0 0 -2.976,1.152 c -0.768,0.816 -0.913,1.488 -0.913,3.888 v 13.01 h -6.816 v -32.018 h 6.816 z"
           inkscape:connector-curvature="0"
           style="fill:#f9f7ea" />
      </a>
      <path
         d="m 475.458,903.421 c 0.432,-5.328 3.744,-7.921 10.273,-7.921 3.5,0 6.192,0.816 8.017,2.4 1.68,1.488 2.3,3.36 2.3,6.768 v 10.657 c 0,2.5 0.1,2.832 0.864,3.985 h -6.961 c -0.288,-0.816 -0.288,-0.96 -0.528,-1.825 a 9.005,9.005 0 0 1 -6.624,2.449 c -5.137,0 -8.545,-2.881 -8.545,-7.249 0,-4.368 2.736,-6.624 9.217,-7.681 l 3.7,-0.624 c 1.536,-0.24 2.064,-0.624 2.064,-1.584 0,-1.3 -1.344,-2.112 -3.552,-2.112 -2.5,0 -3.84,0.864 -4.128,2.736 z m 13.969,4.849 a 13.413,13.413 0 0 1 -2.5,0.72 l -2.448,0.528 c -2.448,0.576 -3.5,1.392 -3.5,2.784 0,1.536 1.3,2.448 3.456,2.448 a 5.323,5.323 0 0 0 4.992,-2.928 z"
         transform="translate(-45.5,-65.315)"
         id="path1135"
         inkscape:connector-curvature="0"
         style="fill:#f9f7ea" />
      <a
         id="a5203">
        <path
           id="path1137"
           transform="translate(-45.5,-65.315)"
           d="m 508.771,896.125 -0.192,4.128 c 1.344,-3.744 3.072,-4.8 8.016,-4.753 v 6.433 a 11.976,11.976 0 0 0 -1.728,-0.1 5.256,5.256 0 0 0 -5.04,2.784 c -0.672,1.536 -0.912,3.7 -0.912,8.161 v 6.529 H 502.1 v -23.182 z"
           inkscape:connector-curvature="0"
           style="fill:#f9f7ea" />
      </a>
      <path
         d="M 542.659,896.269 V 917.1 c 0,3.792 -0.528,5.472 -2.16,7.056 -2.112,2.064 -5.28,3.12 -9.265,3.12 -6.48,0 -10.369,-2.64 -10.849,-7.392 h 7.057 c 0.48,1.44 1.824,2.16 4.08,2.16 a 5.228,5.228 0 0 0 3.216,-0.912 c 1.009,-0.816 1.3,-1.68 1.3,-4.032 v -1.537 a 8.146,8.146 0 0 1 -6.241,2.5 c -6.1,0 -10.465,-4.657 -10.465,-11.186 0,-6.529 4.414,-11.377 10.268,-11.377 a 7.435,7.435 0 0 1 6.769,3.6 l -0.144,-2.832 z m -16.849,10.512 c 0,3.409 2.064,5.761 5.136,5.761 3.168,0 5.137,-2.256 5.137,-5.856 0,-3.409 -2.064,-5.665 -5.137,-5.665 -3.073,0 -5.136,2.304 -5.136,5.76 z"
         transform="translate(-45.5,-65.315)"
         id="path1139"
         inkscape:connector-curvature="0"
         style="fill:#f9f7ea" />
      <path
         d="m 554.562,909.71 c 0.432,3.168 2.3,4.9 5.232,4.9 a 4.345,4.345 0 0 0 4.032,-2.064 h 6.912 c -1.3,4.512 -5.615,7.393 -11.136,7.393 -7.153,0 -11.9,-4.9 -11.9,-12.193 0,-7.249 4.848,-12.242 11.857,-12.242 a 10.47,10.47 0 0 1 10.321,6.817 18.808,18.808 0 0 1 1.152,7.393 z m 9.456,-4.8 c -0.288,-2.736 -1.872,-4.224 -4.512,-4.224 -2.64,0 -4.368,1.488 -4.9,4.224 z"
         transform="translate(-45.5,-65.315)"
         id="path1141"
         inkscape:connector-curvature="0"
         style="fill:#f9f7ea" />
      <path
         d="m 588.642,903.085 c -0.288,-1.728 -1.681,-2.64 -3.937,-2.64 -1.969,0 -3.264,0.768 -3.264,1.92 0,0.864 0.672,1.3 2.832,1.776 l 4.272,0.912 c 2.833,0.576 4.273,1.2 5.281,2.257 a 6.462,6.462 0 0 1 1.729,4.656 c 0,4.9 -3.985,7.969 -10.418,7.969 -6.433,0 -10.416,-3.025 -10.8,-8.161 h 6.385 c 0.384,2.208 1.824,3.216 4.56,3.216 2.16,0 3.553,-0.864 3.553,-2.256 0,-1.1 -0.769,-1.68 -2.593,-2.112 l -4.223,-0.96 c -5.089,-1.1 -7.057,-2.976 -7.057,-6.673 0,-4.656 3.695,-7.489 9.889,-7.489 5.952,0 9.552,2.688 10.175,7.585 z"
         transform="translate(-45.5,-65.315)"
         id="path1143"
         inkscape:connector-curvature="0"
         style="fill:#f9f7ea" />
      <a
         xlink:href="../../Charge_Report.html"
         xlink:title="Charge Report"
         target="_top"
         id="a5206">
        <g
           id="surface1">
          <path
             id="path1145"
             transform="translate(-45.5,-65.315)"
             d="m 487,812.022 a 1,1 0 0 0 -1,1 v 32.971 h 27 a 3.0001602,3.0001602 0 0 1 0.062,6 3.906,3.906 0 0 0 -1.062,3 c 0,1.893 1.254,4.723 3.25,4.934 h 3.469 A 8.975,8.975 0 0 0 522,852.986 v -39.965 a 1,1 0 0 0 -1,-1 z m -2,36.968 c -2.758,0 -5,2.138 -5,5.994 0,3.856 2.242,6.994 5,6.994 h 24 c 0.555,0 2.488,0.1 3,0 -3.094,0 -5,-4.332 -5,-6.994 0,-2.662 1.4,-4 3,-4 a 1,1 0 1 0 0,-2 z"
             inkscape:connector-curvature="0"
             style="fill:#ffffff" />
        </g>
      </a>
    </g>
  </a>
  <polyline
     points="872.5 554.185 922.5 554.185 922.5 1331.185 599.5 1331.185"
     fill="none"
     stroke="#192833"
     stroke-miterlimit="10"
     stroke-width="15"
     stroke-dasharray="12"
     id="polyline1148" />
  <a
     xlink:href="../../Case_Length_Report.html"
     id="a4345"
     target="_top"
     xlink:title="Case Length Report">
    <g
       id="g4343">
      <a
         xlink:href="../../Case_Length_Report.html"
         xlink:title="Case Length Report"
         id="a5200"
         target="_top">
        <rect
           id="rect1150"
           rx="9"
           height="373.94101"
           width="196"
           y="769.04797"
           x="825"
           style="fill:#4d7dbf" />
      </a>
      <rect
         x="825"
         y="769.04797"
         width="196"
         height="373.94101"
         rx="9"
         stroke-miterlimit="10"
         id="rect1152"
         style="fill:none;stroke:#192833;stroke-width:15;stroke-miterlimit:10" />
      <path
         d="m 933.106,1068.671 c -3.072,0.721 -4.847,3.073 -4.847,6.481 0,5.281 3.887,8.3 10.608,8.3 6.673,0 10.657,-3.023 10.657,-8.112 0,-3.7 -1.824,-5.905 -5.665,-6.768 v -7.633 c 7.249,0.864 11.762,6.289 11.762,14.209 0,9.457 -6.529,15.506 -16.754,15.506 -10.272,0 -16.7,-5.953 -16.7,-15.457 0,-7.729 4.128,-13.01 10.944,-13.873 z"
         id="path1154"
         inkscape:connector-curvature="0"
         style="fill:#f9f7ea" />
      <path
         d="m 939.012,1056.485 c -5.329,-0.432 -7.921,-3.744 -7.921,-10.273 0,-3.5 0.815,-6.192 2.4,-8.017 1.488,-1.68 3.361,-2.3 6.769,-2.3 h 10.656 c 2.5,0 2.833,-0.1 3.984,-0.864 v 6.961 c -0.815,0.288 -0.96,0.288 -1.824,0.528 a 9,9 0 0 1 2.448,6.624 c 0,5.137 -2.879,8.545 -7.248,8.545 -4.369,0 -6.625,-2.736 -7.68,-9.217 l -0.624,-3.7 c -0.241,-1.536 -0.624,-2.064 -1.584,-2.064 -1.3,0 -2.113,1.344 -2.113,3.552 0,2.5 0.864,3.84 2.737,4.128 z m 4.847,-13.969 a 13.4,13.4 0 0 1 0.721,2.5 l 0.527,2.448 c 0.577,2.448 1.393,3.5 2.785,3.5 1.536,0 2.448,-1.3 2.448,-3.456 a 5.323,5.323 0 0 0 -2.928,-4.992 z"
         id="path1156"
         inkscape:connector-curvature="0"
         style="fill:#f9f7ea" />
      <path
         d="m 938.675,1016.977 c -1.728,0.288 -2.64,1.68 -2.64,3.937 0,1.968 0.768,3.264 1.92,3.264 0.864,0 1.3,-0.672 1.776,-2.832 l 0.913,-4.273 c 0.576,-2.832 1.2,-4.272 2.255,-5.281 a 6.466,6.466 0 0 1 4.657,-1.728 c 4.9,0 7.968,3.985 7.968,10.417 0,6.432 -3.024,10.417 -8.16,10.8 v -6.384 c 2.208,-0.384 3.216,-1.824 3.216,-4.561 0,-2.16 -0.864,-3.552 -2.256,-3.552 -1.1,0 -1.68,0.768 -2.112,2.592 l -0.96,4.225 c -1.1,5.088 -2.977,7.056 -6.673,7.056 -4.656,0 -7.488,-3.7 -7.488,-9.889 0,-5.952 2.688,-9.552 7.584,-10.176 z"
         id="path1158"
         inkscape:connector-curvature="0"
         style="fill:#f9f7ea" />
      <path
         d="m 945.3,999.746 c 3.168,-0.432 4.9,-2.3 4.9,-5.232 a 4.346,4.346 0 0 0 -2.064,-4.033 v -6.912 c 4.513,1.3 7.392,5.616 7.392,11.137 0,7.152 -4.9,11.9 -12.192,11.9 -7.249,0 -12.241,-4.849 -12.241,-11.857 a 10.468,10.468 0 0 1 6.816,-10.321 18.811,18.811 0 0 1 7.393,-1.152 z m -4.8,-9.461 c -2.736,0.288 -4.224,1.873 -4.224,4.513 0,2.64 1.488,4.368 4.224,4.9 z"
         id="path1160"
         inkscape:connector-curvature="0"
         style="fill:#f9f7ea" />
      <path
         d="m 948.756,956.403 v -15.65 h 6.144 v 22.85 h -32.018 v -7.2 z"
         id="path1162"
         inkscape:connector-curvature="0"
         style="fill:#f9f7ea" />
      <path
         d="m 945.3,931.299 c 3.168,-0.432 4.9,-2.3 4.9,-5.233 a 4.345,4.345 0 0 0 -2.064,-4.032 v -6.912 c 4.513,1.295 7.392,5.616 7.392,11.136 0,7.153 -4.9,11.906 -12.192,11.906 -7.249,0 -12.241,-4.849 -12.241,-11.857 a 10.47,10.47 0 0 1 6.816,-10.322 18.811,18.811 0 0 1 7.393,-1.152 z m -4.8,-9.457 c -2.736,0.288 -4.224,1.872 -4.224,4.512 0,2.64 1.488,4.369 4.224,4.9 z"
         id="path1164"
         inkscape:connector-curvature="0"
         style="fill:#f9f7ea" />
      <path
         style="fill:#f9f7ea"
         inkscape:connector-curvature="0"
         d="m 931.715,903.315 h 2.256 c -2.3,-2.5 -2.928,-3.936 -2.928,-6.336 0,-5.041 3.36,-8.113 8.832,-8.113 H 954.9 v 6.819 h -12.625 c -2.351,0 -3.263,0.144 -4.128,0.72 a 3.227,3.227 0 0 0 -1.347,2.78 3.842,3.842 0 0 0 1.248,2.928 c 0.864,0.768 1.824,1.008 3.841,1.008 H 954.9 v 6.817 h -23.185 z"
         id="path1166" />
      <path
         d="m 931.858,860.785 h 20.834 c 3.792,0 5.473,0.528 7.057,2.16 2.064,2.113 3.12,5.281 3.12,9.265 0,6.481 -2.64,10.369 -7.392,10.849 v -7.057 c 1.44,-0.48 2.16,-1.824 2.16,-4.08 a 5.235,5.235 0 0 0 -0.912,-3.217 c -0.816,-1.007 -1.68,-1.295 -4.033,-1.295 h -1.536 a 8.143,8.143 0 0 1 2.5,6.24 c 0,6.1 -4.656,10.465 -11.184,10.465 -6.528,0 -11.377,-4.416 -11.377,-10.273 a 7.436,7.436 0 0 1 3.6,-6.768 l -2.832,0.144 z m 10.513,16.85 c 3.409,0 5.761,-2.065 5.761,-5.137 0,-3.168 -2.256,-5.136 -5.857,-5.136 -3.408,0 -5.664,2.064 -5.664,5.136 0,3.072 2.304,5.138 5.76,5.138 z"
         id="path1168"
         inkscape:connector-curvature="0"
         style="fill:#f9f7ea" />
      <path
         d="m 936.8,842.499 v 4.177 h 9.025 c 3.649,0 3.937,-0.144 3.937,-1.728 v -2.449 h 5.135 v 4.177 c 0,2.976 -0.431,4.465 -1.536,5.473 -1.151,1.056 -2.4,1.344 -6,1.344 H 936.8 v 3.264 H 932 v -3.264 h -7.345 v -6.817 H 932 v -4.177 z"
         id="path1170"
         inkscape:connector-curvature="0"
         style="fill:#f9f7ea" />
      <a
         xlink:href="Case_Length_Report.html"
         xlink:title="Case Length Report"
         target="_top"
         id="a5240">
        <path
           id="path1172"
           transform="translate(-45.5,-65.315)"
           d="m 979.183,896.392 a 8.28,8.28 0 0 1 -2.592,-6.145 7.891,7.891 0 0 1 2.5,-5.952 c 1.632,-1.488 3.6,-2.065 7.057,-2.065 h 14.252 v 6.817 h -13.008 c -2.161,0 -3.025,0.192 -3.841,0.768 a 3.254,3.254 0 0 0 -1.2,2.688 4.251,4.251 0 0 0 1.151,2.976 c 0.816,0.768 1.488,0.913 3.889,0.913 h 13.009 v 6.816 h -32.018 v -6.816 z"
           inkscape:connector-curvature="0"
           style="fill:#f9f7ea" />
      </a>
      <path
         d="m 886.069,941.516 a 13.136,13.136 0 0 0 3.1,-8.408 v -6.423 h -33.336 v 6.423 a 13.117,13.117 0 0 0 3.1,8.406 l 6.429,7.667 a 3.711,3.711 0 0 1 0.019,4.8 l -6.521,7.9 a 13.142,13.142 0 0 0 -3.025,8.323 v 6.481 h 33.334 v -6.473 a 13.139,13.139 0 0 0 -3.027,-8.321 l -6.521,-7.9 a 3.711,3.711 0 0 1 0.019,-4.8 z m -9.669,15.119 6.521,7.9 a 8.978,8.978 0 0 1 2.075,5.9 h -2.21 c -1.652,-4.2 -10.29,-10.417 -10.29,-10.417 0,0 -8.64,6.215 -10.292,10.417 H 860 a 8.955,8.955 0 0 1 2.075,-5.894 l 6.519,-7.9 a 7.922,7.922 0 0 0 -0.04,-10.133 l -6.429,-7.669 a 8.947,8.947 0 0 1 -2.125,-5.9 h 25 a 8.961,8.961 0 0 1 -2.125,5.9 l -6.431,7.667 a 7.925,7.925 0 0 0 -0.044,10.129 z"
         stroke-miterlimit="10"
         id="path1174"
         inkscape:connector-curvature="0"
         style="fill:#f9f7ea;stroke:#f9f7ea;stroke-miterlimit:10" />
    </g>
  </a>
  <a
     xlink:href="../../Future_Years_Supervision_Report.html"
     id="a4456"
     target="_top"
     xlink:title="Future Years Superivision">
    <g
       id="g4454">
      <g
         id="g4490">
        <rect
           style="fill:#4d7dbf"
           id="rect1176"
           rx="9"
           height="196"
           width="373.94101"
           y="1524.1851"
           x="530.99298" />
      </g>
      <a
         xlink:href="../../Future_Years_Supervision_Report.html"
         id="a4492"
         target="_top"
         xlink:title="Future Years Supervision">
        <rect
           style="fill:none;stroke:#192833;stroke-width:15;stroke-miterlimit:10"
           id="rect1178"
           stroke-miterlimit="10"
           rx="9"
           height="196"
           width="373.94101"
           y="1524.1851"
           x="530.99298" />
      </a>
      <path
         d="m 575.648,1616.122 h -16.321 v 7.152 h 14.306 v 5.9 h -14.306 v 12.817 h -7.2 v -32.019 h 23.521 z"
         id="path1180"
         inkscape:connector-curvature="0"
         style="fill:#f9f7ea" />
      <path
         d="m 599.744,1641.996 h -6.48 v -2.545 a 6.622,6.622 0 0 1 -6.145,3.169 8.633,8.633 0 0 1 -6.144,-2.4 c -1.584,-1.584 -2.208,-3.552 -2.208,-6.864 v -14.545 h 6.816 v 13.057 c 0,2.256 0.1,2.832 0.72,3.648 a 3.6,3.6 0 0 0 2.976,1.344 3.5,3.5 0 0 0 2.928,-1.344 c 0.625,-0.816 0.721,-1.344 0.721,-3.648 v -13.057 h 6.816 z"
         id="path1182"
         inkscape:connector-curvature="0"
         style="fill:#f9f7ea" />
      <path
         d="m 617.551,1623.898 h -4.176 v 9.025 c 0,3.649 0.144,3.936 1.728,3.936 h 2.448 v 5.137 h -4.176 c -2.977,0 -4.465,-0.432 -5.473,-1.537 -1.056,-1.152 -1.343,-2.4 -1.343,-6 v -10.56 h -3.266 v -4.8 h 3.266 v -7.344 h 6.816 v 7.344 h 4.176 z"
         id="path1184"
         inkscape:connector-curvature="0"
         style="fill:#f9f7ea" />
      <path
         d="m 642.751,1641.996 h -6.48 v -2.545 a 6.621,6.621 0 0 1 -6.145,3.169 8.637,8.637 0 0 1 -6.145,-2.4 c -1.584,-1.584 -2.208,-3.552 -2.208,-6.864 v -14.545 h 6.817 v 13.057 c 0,2.256 0.1,2.832 0.721,3.648 a 3.592,3.592 0 0 0 2.975,1.344 3.5,3.5 0 0 0 2.929,-1.344 c 0.623,-0.816 0.72,-1.344 0.72,-3.648 v -13.057 h 6.816 z"
         id="path1186"
         inkscape:connector-curvature="0"
         style="fill:#f9f7ea" />
      <path
         d="m 655.469,1618.81 -0.192,4.128 c 1.344,-3.744 3.073,-4.8 8.017,-4.753 v 6.434 a 11.84,11.84 0 0 0 -1.728,-0.1 5.258,5.258 0 0 0 -5.041,2.784 c -0.671,1.536 -0.912,3.7 -0.912,8.161 v 6.529 H 648.8 v -23.186 z"
         id="path1188"
         inkscape:connector-curvature="0"
         style="fill:#f9f7ea" />
      <a
         xlink:href="../../Future_Years_Supervision_Report.html"
         target="_top"
         id="a5237">
        <path
           id="path1190"
           transform="translate(-45.5,-65.315)"
           d="m 718.2,1697.71 c 0.433,3.168 2.3,4.895 5.233,4.895 a 4.346,4.346 0 0 0 4.033,-2.063 h 6.912 c -1.3,4.513 -5.616,7.393 -11.137,7.393 -7.152,0 -11.9,-4.9 -11.9,-12.193 0,-7.249 4.849,-12.242 11.856,-12.242 a 10.473,10.473 0 0 1 10.323,6.816 18.836,18.836 0 0 1 1.151,7.394 z m 9.457,-4.8 c -0.287,-2.736 -1.872,-4.223 -4.512,-4.223 -2.64,0 -4.369,1.487 -4.9,4.223 z"
           inkscape:connector-curvature="0"
           style="fill:#f9f7ea" />
      </a>
      <path
         d="m 722.621,1641.996 h -7.2 v -12.049 l -10.608,-19.97 h 8.015 l 6.1,13.3 6.48,-13.3 h 7.872 l -10.657,19.97 z"
         id="path1192"
         inkscape:connector-curvature="0"
         style="fill:#f9f7ea" />
      <path
         d="m 738.846,1632.395 c 0.431,3.168 2.3,4.895 5.232,4.895 a 4.343,4.343 0 0 0 4.031,-2.063 h 6.913 c -1.3,4.513 -5.616,7.393 -11.136,7.393 -7.154,0 -11.906,-4.9 -11.906,-12.193 0,-7.249 4.849,-12.242 11.858,-12.242 a 10.469,10.469 0 0 1 10.32,6.816 18.8,18.8 0 0 1 1.153,7.394 z m 9.456,-4.8 c -0.288,-2.736 -1.872,-4.223 -4.513,-4.223 -2.641,0 -4.367,1.487 -4.9,4.223 z"
         id="path1194"
         inkscape:connector-curvature="0"
         style="fill:#f9f7ea" />
      <path
         d="m 760.061,1626.107 c 0.431,-5.329 3.744,-7.922 10.273,-7.922 3.5,0 6.191,0.816 8.016,2.4 1.68,1.489 2.3,3.361 2.3,6.77 v 10.656 c 0,2.5 0.1,2.832 0.865,3.985 h -6.961 c -0.288,-0.817 -0.288,-0.96 -0.529,-1.825 a 9,9 0 0 1 -6.624,2.449 c -5.136,0 -8.545,-2.88 -8.545,-7.249 0,-4.369 2.737,-6.624 9.217,-7.68 l 3.7,-0.625 c 1.537,-0.24 2.065,-0.623 2.065,-1.584 0,-1.3 -1.344,-2.111 -3.553,-2.111 -2.5,0 -3.84,0.863 -4.128,2.736 z m 13.968,4.848 a 13.366,13.366 0 0 1 -2.5,0.72 l -2.447,0.528 c -2.449,0.576 -3.5,1.392 -3.5,2.784 0,1.536 1.3,2.448 3.456,2.448 a 5.322,5.322 0 0 0 4.992,-2.928 z"
         id="path1196"
         inkscape:connector-curvature="0"
         style="fill:#f9f7ea" />
      <path
         d="m 793.373,1618.81 -0.192,4.128 c 1.344,-3.744 3.072,-4.8 8.016,-4.753 v 6.434 a 11.853,11.853 0 0 0 -1.728,-0.1 5.256,5.256 0 0 0 -5.04,2.784 c -0.672,1.536 -0.912,3.7 -0.912,8.161 v 6.529 H 786.7 v -23.186 z"
         id="path1198"
         inkscape:connector-curvature="0"
         style="fill:#f9f7ea" />
      <path
         d="m 818,1625.77 c -0.288,-1.728 -1.68,-2.64 -3.936,-2.64 -1.968,0 -3.265,0.768 -3.265,1.92 0,0.864 0.672,1.3 2.832,1.776 l 4.273,0.912 c 2.832,0.576 4.273,1.2 5.281,2.257 a 6.464,6.464 0 0 1 1.727,4.656 c 0,4.9 -3.984,7.969 -10.416,7.969 -6.432,0 -10.418,-3.025 -10.8,-8.162 h 6.384 c 0.384,2.209 1.824,3.217 4.561,3.217 2.16,0 3.552,-0.864 3.552,-2.256 0,-1.1 -0.768,-1.68 -2.592,-2.113 l -4.225,-0.959 c -5.088,-1.1 -7.057,-2.976 -7.057,-6.673 0,-4.657 3.7,-7.489 9.889,-7.489 5.953,0 9.554,2.688 10.178,7.585 z"
         id="path1200"
         inkscape:connector-curvature="0"
         style="fill:#f9f7ea" />
      <path
         d="m 867.388,1630.571 c 0,7.009 -5.185,12.049 -12.337,12.049 -7.2,0 -12.289,-5.04 -12.289,-12.242 0,-7.152 5.089,-12.193 12.289,-12.193 7.349,0 12.337,4.993 12.337,12.386 z m -17.762,-0.193 c 0,4.37 1.969,6.817 5.473,6.817 3.408,0 5.424,-2.447 5.424,-6.672 0,-4.465 -1.919,-6.913 -5.472,-6.913 -3.451,0 -5.425,2.448 -5.425,6.768 z"
         id="path1202"
         inkscape:connector-curvature="0"
         style="fill:#f9f7ea" />
      <path
         d="m 884.091,1623.898 h -4.416 v 18.1 h -6.817 v -18.1 h -3.216 v -4.8 h 3.216 v -1.68 c 0,-4.992 2.449,-7.44 7.489,-7.44 h 3.744 v 5.425 h -2.016 c -1.584,0 -2.4,0.72 -2.4,2.063 v 1.632 h 4.416 z"
         id="path1204"
         inkscape:connector-curvature="0"
         style="fill:#f9f7ea" />
      <path
         d="m 607.256,1677.61 v -0.529 c 0,-2.687 -2.112,-4.224 -5.761,-4.224 -3.408,0 -5.473,1.248 -5.473,3.265 0,1.344 0.96,2.256 2.929,2.736 l 6.481,1.488 c 3.552,0.864 5.52,1.728 7.056,3.168 a 7.886,7.886 0 0 1 2.449,6.1 c 0,6.625 -5.089,10.705 -13.394,10.705 -8.641,0 -13.633,-4.129 -13.682,-11.281 h 7.2 c 0.144,3.648 2.208,5.281 6.576,5.281 3.7,0 5.953,-1.345 5.953,-3.6 0,-1.584 -1.153,-2.687 -3.457,-3.263 l -5.809,-1.44 c -3.408,-0.816 -5.519,-1.728 -6.96,-2.976 a 8.093,8.093 0 0 1 -2.544,-6.289 c 0,-6.193 4.752,-9.889 12.866,-9.889 5.183,0 8.832,1.536 10.9,4.56 a 12.6,12.6 0 0 1 1.872,6.193 z"
         id="path1206"
         inkscape:connector-curvature="0"
         style="fill:#f9f7ea" />
      <path
         d="m 640.711,1699.595 h -6.481 v -2.544 a 6.619,6.619 0 0 1 -6.144,3.169 8.64,8.64 0 0 1 -6.145,-2.4 c -1.584,-1.584 -2.208,-3.553 -2.208,-6.865 v -14.545 h 6.817 v 13.056 c 0,2.257 0.1,2.833 0.72,3.649 a 3.594,3.594 0 0 0 2.976,1.344 3.5,3.5 0 0 0 2.928,-1.344 c 0.625,-0.816 0.721,-1.344 0.721,-3.649 v -13.056 h 6.816 z"
         id="path1208"
         inkscape:connector-curvature="0"
         style="fill:#f9f7ea" />
      <path
         d="m 653.43,1676.41 -0.193,2.736 c 1.968,-2.448 3.649,-3.36 6.529,-3.36 6.1,0 10.224,4.9 10.224,12.145 0,7.393 -4.08,12.289 -10.176,12.289 a 8.365,8.365 0 0 1 -6.241,-2.5 v 9.217 h -6.816 v -30.531 z m -0.1,11.568 c 0,4.129 1.921,6.721 4.993,6.721 2.976,0 4.944,-2.592 4.944,-6.624 0,-4.177 -1.872,-6.769 -4.993,-6.769 -3.02,0 -4.941,2.592 -4.941,6.672 z"
         id="path1210"
         inkscape:connector-curvature="0"
         style="fill:#f9f7ea" />
      <path
         d="m 680.549,1689.995 c 0.431,3.169 2.305,4.9 5.232,4.9 a 4.346,4.346 0 0 0 4.032,-2.063 h 6.914 c -1.3,4.511 -5.618,7.392 -11.137,7.392 -7.153,0 -11.906,-4.9 -11.906,-12.193 0,-7.249 4.849,-12.241 11.857,-12.241 a 10.468,10.468 0 0 1 10.321,6.816 18.811,18.811 0 0 1 1.152,7.393 z m 9.457,-4.8 c -0.288,-2.737 -1.873,-4.225 -4.513,-4.225 -2.64,0 -4.368,1.488 -4.9,4.225 z"
         id="path1212"
         inkscape:connector-curvature="0"
         style="fill:#f9f7ea" />
      <path
         d="m 708.58,1676.41 -0.191,4.129 c 1.343,-3.745 3.072,-4.8 8.016,-4.753 v 6.432 a 12.08,12.08 0 0 0 -1.727,-0.095 5.255,5.255 0 0 0 -5.041,2.783 c -0.672,1.537 -0.912,3.7 -0.912,8.161 v 6.528 h -6.817 v -23.185 z"
         id="path1214"
         inkscape:connector-curvature="0"
         style="fill:#f9f7ea" />
      <path
         d="m 726.867,1699.595 -8.3,-23.185 h 7.153 l 2.592,8.88 c 0.48,1.632 1.055,3.84 1.824,6.672 0.528,-2.591 1.1,-5.279 1.44,-6.672 l 2.352,-8.88 h 7.3 l -7.873,23.185 z"
         id="path1216"
         inkscape:connector-curvature="0"
         style="fill:#f9f7ea" />
      <path
         d="m 751.4,1673.193 h -6.817 v -5.615 h 6.817 z m 0,26.4 h -6.817 v -23.185 h 6.817 z"
         id="path1218"
         inkscape:connector-curvature="0"
         style="fill:#f9f7ea" />
      <path
         d="m 770.02,1683.371 c -0.289,-1.729 -1.68,-2.641 -3.937,-2.641 -1.968,0 -3.265,0.768 -3.265,1.92 0,0.864 0.672,1.3 2.832,1.776 l 4.274,0.912 c 2.832,0.576 4.271,1.2 5.28,2.257 a 6.456,6.456 0 0 1 1.728,4.656 c 0,4.9 -3.985,7.969 -10.416,7.969 -6.431,0 -10.418,-3.025 -10.8,-8.161 h 6.384 c 0.383,2.208 1.824,3.216 4.56,3.216 2.16,0 3.552,-0.863 3.552,-2.256 0,-1.1 -0.768,-1.68 -2.592,-2.112 l -4.224,-0.96 c -5.088,-1.1 -7.057,-2.977 -7.057,-6.672 0,-4.657 3.7,-7.489 9.889,-7.489 5.953,0 9.552,2.688 10.177,7.585 z"
         id="path1220"
         inkscape:connector-curvature="0"
         style="fill:#f9f7ea" />
      <a
         xlink:href="../../Future_Years_Supervision_Report.html"
         xlink:title="Future Years of Supervision Report"
         target="_top"
         id="a5234">
        <path
           id="path1222"
           transform="translate(-45.5,-65.315)"
           d="m 833.854,1738.508 h -6.816 v -5.615 h 6.816 z m 0,26.4 h -6.816 v -23.185 h 6.816 z"
           inkscape:connector-curvature="0"
           style="fill:#f9f7ea" />
      </a>
      <path
         d="m 817.828,1688.171 c 0,7.008 -5.183,12.049 -12.337,12.049 -7.2,0 -12.289,-5.041 -12.289,-12.242 0,-7.152 5.089,-12.192 12.289,-12.192 7.345,0 12.337,4.992 12.337,12.385 z m -17.762,-0.193 c 0,4.369 1.969,6.817 5.473,6.817 3.408,0 5.425,-2.448 5.425,-6.672 0,-4.465 -1.921,-6.913 -5.473,-6.913 -3.456,0 -5.425,2.448 -5.425,6.768 z"
         id="path1224"
         inkscape:connector-curvature="0"
         style="fill:#f9f7ea" />
      <path
         d="m 829.3,1676.41 v 2.255 c 2.5,-2.3 3.936,-2.927 6.337,-2.927 5.04,0 8.112,3.36 8.112,8.832 v 15.025 h -6.816 v -12.625 c 0,-2.351 -0.144,-3.264 -0.72,-4.128 a 3.227,3.227 0 0 0 -2.784,-1.344 3.844,3.844 0 0 0 -2.929,1.248 c -0.768,0.865 -1.008,1.824 -1.008,3.84 v 13.009 h -6.816 v -23.185 z"
         id="path1226"
         inkscape:connector-curvature="0"
         style="fill:#f9f7ea" />
      <a
         xlink:href="../../Future_Years_Supervision_Report.html"
         xlink:title="Future Years of Supervision Report"
         target="_top"
         id="a5231">
        <path
           id="path1228"
           stroke-miterlimit="10"
           transform="translate(-45.5,-65.315)"
           d="m 774.635,1639.513 a 4.154,4.154 0 0 1 -4.47,6.722 5.465,5.465 0 0 0 4.47,-6.722 z m -33.641,6.722 a 4.154,4.154 0 0 0 4.471,-6.723 5.463,5.463 0 0 1 -4.471,6.723 z m 26.154,-28.252 a 4.15,4.15 0 0 0 -7.865,2.646 c 2.317,-0.823 4.888,-2.298 7.865,-2.646 z m 14.852,24.35 a 10.417,10.417 0 0 1 -10.417,10.417 c -8.414,0 -8.658,-8.59 -14.583,-8.59 -5.925,0 -6.169,8.59 -14.583,8.59 A 10.417,10.417 0 0 1 732,1642.333 c 0,-4.448 3.2,-9.514 8.21,-18.377 3.975,-7.025 9.9,-2.625 14.2,-1.218 a 8.34,8.34 0 0 0 5.179,0 c 4.3,-1.4 10.225,-5.807 14.2,1.218 5.011,8.863 8.211,13.929 8.211,18.377 z m -33.333,0 a 6.25,6.25 0 1 0 -6.25,6.25 6.258,6.258 0 0 0 6.25,-6.25 z m 10.416,-4.166 a 2.083,2.083 0 1 0 -2.083,2.083 2.083,2.083 0 0 0 2.083,-2.083 z m 18.75,4.166 a 6.25,6.25 0 1 0 -6.25,6.25 6.257,6.257 0 0 0 6.25,-6.25 z M 750.75,1615.25 a 4.16,4.16 0 0 0 -3.9,2.733 c 2.977,0.35 5.55,1.823 7.865,2.646 a 4.143,4.143 0 0 0 -3.965,-5.379 z"
           inkscape:connector-curvature="0"
           style="fill:#f9f7ea;stroke:#f9f7ea;stroke-miterlimit:10" />
      </a>
    </g>
  </a>
  <a
     xlink:href="../../Future_Years_Incarceration_Report.html"
     id="a3997"
     target="_top"
     xlink:title="Future Years Incarceration Report">
    <g
       id="g3995">
      <rect
         x="19.979"
         y="1525.1851"
         width="373.94101"
         height="196"
         rx="9"
         id="rect1230"
         style="fill:#4d7dbf" />
      <rect
         x="19.979"
         y="1525.1851"
         width="373.94101"
         height="196"
         rx="9"
         stroke-miterlimit="10"
         id="rect1232"
         style="fill:none;stroke:#192833;stroke-width:15;stroke-miterlimit:10" />
      <path
         d="M 111.648,1681.437 H 95.327 v 7.152 h 14.305 v 5.9 H 95.327 v 12.817 h -7.2 v -32.019 h 23.522 z"
         transform="translate(-45.5,-65.315)"
         id="path1234"
         inkscape:connector-curvature="0"
         style="fill:#f9f7ea" />
      <path
         d="m 135.744,1707.311 h -6.48 v -2.545 a 6.622,6.622 0 0 1 -6.145,3.169 8.633,8.633 0 0 1 -6.144,-2.4 c -1.584,-1.584 -2.208,-3.552 -2.208,-6.864 v -14.545 h 6.816 v 13.057 c 0,2.256 0.1,2.832 0.72,3.648 a 3.6,3.6 0 0 0 2.976,1.344 3.5,3.5 0 0 0 2.929,-1.344 c 0.624,-0.816 0.72,-1.344 0.72,-3.648 v -13.057 h 6.816 z"
         transform="translate(-45.5,-65.315)"
         id="path1236"
         inkscape:connector-curvature="0"
         style="fill:#f9f7ea" />
      <path
         d="m 153.551,1689.213 h -4.176 v 9.025 c 0,3.649 0.144,3.936 1.728,3.936 h 2.448 v 5.137 h -4.176 c -2.977,0 -4.465,-0.432 -5.473,-1.537 -1.056,-1.152 -1.344,-2.4 -1.344,-6 v -10.56 h -3.265 v -4.8 h 3.265 v -7.344 h 6.817 v 7.344 h 4.176 z"
         transform="translate(-45.5,-65.315)"
         id="path1238"
         inkscape:connector-curvature="0"
         style="fill:#f9f7ea" />
      <path
         d="m 178.751,1707.311 h -6.48 v -2.545 a 6.622,6.622 0 0 1 -6.145,3.169 8.637,8.637 0 0 1 -6.145,-2.4 c -1.584,-1.584 -2.208,-3.552 -2.208,-6.864 v -14.545 h 6.817 v 13.057 c 0,2.256 0.1,2.832 0.72,3.648 a 3.6,3.6 0 0 0 2.976,1.344 3.5,3.5 0 0 0 2.928,-1.344 c 0.624,-0.816 0.721,-1.344 0.721,-3.648 v -13.057 h 6.816 z"
         transform="translate(-45.5,-65.315)"
         id="path1240"
         inkscape:connector-curvature="0"
         style="fill:#f9f7ea" />
      <path
         d="m 191.469,1684.125 -0.192,4.128 c 1.345,-3.744 3.073,-4.8 8.017,-4.753 v 6.434 a 11.853,11.853 0 0 0 -1.728,-0.1 5.258,5.258 0 0 0 -5.041,2.784 c -0.671,1.536 -0.912,3.7 -0.912,8.161 v 6.529 H 184.8 v -23.186 z"
         transform="translate(-45.5,-65.315)"
         id="path1242"
         inkscape:connector-curvature="0"
         style="fill:#f9f7ea" />
      <path
         d="m 208.7,1697.71 c 0.432,3.168 2.3,4.895 5.232,4.895 a 4.344,4.344 0 0 0 4.032,-2.063 h 6.913 c -1.3,4.513 -5.616,7.393 -11.137,7.393 -7.153,0 -11.9,-4.9 -11.9,-12.193 0,-7.249 4.849,-12.242 11.857,-12.242 a 10.47,10.47 0 0 1 10.321,6.816 18.816,18.816 0 0 1 1.152,7.394 z m 9.456,-4.8 c -0.287,-2.736 -1.872,-4.223 -4.512,-4.223 -2.64,0 -4.368,1.487 -4.9,4.223 z"
         id="path1244"
         transform="translate(-45.5,-65.315)"
         inkscape:connector-curvature="0"
         style="fill:#f9f7ea" />
      <path
         d="m 258.622,1707.311 h -7.2 v -12.049 l -10.609,-19.97 h 8.017 l 6.1,13.3 6.481,-13.3 h 7.872 l -10.656,19.97 z"
         transform="translate(-45.5,-65.315)"
         id="path1246"
         inkscape:connector-curvature="0"
         style="fill:#f9f7ea" />
      <path
         d="m 274.845,1697.71 c 0.432,3.168 2.3,4.895 5.233,4.895 a 4.344,4.344 0 0 0 4.032,-2.063 h 6.912 c -1.3,4.513 -5.616,7.393 -11.136,7.393 -7.153,0 -11.906,-4.9 -11.906,-12.193 0,-7.249 4.849,-12.242 11.857,-12.242 a 10.471,10.471 0 0 1 10.322,6.816 18.816,18.816 0 0 1 1.152,7.394 z m 9.457,-4.8 c -0.288,-2.736 -1.872,-4.223 -4.512,-4.223 -2.64,0 -4.369,1.487 -4.9,4.223 z"
         transform="translate(-45.5,-65.315)"
         id="path1248"
         inkscape:connector-curvature="0"
         style="fill:#f9f7ea" />
      <a
         xlink:href="../../Future_Years_Incarceration_Report.html"
         xlink:title="Future Years Incarceration Report"
         id="a5219">
        <path
           id="path1250"
           transform="translate(-45.5,-65.315)"
           d="m 296.061,1691.422 c 0.432,-5.329 3.744,-7.922 10.272,-7.922 3.5,0 6.193,0.816 8.017,2.4 1.68,1.489 2.3,3.361 2.3,6.77 v 10.656 c 0,2.5 0.1,2.832 0.865,3.985 h -6.961 c -0.288,-0.817 -0.288,-0.96 -0.528,-1.825 a 9.008,9.008 0 0 1 -6.625,2.449 c -5.136,0 -8.545,-2.88 -8.545,-7.249 0,-4.369 2.737,-6.624 9.217,-7.68 l 3.7,-0.625 c 1.537,-0.24 2.065,-0.623 2.065,-1.584 0,-1.3 -1.344,-2.111 -3.552,-2.111 -2.5,0 -3.841,0.863 -4.129,2.736 z m 13.969,4.848 a 13.413,13.413 0 0 1 -2.5,0.72 l -2.449,0.528 c -2.448,0.576 -3.5,1.392 -3.5,2.784 0,1.536 1.3,2.448 3.456,2.448 a 5.325,5.325 0 0 0 4.993,-2.928 z"
           inkscape:connector-curvature="0"
           style="fill:#f9f7ea" />
      </a>
      <path
         d="m 329.373,1684.125 -0.192,4.128 c 1.344,-3.744 3.072,-4.8 8.016,-4.753 v 6.434 a 11.853,11.853 0 0 0 -1.728,-0.1 5.256,5.256 0 0 0 -5.04,2.784 c -0.672,1.536 -0.912,3.7 -0.912,8.161 v 6.529 H 322.7 v -23.186 z"
         transform="translate(-45.5,-65.315)"
         id="path1252"
         inkscape:connector-curvature="0"
         style="fill:#f9f7ea" />
      <a
         xlink:href="../../Future_Years_Incarceration_Report.html"
         xlink:title="Future Years of Incarceration Report"
         target="_top"
         id="a5228">
        <path
           id="path1254"
           transform="translate(-45.5,-65.315)"
           d="m 354,1691.085 c -0.288,-1.728 -1.681,-2.64 -3.936,-2.64 -1.968,0 -3.265,0.768 -3.265,1.92 0,0.864 0.673,1.3 2.833,1.776 l 4.272,0.912 c 2.832,0.576 4.273,1.2 5.281,2.257 a 6.464,6.464 0 0 1 1.727,4.656 c 0,4.9 -3.984,7.969 -10.416,7.969 -6.432,0 -10.417,-3.025 -10.8,-8.162 h 6.384 c 0.384,2.209 1.824,3.217 4.561,3.217 2.16,0 3.552,-0.864 3.552,-2.256 0,-1.1 -0.768,-1.68 -2.592,-2.113 l -4.225,-0.959 c -5.088,-1.1 -7.056,-2.976 -7.056,-6.673 0,-4.657 3.7,-7.489 9.889,-7.489 5.952,0 9.553,2.688 10.177,7.585 z"
           inkscape:connector-curvature="0"
           style="fill:#f9f7ea" />
      </a>
      <path
         d="m 403.388,1695.886 c 0,7.009 -5.185,12.049 -12.337,12.049 -7.2,0 -12.289,-5.04 -12.289,-12.242 0,-7.152 5.089,-12.193 12.289,-12.193 7.349,0 12.337,4.993 12.337,12.386 z m -17.762,-0.193 c 0,4.37 1.969,6.817 5.473,6.817 3.408,0 5.424,-2.447 5.424,-6.672 0,-4.465 -1.919,-6.913 -5.472,-6.913 -3.451,0 -5.425,2.448 -5.425,6.768 z"
         transform="translate(-45.5,-65.315)"
         id="path1256"
         inkscape:connector-curvature="0"
         style="fill:#f9f7ea" />
      <path
         d="m 420.091,1689.213 h -4.416 v 18.1 h -6.817 v -18.1 h -3.216 v -4.8 h 3.216 v -1.68 c 0,-4.992 2.449,-7.44 7.489,-7.44 h 3.744 v 5.425 h -2.016 c -1.584,0 -2.4,0.72 -2.4,2.063 v 1.632 h 4.416 z"
         transform="translate(-45.5,-65.315)"
         id="path1258"
         inkscape:connector-curvature="0"
         style="fill:#f9f7ea" />
      <path
         d="m 115.991,1764.91 h -7.2 v -32.017 h 7.2 z"
         transform="translate(-45.5,-65.315)"
         id="path1260"
         inkscape:connector-curvature="0"
         style="fill:#f9f7ea" />
      <path
         d="m 129,1741.725 v 2.255 c 2.5,-2.3 3.936,-2.927 6.336,-2.927 5.041,0 8.113,3.36 8.113,8.832 v 15.025 h -6.816 v -12.625 c 0,-2.351 -0.144,-3.264 -0.72,-4.128 a 3.23,3.23 0 0 0 -2.785,-1.344 3.842,3.842 0 0 0 -2.928,1.248 c -0.768,0.865 -1.008,1.824 -1.008,3.84 v 13.009 h -6.816 v -23.185 z"
         transform="translate(-45.5,-65.315)"
         id="path1262"
         inkscape:connector-curvature="0"
         style="fill:#f9f7ea" />
      <path
         d="m 164.183,1750.077 a 3.944,3.944 0 0 0 -4.225,-3.456 c -3.12,0 -4.8,2.352 -4.8,6.576 0,4.465 1.68,6.817 4.848,6.817 2.448,0 3.792,-1.248 4.321,-3.985 l 6.624,0.336 c -0.96,5.858 -4.993,9.17 -11.137,9.17 -7.057,0 -11.521,-4.705 -11.521,-12.145 0,-7.681 4.416,-12.289 11.761,-12.289 6.049,0 10.177,3.456 10.609,8.976 z"
         transform="translate(-45.5,-65.315)"
         id="path1264"
         inkscape:connector-curvature="0"
         style="fill:#f9f7ea" />
      <path
         d="m 175.413,1749.021 c 0.432,-5.328 3.744,-7.92 10.273,-7.92 3.5,0 6.192,0.815 8.016,2.4 1.68,1.487 2.3,3.36 2.3,6.769 v 10.656 c 0,2.5 0.1,2.833 0.865,3.984 h -6.957 c -0.288,-0.815 -0.288,-0.959 -0.528,-1.824 a 9,9 0 0 1 -6.625,2.449 c -5.136,0 -8.545,-2.881 -8.545,-7.249 0,-4.368 2.737,-6.624 9.217,-7.681 l 3.7,-0.624 c 1.537,-0.24 2.065,-0.624 2.065,-1.584 0,-1.295 -1.344,-2.112 -3.552,-2.112 -2.5,0 -3.841,0.863 -4.129,2.736 z m 13.969,4.848 a 13.327,13.327 0 0 1 -2.5,0.721 l -2.448,0.527 c -2.449,0.576 -3.5,1.393 -3.5,2.785 0,1.536 1.3,2.448 3.456,2.448 a 5.322,5.322 0 0 0 4.993,-2.928 z"
         transform="translate(-45.5,-65.315)"
         id="path1266"
         inkscape:connector-curvature="0"
         style="fill:#f9f7ea" />
      <path
         d="m 208.725,1741.725 -0.192,4.129 c 1.344,-3.745 3.072,-4.8 8.017,-4.753 v 6.432 a 12.1,12.1 0 0 0 -1.728,-0.095 5.257,5.257 0 0 0 -5.041,2.783 c -0.672,1.537 -0.912,3.7 -0.912,8.161 v 6.528 h -6.816 v -23.185 z"
         transform="translate(-45.5,-65.315)"
         id="path1268"
         inkscape:connector-curvature="0"
         style="fill:#f9f7ea" />
      <path
         d="m 235.03,1750.077 a 3.944,3.944 0 0 0 -4.225,-3.456 c -3.12,0 -4.8,2.352 -4.8,6.576 0,4.465 1.68,6.817 4.848,6.817 2.448,0 3.793,-1.248 4.321,-3.985 l 6.624,0.336 c -0.96,5.858 -4.992,9.17 -11.137,9.17 -7.057,0 -11.521,-4.705 -11.521,-12.145 0,-7.681 4.417,-12.289 11.761,-12.289 6.049,0 10.177,3.456 10.609,8.976 z"
         transform="translate(-45.5,-65.315)"
         id="path1270"
         inkscape:connector-curvature="0"
         style="fill:#f9f7ea" />
      <path
         d="m 251.876,1755.31 c 0.432,3.169 2.3,4.9 5.232,4.9 a 4.347,4.347 0 0 0 4.033,-2.063 h 6.912 c -1.3,4.511 -5.616,7.392 -11.136,7.392 -7.153,0 -11.906,-4.9 -11.906,-12.193 0,-7.249 4.849,-12.241 11.857,-12.241 a 10.468,10.468 0 0 1 10.321,6.816 18.811,18.811 0 0 1 1.152,7.393 z m 9.457,-4.8 c -0.288,-2.737 -1.873,-4.225 -4.513,-4.225 -2.64,0 -4.368,1.488 -4.9,4.225 z"
         transform="translate(-45.5,-65.315)"
         id="path1272"
         inkscape:connector-curvature="0"
         style="fill:#f9f7ea" />
      <path
         d="m 279.908,1741.725 -0.192,4.129 c 1.344,-3.745 3.072,-4.8 8.016,-4.753 v 6.432 a 12.086,12.086 0 0 0 -1.728,-0.095 5.256,5.256 0 0 0 -5.04,2.783 c -0.672,1.537 -0.912,3.7 -0.912,8.161 v 6.528 h -6.817 v -23.185 z"
         transform="translate(-45.5,-65.315)"
         id="path1274"
         inkscape:connector-curvature="0"
         style="fill:#f9f7ea" />
      <path
         d="m 291.379,1749.021 c 0.433,-5.328 3.745,-7.92 10.273,-7.92 3.5,0 6.193,0.815 8.017,2.4 1.68,1.487 2.3,3.36 2.3,6.769 v 10.656 c 0,2.5 0.1,2.833 0.864,3.984 h -6.961 c -0.287,-0.815 -0.287,-0.959 -0.527,-1.824 a 9.005,9.005 0 0 1 -6.625,2.449 c -5.137,0 -8.545,-2.881 -8.545,-7.249 0,-4.368 2.737,-6.624 9.217,-7.681 l 3.7,-0.624 c 1.536,-0.24 2.065,-0.624 2.065,-1.584 0,-1.295 -1.344,-2.112 -3.553,-2.112 -2.5,0 -3.84,0.863 -4.128,2.736 z m 13.97,4.848 a 13.373,13.373 0 0 1 -2.5,0.721 l -2.449,0.527 c -2.448,0.576 -3.5,1.393 -3.5,2.785 0,1.536 1.3,2.448 3.456,2.448 a 5.323,5.323 0 0 0 4.993,-2.928 z"
         transform="translate(-45.5,-65.315)"
         id="path1276"
         inkscape:connector-curvature="0"
         style="fill:#f9f7ea" />
      <path
         d="m 329.828,1746.813 h -4.176 v 9.025 c 0,3.648 0.144,3.936 1.728,3.936 h 2.448 v 5.136 h -4.176 c -2.976,0 -4.464,-0.431 -5.473,-1.535 -1.055,-1.152 -1.344,-2.4 -1.344,-6 v -10.561 h -3.264 v -4.8 h 3.264 v -7.345 h 6.817 v 7.345 h 4.176 z"
         transform="translate(-45.5,-65.315)"
         id="path1278"
         inkscape:connector-curvature="0"
         style="fill:#f9f7ea" />
      <path
         d="m 341.251,1738.508 h -6.816 v -5.615 h 6.816 z m 0,26.4 h -6.816 v -23.185 h 6.816 z"
         transform="translate(-45.5,-65.315)"
         id="path1280"
         inkscape:connector-curvature="0"
         style="fill:#f9f7ea" />
      <path
         d="m 370.725,1753.486 c 0,7.008 -5.185,12.049 -12.337,12.049 -7.2,0 -12.29,-5.041 -12.29,-12.242 0,-7.152 5.089,-12.192 12.29,-12.192 7.344,0 12.337,4.992 12.337,12.385 z m -17.762,-0.193 c 0,4.369 1.968,6.817 5.473,6.817 3.408,0 5.423,-2.448 5.423,-6.672 0,-4.465 -1.92,-6.913 -5.471,-6.913 -3.457,0 -5.425,2.448 -5.425,6.768 z"
         transform="translate(-45.5,-65.315)"
         id="path1282"
         inkscape:connector-curvature="0"
         style="fill:#f9f7ea" />
      <path
         d="m 382.194,1741.725 v 2.255 c 2.5,-2.3 3.937,-2.927 6.337,-2.927 5.04,0 8.113,3.36 8.113,8.832 v 15.025 h -6.817 v -12.625 c 0,-2.351 -0.143,-3.264 -0.72,-4.128 a 3.227,3.227 0 0 0 -2.784,-1.344 3.842,3.842 0 0 0 -2.928,1.248 c -0.768,0.865 -1.008,1.824 -1.008,3.84 v 13.009 h -6.817 v -23.185 z"
         transform="translate(-45.5,-65.315)"
         id="path1284"
         inkscape:connector-curvature="0"
         style="fill:#f9f7ea" />
      <rect
         x="183.5"
         y="1545.1851"
         width="33.5"
         height="47"
         stroke-miterlimit="10"
         id="rect1286"
         style="fill:none;stroke:#f9f7ea;stroke-width:2;stroke-miterlimit:10" />
      <rect
         x="203.5"
         y="1563.6851"
         width="13"
         height="11"
         stroke-miterlimit="10"
         id="rect1288"
         style="fill:none;stroke:#f9f7ea;stroke-width:2;stroke-miterlimit:10" />
      <line
         x1="203.5"
         y1="1563.6851"
         x2="183.5"
         y2="1563.6851"
         stroke-miterlimit="10"
         id="line1290"
         style="fill:none;stroke:#f9f7ea;stroke-width:2;stroke-miterlimit:10" />
      <line
         x1="202.5"
         y1="1574.6851"
         x2="183.5"
         y2="1574.6851"
         stroke-miterlimit="10"
         id="line1292"
         style="fill:none;stroke:#f9f7ea;stroke-width:2;stroke-miterlimit:10" />
      <line
         x1="190.5"
         y1="1544.6851"
         x2="190.5"
         y2="1591.6851"
         stroke-miterlimit="10"
         id="line1294"
         style="fill:none;stroke:#f9f7ea;stroke-width:2;stroke-miterlimit:10" />
      <line
         x1="197.5"
         y1="1544.6851"
         x2="197.5"
         y2="1591.6851"
         stroke-miterlimit="10"
         id="line1296"
         style="fill:none;stroke:#f9f7ea;stroke-width:2;stroke-miterlimit:10" />
      <line
         x1="203.5"
         y1="1544.6851"
         x2="203.5"
         y2="1563.6851"
         stroke-miterlimit="10"
         id="line1298"
         style="fill:none;stroke:#f9f7ea;stroke-width:2;stroke-miterlimit:10" />
      <line
         x1="203.5"
         y1="1574.6851"
         x2="203.5"
         y2="1591.6851"
         stroke-miterlimit="10"
         id="line1300"
         style="fill:none;stroke:#f9f7ea;stroke-width:2;stroke-miterlimit:10" />
      <circle
         cx="212.5"
         cy="1567.6851"
         r="1"
         stroke-miterlimit="10"
         id="circle1302"
         style="fill:none;stroke:#f9f7ea;stroke-width:2;stroke-miterlimit:10" />
      <line
         x1="210.5"
         y1="1545.6851"
         x2="210.5"
         y2="1564.6851"
         stroke-miterlimit="10"
         id="line1304"
         style="fill:none;stroke:#f9f7ea;stroke-width:2;stroke-miterlimit:10" />
      <line
         x1="210.5"
         y1="1575.6851"
         x2="210.5"
         y2="1592.6851"
         stroke-miterlimit="10"
         id="line1306"
         style="fill:none;stroke:#f9f7ea;stroke-width:2;stroke-miterlimit:10" />
    </g>
  </a>
  <a
     xlink:href="../../Incidents_Report.html"
     id="a4184"
     target="_top"
     xlink:title="Incident Report">
    <g
       id="g4182">
      <circle
         cx="466.5"
         cy="304.685"
         r="127.5"
         stroke-miterlimit="10"
         id="circle1308"
         style="fill:#f15a22;stroke:#192833;stroke-width:15;stroke-miterlimit:10" />
      <path
         d="m 433.667,402.311 h -7.2 v -32.019 h 7.2 z"
         transform="translate(-45.5,-65.315)"
         id="path1310"
         inkscape:connector-curvature="0"
         style="fill:#f9f7ea" />
      <path
         d="m 446.674,379.125 v 2.256 c 2.5,-2.3 3.936,-2.928 6.337,-2.928 5.04,0 8.113,3.36 8.113,8.832 v 15.026 h -6.817 v -12.625 c 0,-2.353 -0.144,-3.265 -0.72,-4.129 a 3.227,3.227 0 0 0 -2.784,-1.344 3.839,3.839 0 0 0 -2.928,1.248 c -0.769,0.864 -1.009,1.824 -1.009,3.84 v 13.01 h -6.816 v -23.186 z"
         transform="translate(-45.5,-65.315)"
         id="path1312"
         inkscape:connector-curvature="0"
         style="fill:#f9f7ea" />
      <path
         d="m 481.859,387.477 a 3.944,3.944 0 0 0 -4.225,-3.456 c -3.12,0 -4.8,2.352 -4.8,6.577 0,4.464 1.68,6.816 4.848,6.816 2.448,0 3.793,-1.248 4.321,-3.984 l 6.624,0.336 c -0.96,5.856 -4.992,9.169 -11.137,9.169 -7.056,0 -11.521,-4.7 -11.521,-12.145 0,-7.681 4.417,-12.29 11.761,-12.29 6.049,0 10.177,3.457 10.609,8.977 z"
         transform="translate(-45.5,-65.315)"
         id="path1314"
         inkscape:connector-curvature="0"
         style="fill:#f9f7ea" />
      <path
         d="m 499.666,375.908 h -6.816 v -5.616 h 6.816 z m 0,26.4 h -6.816 v -23.183 h 6.816 z"
         transform="translate(-45.5,-65.315)"
         id="path1316"
         inkscape:connector-curvature="0"
         style="fill:#f9f7ea" />
      <a
         id="a242">
        <path
           id="path1318"
           transform="translate(-45.5,-65.315)"
           d="m 527.6,402.311 h -6.529 v -2.5 a 7.174,7.174 0 0 1 -6.385,3.121 c -6.1,0 -10.177,-4.849 -10.177,-12.193 0,-7.393 4.129,-12.289 10.369,-12.289 a 7.546,7.546 0 0 1 5.905,2.4 v -10.558 h 6.817 z m -16.37,-11.618 c 0,4.081 1.92,6.721 4.9,6.721 2.929,0 4.9,-2.688 4.9,-6.624 0,-4.129 -1.921,-6.817 -4.9,-6.817 -2.979,0 -4.896,2.64 -4.896,6.72 z"
           inkscape:connector-curvature="0"
           style="fill:#f9f7ea" />
      </a>
      <path
         d="m 539.313,392.71 c 0.432,3.168 2.3,4.9 5.232,4.9 a 4.346,4.346 0 0 0 4.033,-2.064 h 6.912 c -1.3,4.512 -5.616,7.393 -11.136,7.393 -7.153,0 -11.906,-4.9 -11.906,-12.193 0,-7.249 4.849,-12.242 11.857,-12.242 a 10.471,10.471 0 0 1 10.322,6.817 18.828,18.828 0 0 1 1.151,7.393 z m 9.457,-4.8 c -0.288,-2.736 -1.873,-4.224 -4.513,-4.224 -2.64,0 -4.368,1.488 -4.9,4.224 z"
         transform="translate(-45.5,-65.315)"
         id="path1320"
         inkscape:connector-curvature="0"
         style="fill:#f9f7ea" />
      <a
         xlink:href="../../Incident_Report.html"
         xlink:title="Incident Report"
         target="_top"
         id="a5246">
        <path
           id="path1322"
           transform="translate(-45.5,-65.315)"
           d="m 567.3,379.125 v 2.256 c 2.5,-2.3 3.935,-2.928 6.336,-2.928 5.041,0 8.113,3.36 8.113,8.832 v 15.026 h -6.819 v -12.625 c 0,-2.353 -0.145,-3.265 -0.721,-4.129 a 3.227,3.227 0 0 0 -2.783,-1.344 3.842,3.842 0 0 0 -2.929,1.248 c -0.768,0.864 -1.009,1.824 -1.009,3.84 v 13.01 h -6.816 v -23.186 z"
           inkscape:connector-curvature="0"
           style="fill:#f9f7ea" />
      </a>
      <path
         d="m 599.505,384.213 h -4.177 v 9.025 c 0,3.648 0.145,3.936 1.729,3.936 h 2.448 v 5.137 h -4.177 c -2.975,0 -4.464,-0.433 -5.473,-1.537 -1.054,-1.152 -1.343,-2.4 -1.343,-6 v -10.561 h -3.264 v -4.8 h 3.264 v -7.345 h 6.816 v 7.345 h 4.177 z"
         transform="translate(-45.5,-65.315)"
         id="path1324"
         inkscape:connector-curvature="0"
         style="fill:#f9f7ea" />
      <path
         d="M 512,288.167 A 20.833,20.833 0 1 1 491.167,309 20.857,20.857 0 0 1 512,288.167 Z M 512,284 a 25,25 0 1 0 25,25 25,25 0 0 0 -25,-25 z m -2.729,15.679 a 2.832,2.832 0 0 1 2.808,-3.179 2.689,2.689 0 0 1 2.667,3.023 l -1.577,12.61 a 1.179,1.179 0 0 1 -2.34,0 z M 512,322.021 a 2.6,2.6 0 1 1 2.6,-2.6 2.605,2.605 0 0 1 -2.6,2.6 z"
         transform="translate(-45.5,-65.315)"
         stroke-miterlimit="10"
         id="path1326"
         inkscape:connector-curvature="0"
         style="fill:#f9f7ea;stroke:#f9f7ea;stroke-width:2;stroke-miterlimit:10" />
    </g>
  </a>
  <a
     id="a1485">
    <rect
       id="rect1328"
       height="134.5"
       width="368"
       y="512.685"
       x="7.5"
       stroke-linejoin="round"
       stroke-width="15"
       stroke="#192833"
       fill="#f9f7ea" />
  </a>
  <path
     d="M113.882,632.707h-5.4V613.3h-7.271V608.7h19.942V613.3h-7.271Z"
     transform="translate(-45.5 -65.315)"
     fill="#192833"
     id="path1330" />
  <path
     d="M128.93,616.8a6.212,6.212,0,0,1,4.607-1.943A5.912,5.912,0,0,1,138,616.725c1.117,1.223,1.548,2.7,1.548,5.291v10.691h-5.111v-9.755c0-1.62-.144-2.268-.576-2.88a2.439,2.439,0,0,0-2.015-.9,3.188,3.188,0,0,0-2.232.864c-.576.612-.684,1.116-.684,2.916v9.755h-5.112V608.7h5.112Z"
     transform="translate(-45.5 -65.315)"
     fill="#192833"
     id="path1332" />
  <path
     d="M148.334,625.507c.324,2.376,1.728,3.672,3.923,3.672a3.259,3.259,0,0,0,3.024-1.548h5.183c-.971,3.384-4.211,5.543-8.351,5.543-5.363,0-8.926-3.671-8.926-9.142,0-5.436,3.635-9.179,8.891-9.179a7.847,7.847,0,0,1,7.738,5.111,14.1,14.1,0,0,1,.864,5.543Zm7.091-3.6a3.155,3.155,0,0,0-3.383-3.168,3.513,3.513,0,0,0-3.672,3.168Z"
     transform="translate(-45.5 -65.315)"
     fill="#192833"
     id="path1334" />
  <path
     d="M175.441,608.7h8.135c4.86,0,7.416.864,9.575,3.311a12.816,12.816,0,0,1,2.952,8.567,13.354,13.354,0,0,1-3.132,8.963c-2.088,2.232-4.751,3.168-9.215,3.168h-8.315Zm9.035,19.4c2.448,0,3.924-.684,4.932-2.34a9.714,9.714,0,0,0,1.188-5.075,9.58,9.58,0,0,0-1.152-4.967,4.771,4.771,0,0,0-4.608-2.412h-4V628.1Z"
     transform="translate(-45.5 -65.315)"
     fill="#192833"
     id="path1336" />
  <path
     d="M204.42,627.883l-1.511,4.824h-5.867l8.386-24.009h6.732l7.631,24.009h-6.12l-1.3-4.824Zm4.248-13.822-2.916,9.395h5.436Z"
     transform="translate(-45.5 -65.315)"
     fill="#192833"
     id="path1338" />
  <path
     d="M244.63,620.9c0,7.307-4.859,12.347-11.879,12.347-7.127,0-11.914-5.04-11.914-12.563a12.57,12.57,0,0,1,3.707-9.467,11.806,11.806,0,0,1,8.171-3.059C239.951,608.158,244.63,613.161,244.63,620.9Zm-18.142-.216c0,5,2.34,7.991,6.263,7.991,3.852,0,6.228-2.987,6.228-7.883,0-5.075-2.3-8.063-6.264-8.063C228.828,612.729,226.488,615.717,226.488,620.684Z"
     transform="translate(-45.5 -65.315)"
     fill="#192833"
     id="path1340" />
  <path
     d="M253.6,608.7v4.319a6.09,6.09,0,0,1-5.219,6.479V617.48a4.044,4.044,0,0,0,2.664-3.743h-2.484V608.7Z"
     transform="translate(-45.5 -65.315)"
     fill="#192833"
     id="path1342" />
  <path
     d="M267.383,620.54c-.216-1.3-1.26-1.979-2.952-1.979-1.475,0-2.448.575-2.448,1.439,0,.648.5.972,2.124,1.332l3.2.684c2.124.432,3.2.9,3.96,1.692a4.847,4.847,0,0,1,1.295,3.491c0,3.672-2.987,5.975-7.811,5.975s-7.811-2.267-8.1-6.119h4.788c.287,1.656,1.368,2.412,3.419,2.412,1.62,0,2.664-.648,2.664-1.692,0-.828-.576-1.26-1.944-1.584l-3.167-.719c-3.816-.828-5.292-2.232-5.292-5,0-3.491,2.772-5.615,7.416-5.615,4.463,0,7.163,2.016,7.63,5.687Z"
     transform="translate(-45.5 -65.315)"
     fill="#192833"
     id="path1344" />
  <path
     d="M289.847,632.707l-5.183-17.386h5.183l1.476,5.687c.4,1.548.936,4.176,1.152,5.616.5-2.592.936-4.608,1.188-5.616l1.475-5.687h4.428l1.548,5.687c.648,2.664.971,4.176,1.223,5.616.288-1.8.612-3.384,1.116-5.616l1.368-5.687h5.291l-4.931,17.386h-4.895l-1.62-6.083c-.5-2.088-.828-3.564-1.3-5.832-.5,2.412-.936,4.319-1.3,5.832l-1.44,6.083Z"
     transform="translate(-45.5 -65.315)"
     fill="#192833"
     id="path1346" />
  <path
     d="M329.985,624.14c0,5.255-3.887,9.034-9.251,9.034a9.161,9.161,0,1,1,0-18.321C326.242,614.853,329.985,618.6,329.985,624.14ZM316.667,624c0,3.275,1.476,5.111,4.1,5.111,2.555,0,4.067-1.836,4.067-5,0-3.348-1.44-5.184-4.1-5.184C318.143,618.92,316.667,620.756,316.667,624Z"
     transform="translate(-45.5 -65.315)"
     fill="#192833"
     id="path1348" />
  <path
     d="M338.626,615.321l-.144,3.1c1.008-2.808,2.3-3.6,6.012-3.564v4.823a8.982,8.982,0,0,0-1.3-.072,3.942,3.942,0,0,0-3.78,2.088c-.5,1.152-.684,2.771-.684,6.119v4.9h-5.111V615.321Z"
     transform="translate(-45.5 -65.315)"
     fill="#192833"
     id="path1350" />
  <path
     d="M364.617,632.707h-6.263l-4.32-7.415-1.656,1.619v5.8h-5.111V608.7h5.111v12.6l5.328-5.975h6.335l-6.623,6.623Z"
     transform="translate(-45.5 -65.315)"
     fill="#192833"
     id="path1352" />
  <path
     d="M80.368,651.9h5.111v7.847a7.432,7.432,0,0,1,4.788-1.692c4.427,0,7.415,3.6,7.415,8.927,0,5.471-3.2,9.395-7.667,9.395a5.219,5.219,0,0,1-4.752-2.448v1.98h-4.9Zm4.9,15.3c0,3.023,1.476,5.039,3.708,5.039s3.671-1.943,3.671-4.967c0-3.132-1.4-5.076-3.671-5.076C86.739,662.192,85.263,664.208,85.263,667.2Z"
     transform="translate(-45.5 -65.315)"
     fill="#192833"
     id="path1354" />
  <path
     d="M105.6,668.708c.324,2.375,1.728,3.671,3.923,3.671a3.26,3.26,0,0,0,3.024-1.547h5.183c-.971,3.383-4.211,5.543-8.351,5.543-5.363,0-8.926-3.672-8.926-9.143,0-5.436,3.635-9.179,8.891-9.179a7.848,7.848,0,0,1,7.738,5.112,14.093,14.093,0,0,1,.864,5.543Zm7.091-3.6a3.155,3.155,0,0,0-3.383-3.168,3.513,3.513,0,0,0-3.672,3.168Z"
     transform="translate(-45.5 -65.315)"
     fill="#192833"
     id="path1356" />
  <path
     d="M138.181,658.629v15.622c0,2.844-.4,4.1-1.619,5.291-1.584,1.548-3.96,2.34-6.948,2.34-4.859,0-7.775-1.98-8.135-5.543h5.292c.36,1.079,1.368,1.619,3.06,1.619a3.915,3.915,0,0,0,2.411-.684c.756-.611.972-1.259.972-3.023V673.1a6.105,6.105,0,0,1-4.679,1.872c-4.572,0-7.847-3.492-7.847-8.387s3.311-8.531,7.7-8.531a5.577,5.577,0,0,1,5.075,2.7l-.108-2.123Zm-12.634,7.883c0,2.555,1.548,4.32,3.851,4.32,2.376,0,3.852-1.692,3.852-4.392,0-2.556-1.548-4.248-3.852-4.248S125.547,663.92,125.547,666.512Z"
     transform="translate(-45.5 -65.315)"
     fill="#192833"
     id="path1358" />
  <path
     d="M147.794,656.109h-5.111V651.9h5.111Zm0,19.8h-5.111V658.521h5.111Z"
     transform="translate(-45.5 -65.315)"
     fill="#192833"
     id="path1360" />
  <path
     d="M157.262,658.521v1.692c1.872-1.728,2.952-2.2,4.752-2.2,3.779,0,6.083,2.52,6.083,6.623v11.267h-5.111V666.44c0-1.764-.108-2.448-.54-3.1a2.42,2.42,0,0,0-2.088-1.008,2.881,2.881,0,0,0-2.2.936c-.576.648-.756,1.368-.756,2.88v9.755h-5.111V658.521Z"
     transform="translate(-45.5 -65.315)"
     fill="#192833"
     id="path1362" />
  <path
     d="M182.065,663.74c-.215-1.3-1.259-1.979-2.951-1.979-1.476,0-2.448.575-2.448,1.439,0,.648.5.972,2.124,1.332l3.2.684c2.123.432,3.2.9,3.959,1.692a4.845,4.845,0,0,1,1.3,3.491c0,3.672-2.988,5.976-7.811,5.976s-7.811-2.268-8.1-6.12h4.787c.288,1.656,1.368,2.412,3.42,2.412,1.62,0,2.663-.648,2.663-1.691,0-.829-.575-1.261-1.943-1.584l-3.168-.72c-3.815-.828-5.291-2.232-5.291-5,0-3.491,2.772-5.615,7.415-5.615,4.464,0,7.163,2.016,7.631,5.687Z"
     transform="translate(-45.5 -65.315)"
     fill="#192833"
     id="path1364" />
  <path
     d="M201.542,663.992c.324-4,2.808-5.939,7.7-5.939a8.947,8.947,0,0,1,6.011,1.8c1.26,1.116,1.727,2.52,1.727,5.075v7.991c0,1.872.073,2.124.648,2.988h-5.219c-.216-.612-.216-.72-.4-1.368a6.751,6.751,0,0,1-4.967,1.836c-3.852,0-6.407-2.16-6.407-5.436s2.051-4.967,6.911-5.759l2.771-.468c1.152-.18,1.548-.468,1.548-1.188,0-.972-1.008-1.584-2.664-1.584-1.871,0-2.879.648-3.095,2.052Zm10.475,3.636a10,10,0,0,1-1.871.539l-1.836.4c-1.836.433-2.628,1.044-2.628,2.088,0,1.152.972,1.836,2.591,1.836a3.993,3.993,0,0,0,3.744-2.195Z"
     transform="translate(-45.5 -65.315)"
     fill="#192833"
     id="path1366" />
  <path
     d="M230.377,662.336h-3.131V669.1c0,2.735.108,2.951,1.3,2.951h1.835v3.852h-3.131c-2.232,0-3.348-.324-4.1-1.152-.792-.864-1.008-1.8-1.008-4.5v-7.919h-2.447v-3.6h2.447v-5.508h5.112v5.508h3.131Z"
     transform="translate(-45.5 -65.315)"
     fill="#192833"
     id="path1368" />
  <path
     d="M255.181,664.784a2.957,2.957,0,0,0-3.168-2.592c-2.34,0-3.6,1.764-3.6,4.932,0,3.347,1.259,5.111,3.635,5.111,1.836,0,2.844-.936,3.24-2.987l4.967.252c-.72,4.391-3.743,6.875-8.351,6.875-5.291,0-8.639-3.528-8.639-9.107,0-5.759,3.312-9.215,8.819-9.215,4.536,0,7.631,2.592,7.955,6.731Z"
     transform="translate(-45.5 -65.315)"
     fill="#192833"
     id="path1370" />
  <path
     d="M268.717,660a6.209,6.209,0,0,1,4.607-1.944,5.919,5.919,0,0,1,4.464,1.872c1.116,1.223,1.547,2.7,1.547,5.291v10.691h-5.111v-9.755c0-1.62-.144-2.268-.576-2.88a2.437,2.437,0,0,0-2.015-.9,3.189,3.189,0,0,0-2.232.863c-.576.612-.684,1.116-.684,2.916v9.755h-5.112V651.9h5.112Z"
     transform="translate(-45.5 -65.315)"
     fill="#192833"
     id="path1372" />
  <path
     d="M283.874,663.992c.323-4,2.807-5.939,7.7-5.939a8.947,8.947,0,0,1,6.011,1.8c1.26,1.116,1.727,2.52,1.727,5.075v7.991c0,1.872.073,2.124.648,2.988h-5.219c-.216-.612-.216-.72-.4-1.368a6.751,6.751,0,0,1-4.967,1.836c-3.852,0-6.407-2.16-6.407-5.436s2.051-4.967,6.911-5.759l2.771-.468c1.152-.18,1.548-.468,1.548-1.188,0-.972-1.008-1.584-2.663-1.584-1.872,0-2.88.648-3.1,2.052Zm10.474,3.636a10,10,0,0,1-1.871.539l-1.836.4c-1.836.433-2.628,1.044-2.628,2.088,0,1.152.972,1.836,2.591,1.836a3.992,3.992,0,0,0,3.744-2.195Z"
     transform="translate(-45.5 -65.315)"
     fill="#192833"
     id="path1374" />
  <path
     d="M308.857,658.521l-.144,3.1c1.008-2.808,2.3-3.6,6.011-3.564v4.823a8.982,8.982,0,0,0-1.3-.072,3.942,3.942,0,0,0-3.779,2.088c-.5,1.152-.684,2.772-.684,6.119v4.9h-5.111V658.521Z"
     transform="translate(-45.5 -65.315)"
     fill="#192833"
     id="path1376" />
  <path
     d="M334.271,658.629v15.622c0,2.844-.4,4.1-1.62,5.291-1.584,1.548-3.96,2.34-6.947,2.34-4.86,0-7.775-1.98-8.135-5.543h5.291c.36,1.079,1.368,1.619,3.06,1.619a3.916,3.916,0,0,0,2.412-.684c.755-.611.971-1.259.971-3.023V673.1a6.105,6.105,0,0,1-4.679,1.872c-4.572,0-7.847-3.492-7.847-8.387s3.311-8.531,7.7-8.531a5.576,5.576,0,0,1,5.075,2.7l-.108-2.123Zm-12.635,7.883c0,2.555,1.548,4.32,3.852,4.32,2.375,0,3.851-1.692,3.851-4.392,0-2.556-1.547-4.248-3.851-4.248S321.636,663.92,321.636,666.512Z"
     transform="translate(-45.5 -65.315)"
     fill="#192833"
     id="path1378" />
  <path
     d="M343.884,656.109h-5.112V651.9h5.112Zm0,19.8h-5.112V658.521h5.112Z"
     transform="translate(-45.5 -65.315)"
     fill="#192833"
     id="path1380" />
  <path
     d="M353.352,658.521v1.692c1.872-1.728,2.951-2.2,4.751-2.2,3.78,0,6.084,2.52,6.084,6.623v11.267h-5.112V666.44c0-1.764-.108-2.448-.54-3.1a2.42,2.42,0,0,0-2.088-1.008,2.883,2.883,0,0,0-2.2.936c-.575.648-.755,1.368-.755,2.88v9.755h-5.112V658.521Z"
     transform="translate(-45.5 -65.315)"
     fill="#192833"
     id="path1382" />
  <path
     d="M385.246,658.629v15.622c0,2.844-.4,4.1-1.62,5.291-1.584,1.548-3.959,2.34-6.947,2.34-4.859,0-7.775-1.98-8.135-5.543h5.292c.36,1.079,1.368,1.619,3.06,1.619a3.915,3.915,0,0,0,2.411-.684c.756-.611.972-1.259.972-3.023V673.1a6.107,6.107,0,0,1-4.679,1.872c-4.572,0-7.848-3.492-7.848-8.387s3.312-8.531,7.7-8.531a5.577,5.577,0,0,1,5.075,2.7l-.108-2.123Zm-12.634,7.883c0,2.555,1.548,4.32,3.851,4.32,2.376,0,3.852-1.692,3.852-4.392,0-2.556-1.548-4.248-3.852-4.248S372.612,663.92,372.612,666.512Z"
     transform="translate(-45.5 -65.315)"
     fill="#192833"
     id="path1384" />
  <polyline
     points="391.5 581.185 466.5 580.685 467 683.685"
     fill="none"
     stroke="#192833"
     stroke-miterlimit="10"
     stroke-width="15"
     stroke-dasharray="12"
     id="polyline1386" />
  <path
     d="M20.5,406.5"
     transform="translate(-45.5 -65.315)"
     fill="none"
     stroke="#192833"
     stroke-miterlimit="10"
     stroke-width="15"
     id="path1388" />
  <path
     d="M92.25,93.686v20.737h-10.8V66.4h10.8V84.469h17.641V66.4h10.8v48.028h-10.8V93.686Z"
     transform="translate(-45.5 -65.315)"
     fill="#192833"
     id="path1390" />
  <path
     d="M165.548,97.286c0,10.513-7.777,18.073-18.506,18.073-10.8,0-18.434-7.56-18.434-18.361,0-10.729,7.633-18.29,18.434-18.29C158.059,78.708,165.548,86.2,165.548,97.286ZM138.905,97c0,6.552,2.953,10.225,8.209,10.225,5.113,0,8.137-3.673,8.137-10.009,0-6.7-2.88-10.369-8.209-10.369C141.858,86.845,138.905,90.517,138.905,97Z"
     transform="translate(-45.5 -65.315)"
     fill="#192833"
     id="path1392" />
  <path
     d="M178.721,114.423,168.352,79.645h10.369l2.952,11.376c.792,3.1,1.872,8.353,2.305,11.233,1.008-5.184,1.872-9.216,2.376-11.233l2.952-11.376h8.857l3.1,11.376c1.3,5.329,1.944,8.353,2.449,11.233.575-3.6,1.224-6.768,2.231-11.233l2.737-11.376h10.585L209.4,114.423H199.6l-3.24-12.169c-1.009-4.176-1.656-7.129-2.592-11.665-1.009,4.825-1.873,8.641-2.593,11.665l-2.88,12.169Z"
     transform="translate(-45.5 -65.315)"
     fill="#192833"
     id="path1394" />
  <path
     d="M291.691,90.805c0,14.617-9.721,24.7-23.762,24.7-14.257,0-23.834-10.081-23.834-25.13,0-7.849,2.664-14.617,7.416-18.937a23.608,23.608,0,0,1,16.346-6.121C282.33,65.315,291.691,75.324,291.691,90.805ZM255.4,90.373c0,10.009,4.68,15.985,12.529,15.985,7.7,0,12.457-5.976,12.457-15.769,0-10.152-4.609-16.129-12.529-16.129C260.08,74.46,255.4,80.437,255.4,90.373Z"
     transform="translate(-45.5 -65.315)"
     fill="#192833"
     id="path1396" />
  <path
     d="M330.856,114.423h-9.72v-3.816c-2.448,3.456-4.969,4.752-9.217,4.752a12.95,12.95,0,0,1-9.217-3.6c-2.376-2.376-3.312-5.328-3.312-10.3V79.645h10.225V99.23c0,3.384.144,4.249,1.08,5.473a5.388,5.388,0,0,0,4.464,2.016,5.249,5.249,0,0,0,4.393-2.016c.936-1.224,1.08-2.016,1.08-5.473V79.645h10.224Z"
     transform="translate(-45.5 -65.315)"
     fill="#192833"
     id="path1398" />
  <path
     d="M349.934,79.645l-.288,6.192c2.016-5.617,4.608-7.2,12.025-7.129v9.649a17.963,17.963,0,0,0-2.592-.144c-3.529,0-6.409,1.584-7.561,4.177-1.008,2.3-1.368,5.544-1.368,12.24v9.793H339.925V79.645Z"
     transform="translate(-45.5 -65.315)"
     fill="#192833"
     id="path1400" />
  <path
     d="M400.044,114.423H389.459V66.4h20.955c6.192,0,9.649.793,12.528,2.88,2.953,2.161,4.609,5.761,4.609,10.081,0,5.833-2.593,9.577-7.993,11.593,4.753,1.512,6.409,4.032,6.769,10.369l.36,6.841c.216,3.168.576,4.248,1.944,6.264H418.046c-1.3-1.008-1.656-1.728-1.8-4.176l-.432-6.553c-.432-5.9-3.024-8.5-8.569-8.5h-7.2ZM410.629,86.7c3.961,0,6.121-2.016,6.121-5.545s-2.16-5.544-6.121-5.544H400.044V86.7Z"
     transform="translate(-45.5 -65.315)"
     fill="#192833"
     id="path1402" />
  <path
     d="M444.323,100.022c.649,4.752,3.457,7.345,7.849,7.345a6.519,6.519,0,0,0,6.049-3.1h10.368c-1.943,6.768-8.424,11.088-16.7,11.088-10.729,0-17.858-7.344-17.858-18.289,0-10.873,7.273-18.362,17.786-18.362,7.345,0,12.889,3.672,15.481,10.225,1.225,3.025,1.728,6.265,1.728,11.089Zm14.186-7.2c-.432-4.1-2.809-6.336-6.769-6.336s-6.552,2.232-7.344,6.336Z"
     transform="translate(-45.5 -65.315)"
     fill="#192833"
     id="path1404" />
  <path
     d="M486.371,79.645l-.288,4.1c2.952-3.673,5.472-5.041,9.793-5.041,9.145,0,15.337,7.345,15.337,18.218,0,11.089-6.12,18.433-15.265,18.433a12.537,12.537,0,0,1-9.361-3.744V125.44H476.362V79.645ZM486.227,97c0,6.192,2.88,10.081,7.489,10.081,4.464,0,7.416-3.889,7.416-9.937,0-6.265-2.808-10.153-7.488-10.153C489.107,86.989,486.227,90.877,486.227,97Z"
     transform="translate(-45.5 -65.315)"
     fill="#192833"
     id="path1406" />
  <path
     d="M553.692,97.286c0,10.513-7.776,18.073-18.5,18.073-10.8,0-18.434-7.56-18.434-18.361,0-10.729,7.633-18.29,18.434-18.29C546.2,78.708,553.692,86.2,553.692,97.286ZM527.05,97c0,6.552,2.952,10.225,8.209,10.225,5.112,0,8.137-3.673,8.137-10.009,0-6.7-2.881-10.369-8.209-10.369C530,86.845,527.05,90.517,527.05,97Z"
     transform="translate(-45.5 -65.315)"
     fill="#192833"
     id="path1408" />
  <path
     d="M570.97,79.645l-.288,6.192c2.016-5.617,4.608-7.2,12.025-7.129v9.649a17.963,17.963,0,0,0-2.592-.144c-3.528,0-6.409,1.584-7.56,4.177-1.009,2.3-1.368,5.544-1.368,12.24v9.793H560.961V79.645Z"
     transform="translate(-45.5 -65.315)"
     fill="#192833"
     id="path1410" />
  <path
     d="M607.688,87.277h-6.264v13.537c0,5.473.217,5.905,2.593,5.905h3.671v7.7h-6.264c-4.464,0-6.7-.648-8.208-2.3-1.585-1.728-2.017-3.6-2.017-9V87.277h-4.9v-7.2h4.9V69.06h10.225V80.076h6.264Z"
     transform="translate(-45.5 -65.315)"
     fill="#192833"
     id="path1412" />
  <path
     d="M633.248,90.085c-.432-2.592-2.519-3.96-5.9-3.96-2.952,0-4.9,1.152-4.9,2.88,0,1.3,1.009,1.944,4.249,2.664l6.408,1.369c4.249.863,6.409,1.8,7.921,3.384a9.688,9.688,0,0,1,2.592,6.984c0,7.345-5.976,11.953-15.625,11.953s-15.626-4.536-16.2-12.241h9.576c.576,3.313,2.737,4.825,6.841,4.825,3.24,0,5.328-1.3,5.328-3.384,0-1.657-1.151-2.521-3.888-3.169l-6.336-1.44c-7.633-1.656-10.585-4.464-10.585-10.009,0-6.984,5.544-11.233,14.833-11.233,8.928,0,14.33,4.033,15.265,11.377Z"
     transform="translate(-45.5 -65.315)"
     fill="#192833"
     id="path1414" />
  <path
     d="M707.985,75.612H683.5V86.341h21.458V95.2H683.5v19.225H672.7V66.4h35.283Z"
     transform="translate(-45.5 -65.315)"
     fill="#192833"
     id="path1416" />
  <path
     d="M724.327,74.82H714.1V66.4h10.225Zm0,39.6H714.1V79.645h10.225Z"
     transform="translate(-45.5 -65.315)"
     fill="#192833"
     id="path1418" />
  <path
     d="M750.967,87.277H744.7v13.537c0,5.473.216,5.905,2.593,5.905h3.672v7.7H744.7c-4.464,0-6.7-.648-8.208-2.3-1.585-1.728-2.016-3.6-2.016-9V87.277h-4.9v-7.2h4.9V69.06H744.7V80.076h6.265Z"
     transform="translate(-45.5 -65.315)"
     fill="#192833"
     id="path1420" />
  <path
     d="M789.846,114.423h-10.8V66.4h10.8Z"
     transform="translate(-45.5 -65.315)"
     fill="#192833"
     id="path1422" />
  <path
     d="M809.357,79.645v3.384c3.745-3.457,5.9-4.393,9.5-4.393,7.561,0,12.169,5.041,12.169,13.249v22.538H820.806V95.486c0-3.528-.216-4.9-1.08-6.193a4.841,4.841,0,0,0-4.176-2.016,5.763,5.763,0,0,0-4.393,1.872c-1.152,1.3-1.511,2.736-1.511,5.761v19.513H799.42V79.645Z"
     transform="translate(-45.5 -65.315)"
     fill="#192833"
     id="path1424" />
  <path
     d="M857.669,87.277H851.4v13.537c0,5.473.217,5.905,2.593,5.905h3.672v7.7H851.4c-4.464,0-6.7-.648-8.208-2.3-1.585-1.728-2.016-3.6-2.016-9V87.277h-4.9v-7.2h4.9V69.06H851.4V80.076h6.265Z"
     transform="translate(-45.5 -65.315)"
     fill="#192833"
     id="path1426" />
  <path
     d="M898.711,97.286c0,10.513-7.776,18.073-18.5,18.073-10.8,0-18.434-7.56-18.434-18.361,0-10.729,7.632-18.29,18.434-18.29C891.223,78.708,898.711,86.2,898.711,97.286ZM872.069,97c0,6.552,2.952,10.225,8.208,10.225,5.114,0,8.137-3.673,8.137-10.009,0-6.7-2.88-10.369-8.208-10.369C875.021,86.845,872.069,90.517,872.069,97Z"
     transform="translate(-45.5 -65.315)"
     fill="#192833"
     id="path1428" />
  <path
     d="M945.221,87.277h-6.265v13.537c0,5.473.216,5.905,2.593,5.905h3.672v7.7h-6.265c-4.464,0-6.7-.648-8.208-2.3-1.585-1.728-2.017-3.6-2.017-9V87.277h-4.9v-7.2h4.9V69.06h10.225V80.076h6.265Z"
     transform="translate(-45.5 -65.315)"
     fill="#192833"
     id="path1430" />
  <path
     d="M962.356,82.6a12.423,12.423,0,0,1,9.217-3.889,11.836,11.836,0,0,1,8.929,3.745c2.231,2.448,3.1,5.4,3.1,10.585v21.385H973.373V94.91c0-3.241-.288-4.537-1.152-5.761a4.882,4.882,0,0,0-4.033-1.8,6.378,6.378,0,0,0-4.463,1.728c-1.153,1.224-1.369,2.233-1.369,5.833v19.513H952.131V66.4h10.225Z"
     transform="translate(-45.5 -65.315)"
     fill="#192833"
     id="path1432" />
  <path
     d="M1001.164,100.022c.648,4.752,3.456,7.345,7.849,7.345a6.519,6.519,0,0,0,6.048-3.1h10.369c-1.945,6.768-8.425,11.088-16.705,11.088-10.73,0-17.858-7.344-17.858-18.289,0-10.873,7.273-18.362,17.785-18.362,7.345,0,12.889,3.672,15.482,10.225,1.223,3.025,1.728,6.265,1.728,11.089Zm14.185-7.2c-.432-4.1-2.808-6.336-6.769-6.336s-6.553,2.232-7.345,6.336Z"
     transform="translate(-45.5 -65.315)"
     fill="#192833"
     id="path1434" />
  <path
     d="M188.694,168.132c-1.08-4.608-4.609-7.272-9.721-7.272-7.921,0-12.457,5.832-12.457,15.913,0,10.009,4.536,15.986,12.169,15.986,5.544,0,8.857-2.737,10.153-8.5h11.449c-1.3,10.873-9.433,17.641-21.314,17.641-14.185,0-23.258-9.793-23.258-25.13,0-15.409,8.929-25.058,23.186-25.058,11.593,0,19.514,6.193,20.81,16.417Z"
     transform="translate(-45.5 -65.315)"
     fill="#192833"
     id="path1436" />
  <path
     d="M216.772,166.044l-.288,6.193c2.016-5.617,4.608-7.2,12.025-7.129v9.649a17.963,17.963,0,0,0-2.592-.144c-3.529,0-6.409,1.584-7.561,4.177-1.008,2.3-1.368,5.544-1.368,12.24v9.793H206.763V166.044Z"
     transform="translate(-45.5 -65.315)"
     fill="#192833"
     id="path1438" />
  <path
     d="M244.276,161.22H234.051v-8.425h10.225Zm0,39.6H234.051V166.044h10.225Z"
     transform="translate(-45.5 -65.315)"
     fill="#192833"
     id="path1440" />
  <path
     d="m 218.712,100.726 v 4.177 c 3.241,-3.961 5.4,-5.113 9.578,-5.113 4.464,0 7.632,1.8 9.648,5.617 3.745,-4.249 6.337,-5.617 10.8,-5.617 a 11.733,11.733 0 0 1 8.641,3.241 c 1.944,2.088 2.736,4.9 2.736,9.36 v 23.114 h -10.224 v -19.154 c 0,-5.328 -1.584,-7.7 -5.112,-7.7 -3.6,0 -5.185,2.376 -5.185,7.7 v 19.154 H 229.37 v -19.154 c 0,-5.328 -1.585,-7.7 -5.185,-7.7 -3.528,0 -5.184,2.376 -5.184,7.7 v 19.154 h -10.225 v -34.779 z"
     id="path1442"
     inkscape:connector-curvature="0"
     style="fill:#192833" />
  <path
     d="M323.907,161.22H313.682v-8.425h10.225Zm0,39.6H313.682V166.044h10.225Z"
     transform="translate(-45.5 -65.315)"
     fill="#192833"
     id="path1444" />
  <path
     d="M342.842,166.044v3.385c3.745-3.457,5.905-4.393,9.5-4.393,7.561,0,12.169,5.041,12.169,13.249v22.538H354.292V181.886c0-3.529-.217-4.9-1.081-6.193a4.841,4.841,0,0,0-4.176-2.016,5.763,5.763,0,0,0-4.392,1.872c-1.153,1.3-1.513,2.736-1.513,5.761v19.513H332.906V166.044Z"
     transform="translate(-45.5 -65.315)"
     fill="#192833"
     id="path1446" />
  <path
     d="M373.585,176.989c.648-7.992,5.617-11.881,15.409-11.881,5.257,0,9.289,1.224,12.026,3.6,2.52,2.232,3.456,5.041,3.456,10.153v15.986c0,3.744.144,4.248,1.3,5.976H395.331c-.432-1.224-.432-1.44-.792-2.736-3.385,2.808-5.833,3.672-9.937,3.672-7.7,0-12.817-4.32-12.817-10.873s4.1-9.936,13.825-11.521l5.544-.936c2.3-.36,3.1-.936,3.1-2.376,0-1.944-2.017-3.168-5.329-3.168-3.744,0-5.76,1.3-6.192,4.1Zm20.954,7.273a20.155,20.155,0,0,1-3.745,1.08l-3.672.792c-3.672.864-5.256,2.088-5.256,4.177,0,2.3,1.944,3.671,5.184,3.671a7.986,7.986,0,0,0,7.489-4.392Z"
     transform="translate(-45.5 -65.315)"
     fill="#192833"
     id="path1448" />
  <path
     d="M423.77,200.823H413.545V152.795H423.77Z"
     transform="translate(-45.5 -65.315)"
     fill="#192833"
     id="path1450" />
  <path
     d="M482.09,152.795V187.43c0,5.041-1.3,8.209-4.392,10.8-2.952,2.448-6.769,3.672-11.593,3.672-9.361,0-15.553-5.112-15.553-12.889v-6.553h10.224v4.9c0,3.528,1.8,5.4,5.257,5.4s5.257-1.873,5.257-5.4V152.795Z"
     transform="translate(-45.5 -65.315)"
     fill="#192833"
     id="path1452" />
  <path
     d="M523.2,200.823h-9.721v-3.816c-2.448,3.456-4.968,4.752-9.216,4.752a12.95,12.95,0,0,1-9.217-3.6c-2.376-2.376-3.312-5.328-3.312-10.3V166.044H501.96V185.63c0,3.384.144,4.248,1.081,5.473a5.391,5.391,0,0,0,4.464,2.016A5.25,5.25,0,0,0,511.9,191.1c.936-1.225,1.081-2.017,1.081-5.473V166.044H523.2Z"
     transform="translate(-45.5 -65.315)"
     fill="#192833"
     id="path1454" />
  <path
     d="M551.208,176.485c-.432-2.592-2.52-3.96-5.9-3.96-2.952,0-4.9,1.152-4.9,2.88,0,1.3,1.009,1.944,4.249,2.664l6.408,1.369c4.249.863,6.409,1.8,7.921,3.384a9.688,9.688,0,0,1,2.592,6.984c0,7.345-5.976,11.953-15.625,11.953s-15.625-4.536-16.2-12.241h9.577c.576,3.313,2.736,4.825,6.841,4.825,3.24,0,5.329-1.3,5.329-3.385,0-1.656-1.153-2.52-3.889-3.168l-6.337-1.44c-7.632-1.656-10.584-4.464-10.584-10.009,0-6.985,5.544-11.233,14.833-11.233,8.928,0,14.33,4.033,15.265,11.377Z"
     transform="translate(-45.5 -65.315)"
     fill="#192833"
     id="path1456" />
  <path
     d="M586.487,173.677h-6.264v13.537c0,5.473.216,5.905,2.592,5.905h3.672v7.7h-6.264c-4.464,0-6.7-.648-8.208-2.3-1.585-1.728-2.017-3.6-2.017-9V173.677h-4.9v-7.2H570V155.459h10.225v11.017h6.264Z"
     transform="translate(-45.5 -65.315)"
     fill="#192833"
     id="path1458" />
  <path
     d="M603.622,161.22H593.4v-8.425h10.226Zm0,39.6H593.4V166.044h10.226Z"
     transform="translate(-45.5 -65.315)"
     fill="#192833"
     id="path1460" />
  <path
     d="M634.727,178.573c-.577-3.312-2.881-5.184-6.337-5.184-4.681,0-7.2,3.528-7.2,9.865,0,6.7,2.52,10.225,7.273,10.225,3.672,0,5.688-1.873,6.48-5.977l9.937.5c-1.44,8.785-7.488,13.753-16.705,13.753-10.585,0-17.281-7.056-17.281-18.217,0-11.521,6.624-18.434,17.641-18.434,9.072,0,15.265,5.184,15.913,13.465Z"
     transform="translate(-45.5 -65.315)"
     fill="#192833"
     id="path1462" />
  <path
     d="M660,186.422c.648,4.752,3.456,7.345,7.849,7.345a6.518,6.518,0,0,0,6.048-3.1h10.369c-1.945,6.769-8.425,11.089-16.705,11.089-10.73,0-17.858-7.344-17.858-18.289,0-10.873,7.273-18.362,17.785-18.362,7.345,0,12.889,3.672,15.482,10.225,1.223,3.024,1.728,6.265,1.728,11.089Zm14.185-7.2c-.432-4.1-2.808-6.336-6.769-6.336s-6.553,2.232-7.345,6.336Z"
     transform="translate(-45.5 -65.315)"
     fill="#192833"
     id="path1464" />
  <path
     d="M740.565,167.844v-.792c0-4.032-3.168-6.336-8.64-6.336-5.112,0-8.209,1.872-8.209,4.9,0,2.016,1.44,3.385,4.392,4.105l9.721,2.232c5.328,1.3,8.28,2.592,10.585,4.752a11.831,11.831,0,0,1,3.672,9.145c0,9.937-7.632,16.057-20.089,16.057-12.962,0-20.45-6.192-20.522-16.921h10.8c.217,5.472,3.313,7.92,9.866,7.92,5.545,0,8.928-2.016,8.928-5.4,0-2.376-1.728-4.032-5.184-4.9l-8.713-2.16c-5.112-1.224-8.28-2.592-10.441-4.464-2.448-2.016-3.816-5.544-3.816-9.433,0-9.289,7.129-14.833,19.3-14.833,7.776,0,13.249,2.3,16.345,6.841,1.585,2.376,2.377,4.968,2.808,9.288Z"
     transform="translate(-45.5 -65.315)"
     fill="#192833"
     id="path1466" />
  <path
     d="M791.107,166.044l-12.1,35.067c-1.945,5.689-3.1,7.705-4.9,9-1.656,1.224-3.96,1.728-7.776,1.728h-5.977v-7.7h3.025c3.6,0,5.256-1.368,5.256-4.393,0-1.224-.073-1.44-1.3-4.464L755.9,166.044h10.946l5.112,15.914c1.008,3.24,1.008,3.312,1.8,6.192l.433,1.368c.431-2.3,1.007-4.68,1.8-7.776l4.536-15.7Z"
     transform="translate(-45.5 -65.315)"
     fill="#192833"
     id="path1468" />
  <path
     d="M814.794,176.485c-.432-2.592-2.52-3.96-5.9-3.96-2.952,0-4.9,1.152-4.9,2.88,0,1.3,1.009,1.944,4.249,2.664l6.408,1.369c4.248.863,6.409,1.8,7.921,3.384a9.688,9.688,0,0,1,2.592,6.984c0,7.345-5.976,11.953-15.625,11.953s-15.626-4.536-16.2-12.241h9.576c.576,3.313,2.736,4.825,6.841,4.825,3.24,0,5.328-1.3,5.328-3.385,0-1.656-1.151-2.52-3.888-3.168l-6.337-1.44c-7.632-1.656-10.585-4.464-10.585-10.009,0-6.985,5.545-11.233,14.833-11.233,8.929,0,14.331,4.033,15.266,11.377Z"
     transform="translate(-45.5 -65.315)"
     fill="#192833"
     id="path1470" />
  <path
     d="M850.072,173.677h-6.264v13.537c0,5.473.215,5.905,2.592,5.905h3.672v7.7h-6.264c-4.464,0-6.7-.648-8.208-2.3-1.585-1.728-2.017-3.6-2.017-9V173.677h-4.9v-7.2h4.9V155.459h10.225v11.017h6.264Z"
     transform="translate(-45.5 -65.315)"
     fill="#192833"
     id="path1472" />
  <path
     d="M864.473,186.422c.647,4.752,3.456,7.345,7.848,7.345a6.516,6.516,0,0,0,6.048-3.1h10.369c-1.944,6.769-8.425,11.089-16.705,11.089-10.729,0-17.857-7.344-17.857-18.289,0-10.873,7.272-18.362,17.785-18.362,7.345,0,12.889,3.672,15.481,10.225,1.224,3.024,1.729,6.265,1.729,11.089Zm14.184-7.2c-.431-4.1-2.807-6.336-6.768-6.336s-6.553,2.232-7.345,6.336Z"
     transform="translate(-45.5 -65.315)"
     fill="#192833"
     id="path1474" />
  <path
     d="M906.448,166.044v4.177c3.24-3.961,5.4-5.113,9.576-5.113,4.465,0,7.633,1.8,9.65,5.617,3.744-4.249,6.336-5.617,10.8-5.617a11.731,11.731,0,0,1,8.64,3.241c1.945,2.088,2.737,4.9,2.737,9.36v23.114H937.627V181.669c0-5.328-1.585-7.7-5.113-7.7-3.6,0-5.184,2.376-5.184,7.7v19.154H917.1V181.669c0-5.328-1.583-7.7-5.184-7.7-3.528,0-5.184,2.376-5.184,7.7v19.154H896.511V166.044Z"
     transform="translate(-45.5 -65.315)"
     fill="#192833"
     id="path1476" />
</svg>
