<?xml version="1.0" encoding="iso-8859-1"?>
<!-- Generator: Adobe Illustrator 22.1.0, SVG Export Plug-In . SVG Version: 6.00 Build 0)  -->
<svg version="1.1" xmlns="http://www.w3.org/2000/svg" xmlns:xlink="http://www.w3.org/1999/xlink" x="0px" y="0px"
	 viewBox="0 0 621.212 109.833" style="enable-background:new 0 0 621.212 109.833;" xml:space="preserve">
<g id="Info_-_DO_NOT_USE">
</g>
<g id="Layer_1">
	<g>
		<path style="fill:#F15A22;" d="M71.375,64.307c0-14.754-11.425-25.462-27.166-25.462H24.831c-0.42,0-0.761,0.341-0.761,0.761
			v49.688c0,0.42,0.34,0.761,0.761,0.761h19.378c15.741,0,27.166-10.768,27.166-25.604V64.307z M58.426,64.449v0.142
			c0,8.418-5.713,14.075-14.217,14.075h-7.686V50.232h7.686C52.713,50.232,58.426,55.945,58.426,64.449z"/>
		<path style="fill:#192833;" d="M103.015,38.953c-0.12-0.281-0.395-0.463-0.7-0.463H92.236c-0.305,0-0.58,0.182-0.7,0.463
			L70.241,88.995c-0.1,0.235-0.075,0.504,0.066,0.717c0.141,0.213,0.379,0.341,0.634,0.341h11.144c0.309,0,0.587-0.187,0.704-0.473
			l4.35-10.671h19.988l4.35,10.671c0.117,0.286,0.395,0.473,0.704,0.473h11.428c0.255,0,0.494-0.128,0.634-0.341
			c0.141-0.213,0.165-0.482,0.066-0.717L103.015,38.953z M102.601,67.735H91.665l5.468-13.346L102.601,67.735z"/>
		<path style="fill:#4D7DBF;" d="M150.804,37.993c-15.273,0-27.237,11.621-27.237,26.456v0.142
			c0,15.002,11.648,26.314,27.095,26.314c15.273,0,27.237-11.621,27.237-26.456v-0.142C177.899,49.305,166.25,37.993,150.804,37.993
			z M164.949,64.591c0,8.388-6.081,14.713-14.146,14.713c-8.145,0-14.288-6.386-14.288-14.856v-0.142
			c0-8.388,6.081-14.713,14.146-14.713c8.145,0,14.288,6.386,14.288,14.856V64.591z"/>
		<path style="fill:#192833;" d="M175.435,20.402h-72.438v-3.569c0-0.309-0.25-0.559-0.559-0.559H92.183
			c-0.309,0-0.559,0.25-0.559,0.559v3.569H24.931c-0.422,0-0.764,0.313-0.764,0.699v10.754c0,0.386,0.342,0.699,0.764,0.699h150.504
			c0.422,0,0.764-0.313,0.764-0.699V21.101C176.199,20.715,175.857,20.402,175.435,20.402z"/>
		<g>
			<path style="fill:#92A2AD;" d="M26.936,23.093c0-0.031,0.025-0.057,0.057-0.057h2.837c1.69,0,2.711,1.001,2.711,2.448v0.02
				c0,1.639-1.275,2.489-2.863,2.489h-1.183v2.091c0,0.019-0.015,0.034-0.034,0.034h-1.49c-0.019,0-0.034-0.015-0.034-0.034V23.093z
				 M29.728,26.608c0.779,0,1.234-0.466,1.234-1.073v-0.02c0-0.698-0.486-1.072-1.265-1.072h-1.204v2.165H29.728z"/>
			<path style="fill:#92A2AD;" d="M34.535,23.036h1.49c0.019,0,0.034,0.015,0.034,0.034v2.734c0,0.019,0.015,0.034,0.034,0.034
				h2.805c0.019,0,0.034-0.015,0.034-0.034V23.07c0-0.019,0.015-0.034,0.034-0.034h1.49c0.019,0,0.034,0.015,0.034,0.034v7.014
				c0,0.019-0.015,0.034-0.034,0.034h-1.49c-0.019,0-0.034-0.015-0.034-0.034v-2.775c0-0.019-0.015-0.034-0.034-0.034h-2.805
				c-0.019,0-0.034,0.015-0.034,0.034v2.775c0,0.019-0.015,0.034-0.034,0.034h-1.49c-0.019,0-0.034-0.015-0.034-0.034V23.07
				C34.501,23.052,34.516,23.036,34.535,23.036z"/>
			<path style="fill:#92A2AD;" d="M43.031,23.036h1.49c0.019,0,0.034,0.015,0.034,0.034v5.597c0,0.019,0.015,0.034,0.034,0.034
				h3.497v1.417h-5.055c-0.019,0-0.034-0.015-0.034-0.034V23.07C42.997,23.052,43.012,23.036,43.031,23.036z"/>
		</g>
		<g>
			<path style="fill:#192833;" d="M210.114,48.929h-6.536V19.866h11.415c3.965,0,6.057,0.566,7.93,2.223
				c2.004,1.787,3.137,4.445,3.137,7.581c0,2.658-0.827,4.967-2.482,6.71c-1.743,1.83-3.966,2.658-7.32,2.658h-6.143V48.929z
				 M215.255,33.461c2.571,0,4.139-1.525,4.139-4.008c0-2.528-1.568-4.01-4.139-4.01h-5.14v8.018H215.255z"/>
			<path style="fill:#192833;" d="M235.694,29.671c1.744-1.655,3.399-2.353,5.577-2.353c2.135,0,4.053,0.784,5.403,2.265
				c1.351,1.482,1.874,3.268,1.874,6.405v12.941h-6.187V37.12c0-1.96-0.174-2.744-0.698-3.485c-0.522-0.696-1.394-1.089-2.44-1.089
				s-2.048,0.393-2.701,1.047c-0.698,0.74-0.828,1.35-0.828,3.527v11.808h-6.186V19.866h6.186V29.671z"/>
			<path style="fill:#192833;" d="M259.967,24.965h-6.187v-5.099h6.187V24.965z M259.967,48.929h-6.187V27.884h6.187V48.929z"/>
			<path style="fill:#192833;" d="M271.385,48.929h-6.187V19.866h6.187V48.929z"/>
			<path style="fill:#192833;" d="M276.659,34.506c0.393-4.835,3.399-7.188,9.324-7.188c3.181,0,5.621,0.74,7.277,2.177
				c1.524,1.352,2.091,3.051,2.091,6.145v9.673c0,2.265,0.088,2.57,0.786,3.615h-6.319c-0.261-0.74-0.261-0.871-0.479-1.655
				c-2.048,1.699-3.529,2.221-6.014,2.221c-4.662,0-7.755-2.614-7.755-6.578c0-3.966,2.483-6.014,8.365-6.973l3.356-0.566
				c1.394-0.217,1.873-0.566,1.873-1.438c0-1.176-1.22-1.916-3.224-1.916c-2.266,0-3.486,0.784-3.748,2.482H276.659z
				 M289.339,38.907c-0.654,0.263-1.22,0.437-2.266,0.654l-2.222,0.481c-2.221,0.522-3.18,1.262-3.18,2.526
				c0,1.394,1.176,2.221,3.137,2.221c2.048,0,3.529-0.871,4.532-2.658V38.907z"/>
			<path style="fill:#192833;" d="M320.539,48.929h-5.925v-2.265c-1.569,2.048-3.224,2.831-5.795,2.831
				c-5.534,0-9.237-4.401-9.237-11.067c0-6.71,3.747-11.154,9.412-11.154c2.265,0,3.878,0.654,5.36,2.179v-9.587h6.186V48.929z
				 M305.681,38.384c0,3.705,1.743,6.1,4.445,6.1c2.658,0,4.445-2.439,4.445-6.012c0-3.747-1.743-6.187-4.445-6.187
				C307.424,32.285,305.681,34.682,305.681,38.384z"/>
			<path style="fill:#192833;" d="M330.957,40.215c0.393,2.875,2.092,4.445,4.75,4.445c1.655,0,2.831-0.566,3.659-1.874h6.275
				c-1.176,4.096-5.099,6.71-10.108,6.71c-6.492,0-10.806-4.445-10.806-11.067c0-6.58,4.401-11.11,10.762-11.11
				c4.445,0,7.799,2.221,9.369,6.187c0.74,1.83,1.045,3.791,1.045,6.71H330.957z M339.541,35.858
				c-0.261-2.484-1.7-3.834-4.096-3.834c-2.397,0-3.966,1.35-4.445,3.834H339.541z"/>
			<path style="fill:#192833;" d="M356.406,48.929h-6.186V19.866h6.186V48.929z"/>
			<path style="fill:#192833;" d="M367.694,27.884l-0.174,2.482c1.787-2.221,3.311-3.049,5.926-3.049
				c5.533,0,9.281,4.445,9.281,11.023c0,6.71-3.704,11.154-9.238,11.154c-2.309,0-3.92-0.652-5.664-2.265v8.367h-6.186V27.884
				H367.694z M367.606,38.384c0,3.747,1.744,6.1,4.532,6.1c2.702,0,4.487-2.353,4.487-6.012c0-3.791-1.699-6.143-4.531-6.143
				C369.35,32.329,367.606,34.682,367.606,38.384z"/>
			<path style="fill:#192833;" d="M393.099,29.671c1.744-1.655,3.4-2.353,5.577-2.353c2.136,0,4.053,0.784,5.404,2.265
				c1.35,1.482,1.873,3.268,1.873,6.405v12.941h-6.187V37.12c0-1.96-0.174-2.744-0.697-3.485c-0.522-0.696-1.394-1.089-2.441-1.089
				c-1.045,0-2.048,0.393-2.701,1.047c-0.697,0.74-0.828,1.35-0.828,3.527v11.808h-6.186V19.866h6.186V29.671z"/>
			<path style="fill:#192833;" d="M417.373,24.965h-6.187v-5.099h6.187V24.965z M417.373,48.929h-6.187V27.884h6.187V48.929z"/>
			<path style="fill:#192833;" d="M422.647,34.506c0.392-4.835,3.398-7.188,9.324-7.188c3.18,0,5.621,0.74,7.276,2.177
				c1.525,1.352,2.092,3.051,2.092,6.145v9.673c0,2.265,0.088,2.57,0.785,3.615h-6.318c-0.261-0.74-0.261-0.871-0.48-1.655
				c-2.048,1.699-3.529,2.221-6.013,2.221c-4.662,0-7.756-2.614-7.756-6.578c0-3.966,2.483-6.014,8.366-6.973l3.355-0.566
				c1.395-0.217,1.873-0.566,1.873-1.438c0-1.176-1.22-1.916-3.224-1.916c-2.265,0-3.485,0.784-3.747,2.482H422.647z
				 M435.326,38.907c-0.653,0.263-1.219,0.437-2.266,0.654l-2.221,0.481c-2.222,0.522-3.18,1.262-3.18,2.526
				c0,1.394,1.176,2.221,3.137,2.221c2.048,0,3.529-0.871,4.531-2.658V38.907z"/>
			<path style="fill:#192833;" d="M459.819,19.866h9.848c5.881,0,8.975,1.047,11.589,4.01c2.309,2.614,3.573,6.273,3.573,10.369
				c0,4.271-1.394,8.235-3.791,10.849c-2.527,2.702-5.752,3.834-11.154,3.834h-10.066V19.866z M470.756,43.351
				c2.963,0,4.75-0.827,5.969-2.831c0.958-1.613,1.439-3.617,1.439-6.143c0-2.441-0.437-4.357-1.395-6.014
				c-1.134-2.004-2.919-2.919-5.577-2.919h-4.836v17.908H470.756z"/>
			<path style="fill:#192833;" d="M495.421,24.965h-6.187v-5.099h6.187V24.965z M495.421,48.929h-6.187V27.884h6.187V48.929z"/>
			<path style="fill:#192833;" d="M512.111,34.201c-0.261-1.567-1.524-2.395-3.572-2.395c-1.787,0-2.963,0.696-2.963,1.743
				c0,0.784,0.61,1.176,2.571,1.611l3.878,0.827c2.57,0.524,3.877,1.091,4.792,2.048c1.003,0.959,1.569,2.528,1.569,4.227
				c0,4.445-3.617,7.232-9.455,7.232s-9.454-2.744-9.803-7.406h5.795c0.349,2.004,1.655,2.919,4.139,2.919
				c1.96,0,3.224-0.786,3.224-2.048c0-1.003-0.698-1.525-2.353-1.918l-3.834-0.871c-4.619-1.001-6.405-2.702-6.405-6.056
				c0-4.227,3.354-6.797,8.975-6.797c5.404,0,8.671,2.441,9.237,6.883H512.111z"/>
			<path style="fill:#192833;" d="M533.247,32.502h-3.791v8.191c0,3.312,0.13,3.573,1.567,3.573h2.223v4.662h-3.791
				c-2.702,0-4.053-0.391-4.968-1.394c-0.958-1.045-1.219-2.179-1.219-5.446v-9.587h-2.963v-4.357h2.963V21.48h6.187v6.666h3.791
				V32.502z"/>
			<path style="fill:#192833;" d="M543.271,27.884l-0.175,3.747c1.22-3.398,2.79-4.357,7.277-4.313v5.838
				c-0.741-0.088-1.046-0.088-1.568-0.088c-2.135,0-3.878,0.959-4.575,2.528c-0.61,1.394-0.828,3.354-0.828,7.406v5.926h-6.186
				V27.884H543.271z"/>
			<path style="fill:#192833;" d="M559.699,24.965h-6.187v-5.099h6.187V24.965z M559.699,48.929h-6.187V27.884h6.187V48.929z"/>
			<path style="fill:#192833;" d="M578.306,35.465c-0.348-2.004-1.743-3.137-3.833-3.137c-2.833,0-4.358,2.136-4.358,5.968
				c0,4.054,1.524,6.187,4.401,6.187c2.222,0,3.443-1.133,3.921-3.615l6.014,0.305c-0.872,5.316-4.532,8.321-10.109,8.321
				c-6.405,0-10.456-4.269-10.456-11.023c0-6.971,4.008-11.154,10.674-11.154c5.491,0,9.238,3.137,9.63,8.147H578.306z"/>
			<path style="fill:#192833;" d="M599.094,32.502h-3.791v8.191c0,3.312,0.13,3.573,1.567,3.573h2.223v4.662h-3.791
				c-2.702,0-4.053-0.391-4.968-1.394c-0.958-1.045-1.219-2.179-1.219-5.446v-9.587h-2.963v-4.357h2.963V21.48h6.187v6.666h3.791
				V32.502z"/>
			<path style="fill:#192833;" d="M209.416,83.065l-1.83,5.838h-7.102l10.152-29.062h8.147l9.238,29.062h-7.408l-1.569-5.838
				H209.416z M214.558,66.334l-3.529,11.372h6.579L214.558,66.334z"/>
			<path style="fill:#192833;" d="M241.402,72.477h-3.791v8.191c0,3.312,0.132,3.573,1.569,3.573h2.221v4.662h-3.791
				c-2.701,0-4.052-0.393-4.967-1.394c-0.958-1.047-1.22-2.179-1.22-5.448v-9.585h-2.963v-4.357h2.963v-6.668h6.187v6.668h3.791
				V72.477z"/>
			<path style="fill:#192833;" d="M256.392,72.477h-3.791v8.191c0,3.312,0.131,3.573,1.568,3.573h2.222v4.662h-3.791
				c-2.702,0-4.052-0.393-4.967-1.394c-0.959-1.047-1.22-2.179-1.22-5.448v-9.585h-2.963v-4.357h2.963v-6.668h6.187v6.668h3.791
				V72.477z"/>
			<path style="fill:#192833;" d="M281.013,78.533c0,6.361-4.706,10.937-11.197,10.937c-6.536,0-11.154-4.576-11.154-11.11
				c0-6.492,4.618-11.069,11.154-11.069C276.481,67.291,281.013,71.823,281.013,78.533z M264.892,78.36
				c0,3.964,1.787,6.187,4.967,6.187c3.094,0,4.924-2.223,4.924-6.058c0-4.052-1.743-6.273-4.967-6.273
				C266.678,72.216,264.892,74.437,264.892,78.36z"/>
			<path style="fill:#192833;" d="M291.257,67.857l-0.175,3.749c1.22-3.4,2.79-4.357,7.277-4.315v5.838
				c-0.741-0.086-1.046-0.086-1.568-0.086c-2.136,0-3.878,0.959-4.575,2.526c-0.61,1.394-0.828,3.356-0.828,7.408v5.926H285.2
				V67.857H291.257z"/>
			<path style="fill:#192833;" d="M307.512,67.857v2.048c2.265-2.09,3.573-2.656,5.751-2.656c4.576,0,7.364,3.049,7.364,8.016
				v13.639h-6.187V77.444c0-2.136-0.13-2.963-0.653-3.747c-0.523-0.786-1.438-1.22-2.527-1.22c-1.045,0-2.004,0.391-2.658,1.133
				c-0.697,0.784-0.915,1.655-0.915,3.485v11.808h-6.186V67.857H307.512z"/>
			<path style="fill:#192833;" d="M331.044,80.188c0.392,2.877,2.091,4.445,4.749,4.445c1.656,0,2.832-0.566,3.66-1.872h6.275
				c-1.176,4.096-5.099,6.71-10.109,6.71c-6.492,0-10.805-4.445-10.805-11.067c0-6.58,4.401-11.112,10.761-11.112
				c4.445,0,7.8,2.223,9.369,6.187c0.741,1.83,1.046,3.791,1.046,6.71H331.044z M339.628,75.831c-0.261-2.482-1.7-3.834-4.096-3.834
				c-2.397,0-3.965,1.352-4.445,3.834H339.628z"/>
			<path style="fill:#192833;" d="M368.389,67.857l-7.32,21.22c-1.176,3.442-1.874,4.662-2.963,5.448
				c-1.003,0.74-2.397,1.045-4.706,1.045h-3.617v-4.662h1.83c2.178,0,3.18-0.827,3.18-2.658c0-0.74-0.044-0.871-0.784-2.702
				l-6.929-17.69h6.624l3.093,9.631c0.61,1.96,0.61,2.004,1.09,3.747l0.261,0.827c0.262-1.394,0.61-2.831,1.09-4.706l2.745-9.499
				H368.389z"/>
			<path style="fill:#192833;" d="M378.369,59.842v5.228c0,4.227-2.177,6.927-6.317,7.842v-2.439
				c1.96-0.742,3.137-2.441,3.224-4.532h-3.007v-6.1H378.369z"/>
			<path style="fill:#192833;" d="M394.841,74.176c-0.261-1.569-1.524-2.397-3.572-2.397c-1.787,0-2.963,0.698-2.963,1.743
				c0,0.784,0.61,1.176,2.571,1.613l3.878,0.827c2.57,0.522,3.877,1.089,4.792,2.048c1.003,0.959,1.569,2.526,1.569,4.225
				c0,4.445-3.617,7.234-9.455,7.234c-5.838,0-9.454-2.746-9.803-7.408h5.795c0.349,2.004,1.655,2.919,4.139,2.919
				c1.96,0,3.224-0.784,3.224-2.048c0-1.001-0.698-1.525-2.353-1.916l-3.834-0.871c-4.619-1.003-6.405-2.702-6.405-6.058
				c0-4.225,3.354-6.797,8.975-6.797c5.404,0,8.671,2.441,9.237,6.885H394.841z"/>
			<path style="fill:#192833;" d="M445.869,74.611c0,8.845-5.882,14.947-14.379,14.947c-8.627,0-14.422-6.102-14.422-15.208
				c0-4.748,1.612-8.845,4.488-11.459c2.658-2.439,6.056-3.703,9.89-3.703C440.204,59.188,445.869,65.243,445.869,74.611z
				 M423.91,74.35c0,6.058,2.831,9.673,7.581,9.673c4.662,0,7.537-3.615,7.537-9.541c0-6.143-2.788-9.76-7.581-9.76
				C426.741,64.721,423.91,68.338,423.91,74.35z"/>
			<path style="fill:#192833;" d="M461.081,72.477h-4.009v16.426h-6.187V72.477h-2.919v-4.357h2.919v-1.525
				c0-4.532,2.222-6.754,6.796-6.754h3.4v4.923h-1.83c-1.438,0-2.178,0.654-2.178,1.874v1.482h4.009V72.477z"/>
			<path style="fill:#192833;" d="M475.896,72.477h-4.008v16.426h-6.187V72.477h-2.919v-4.357h2.919v-1.525
				c0-4.532,2.222-6.754,6.797-6.754h3.398v4.923h-1.829c-1.439,0-2.178,0.654-2.178,1.874v1.482h4.008V72.477z"/>
			<path style="fill:#192833;" d="M485.093,64.938h-6.187v-5.097h6.187V64.938z M485.093,88.904h-6.187V67.857h6.187V88.904z"/>
			<path style="fill:#192833;" d="M503.698,75.44c-0.348-2.006-1.743-3.139-3.833-3.139c-2.832,0-4.358,2.136-4.358,5.97
				c0,4.052,1.525,6.187,4.401,6.187c2.223,0,3.443-1.133,3.922-3.617l6.013,0.305c-0.872,5.316-4.531,8.323-10.108,8.323
				c-6.405,0-10.457-4.271-10.457-11.025c0-6.971,4.009-11.154,10.675-11.154c5.49,0,9.237,3.139,9.629,8.149H503.698z"/>
			<path style="fill:#192833;" d="M518.779,80.188c0.392,2.877,2.091,4.445,4.749,4.445c1.656,0,2.832-0.566,3.66-1.872h6.275
				c-1.176,4.096-5.099,6.71-10.109,6.71c-6.492,0-10.805-4.445-10.805-11.067c0-6.58,4.401-11.112,10.761-11.112
				c4.445,0,7.8,2.223,9.369,6.187c0.741,1.83,1.046,3.791,1.046,6.71H518.779z M527.362,75.831c-0.261-2.482-1.7-3.834-4.096-3.834
				c-2.397,0-3.965,1.352-4.445,3.834H527.362z"/>
		</g>
	</g>
</g>
</svg>
