<svg width="900" height="100" viewBox="0 0 900 100" fill="none" xmlns="http://www.w3.org/2000/svg">
<g id="timeline">
<rect width="900" height="100" fill="white"/>
<line id="line" x1="50" y1="27.5" x2="850" y2="27.5" stroke="black"/>
<g id="crisis-phase">
<circle id="Ellipse 14" cx="110" cy="28" r="19.5" fill="white" stroke="black"/>
<path id="Crisis" d="M92.72 86.16C91.3867 86.16 90.2333 85.8733 89.26 85.3C88.2867 84.7133 87.5333 83.88 87 82.8C86.48 81.7067 86.22 80.42 86.22 78.94C86.22 77.4733 86.48 76.2 87 75.12C87.5333 74.0267 88.2867 73.1933 89.26 72.62C90.2333 72.0333 91.3867 71.74 92.72 71.74C93.6133 71.74 94.4533 71.8867 95.24 72.18C96.04 72.46 96.7333 72.8667 97.32 73.4C97.5333 73.6 97.64 73.8333 97.64 74.1C97.64 74.2867 97.5867 74.4533 97.48 74.6C97.3733 74.7333 97.2467 74.8 97.1 74.8C96.94 74.8 96.7467 74.7267 96.52 74.58C95.84 74.0467 95.22 73.6733 94.66 73.46C94.1133 73.2467 93.48 73.14 92.76 73.14C91.2133 73.14 90.02 73.6467 89.18 74.66C88.3533 75.66 87.94 77.0867 87.94 78.94C87.94 80.8067 88.3533 82.2467 89.18 83.26C90.02 84.26 91.2133 84.76 92.76 84.76C93.4667 84.76 94.1 84.6533 94.66 84.44C95.22 84.2267 95.84 83.8533 96.52 83.32C96.7467 83.1733 96.94 83.1 97.1 83.1C97.2467 83.1 97.3733 83.1667 97.48 83.3C97.5867 83.4333 97.64 83.6 97.64 83.8C97.64 84.0667 97.5333 84.3 97.32 84.5C96.7333 85.0333 96.04 85.4467 95.24 85.74C94.4533 86.02 93.6133 86.16 92.72 86.16ZM104.855 76.06C105.415 76.02 105.695 76.2467 105.695 76.74C105.695 76.9533 105.635 77.1267 105.515 77.26C105.395 77.38 105.188 77.4533 104.895 77.48L104.295 77.54C103.402 77.62 102.735 77.94 102.295 78.5C101.868 79.0467 101.655 79.6933 101.655 80.44V85.3C101.655 85.5667 101.582 85.7667 101.435 85.9C101.288 86.0333 101.095 86.1 100.855 86.1C100.615 86.1 100.415 86.0333 100.255 85.9C100.108 85.7533 100.035 85.5533 100.035 85.3V76.86C100.035 76.6067 100.115 76.4133 100.275 76.28C100.435 76.1333 100.628 76.06 100.855 76.06C101.068 76.06 101.248 76.1333 101.395 76.28C101.542 76.4133 101.615 76.6 101.615 76.84V77.96C101.895 77.3733 102.288 76.9267 102.795 76.62C103.315 76.3133 103.908 76.1333 104.575 76.08L104.855 76.06ZM107.906 86.1C107.666 86.1 107.466 86.0333 107.306 85.9C107.159 85.7533 107.086 85.5533 107.086 85.3V76.86C107.086 76.6067 107.159 76.4133 107.306 76.28C107.466 76.1333 107.666 76.06 107.906 76.06C108.146 76.06 108.339 76.1333 108.486 76.28C108.633 76.4133 108.706 76.6067 108.706 76.86V85.3C108.706 85.5667 108.633 85.7667 108.486 85.9C108.339 86.0333 108.146 86.1 107.906 86.1ZM107.906 73.96C107.586 73.96 107.326 73.8667 107.126 73.68C106.926 73.4933 106.826 73.2467 106.826 72.94C106.826 72.6467 106.926 72.4067 107.126 72.22C107.326 72.0333 107.586 71.94 107.906 71.94C108.226 71.94 108.486 72.0333 108.686 72.22C108.886 72.4067 108.986 72.6467 108.986 72.94C108.986 73.2467 108.886 73.4933 108.686 73.68C108.486 73.8667 108.226 73.96 107.906 73.96ZM115.014 86.14C114.401 86.14 113.814 86.0667 113.254 85.92C112.708 85.7733 112.221 85.5667 111.794 85.3C111.554 85.14 111.381 84.9933 111.274 84.86C111.181 84.7133 111.134 84.54 111.134 84.34C111.134 84.1667 111.181 84.0267 111.274 83.92C111.381 83.8 111.514 83.74 111.674 83.74C111.834 83.74 112.068 83.84 112.374 84.04C112.774 84.28 113.168 84.4733 113.554 84.62C113.954 84.7533 114.448 84.82 115.034 84.82C115.754 84.82 116.314 84.6933 116.714 84.44C117.114 84.1867 117.314 83.82 117.314 83.34C117.314 83.0467 117.241 82.8133 117.094 82.64C116.948 82.4533 116.694 82.2933 116.334 82.16C115.974 82.0133 115.448 81.8667 114.754 81.72C113.581 81.4667 112.741 81.1267 112.234 80.7C111.728 80.2733 111.474 79.6933 111.474 78.96C111.474 78.3867 111.634 77.88 111.954 77.44C112.274 77 112.714 76.6533 113.274 76.4C113.848 76.1467 114.494 76.02 115.214 76.02C115.734 76.02 116.234 76.0933 116.714 76.24C117.208 76.3733 117.641 76.5667 118.014 76.82C118.468 77.14 118.694 77.4733 118.694 77.82C118.694 77.9933 118.641 78.14 118.534 78.26C118.428 78.38 118.301 78.44 118.154 78.44C117.994 78.44 117.754 78.3267 117.434 78.1C117.061 77.86 116.708 77.6733 116.374 77.54C116.041 77.4067 115.628 77.34 115.134 77.34C114.508 77.34 114.001 77.48 113.614 77.76C113.241 78.04 113.054 78.4133 113.054 78.88C113.054 79.1733 113.121 79.4133 113.254 79.6C113.401 79.7733 113.634 79.9333 113.954 80.08C114.288 80.2133 114.761 80.3467 115.374 80.48C116.281 80.68 116.981 80.9 117.474 81.14C117.981 81.38 118.341 81.6733 118.554 82.02C118.768 82.3667 118.874 82.8067 118.874 83.34C118.874 84.18 118.521 84.86 117.814 85.38C117.108 85.8867 116.174 86.14 115.014 86.14ZM122.164 86.1C121.924 86.1 121.724 86.0333 121.564 85.9C121.417 85.7533 121.344 85.5533 121.344 85.3V76.86C121.344 76.6067 121.417 76.4133 121.564 76.28C121.724 76.1333 121.924 76.06 122.164 76.06C122.404 76.06 122.597 76.1333 122.744 76.28C122.89 76.4133 122.964 76.6067 122.964 76.86V85.3C122.964 85.5667 122.89 85.7667 122.744 85.9C122.597 86.0333 122.404 86.1 122.164 86.1ZM122.164 73.96C121.844 73.96 121.584 73.8667 121.384 73.68C121.184 73.4933 121.084 73.2467 121.084 72.94C121.084 72.6467 121.184 72.4067 121.384 72.22C121.584 72.0333 121.844 71.94 122.164 71.94C122.484 71.94 122.744 72.0333 122.944 72.22C123.144 72.4067 123.244 72.6467 123.244 72.94C123.244 73.2467 123.144 73.4933 122.944 73.68C122.744 73.8667 122.484 73.96 122.164 73.96ZM129.272 86.14C128.659 86.14 128.072 86.0667 127.512 85.92C126.966 85.7733 126.479 85.5667 126.052 85.3C125.812 85.14 125.639 84.9933 125.532 84.86C125.439 84.7133 125.392 84.54 125.392 84.34C125.392 84.1667 125.439 84.0267 125.532 83.92C125.639 83.8 125.772 83.74 125.932 83.74C126.092 83.74 126.326 83.84 126.632 84.04C127.032 84.28 127.426 84.4733 127.812 84.62C128.212 84.7533 128.706 84.82 129.292 84.82C130.012 84.82 130.572 84.6933 130.972 84.44C131.372 84.1867 131.572 83.82 131.572 83.34C131.572 83.0467 131.499 82.8133 131.352 82.64C131.206 82.4533 130.952 82.2933 130.592 82.16C130.232 82.0133 129.706 81.8667 129.012 81.72C127.839 81.4667 126.999 81.1267 126.492 80.7C125.986 80.2733 125.732 79.6933 125.732 78.96C125.732 78.3867 125.892 77.88 126.212 77.44C126.532 77 126.972 76.6533 127.532 76.4C128.106 76.1467 128.752 76.02 129.472 76.02C129.992 76.02 130.492 76.0933 130.972 76.24C131.466 76.3733 131.899 76.5667 132.272 76.82C132.726 77.14 132.952 77.4733 132.952 77.82C132.952 77.9933 132.899 78.14 132.792 78.26C132.686 78.38 132.559 78.44 132.412 78.44C132.252 78.44 132.012 78.3267 131.692 78.1C131.319 77.86 130.966 77.6733 130.632 77.54C130.299 77.4067 129.886 77.34 129.392 77.34C128.766 77.34 128.259 77.48 127.872 77.76C127.499 78.04 127.312 78.4133 127.312 78.88C127.312 79.1733 127.379 79.4133 127.512 79.6C127.659 79.7733 127.892 79.9333 128.212 80.08C128.546 80.2133 129.019 80.3467 129.632 80.48C130.539 80.68 131.239 80.9 131.732 81.14C132.239 81.38 132.599 81.6733 132.812 82.02C133.026 82.3667 133.132 82.8067 133.132 83.34C133.132 84.18 132.779 84.86 132.072 85.38C131.366 85.8867 130.432 86.14 129.272 86.14Z" fill="black"/>
</g>
<g id="using-phase">
<circle id="Ellipse 16" cx="328" cy="28" r="19.5" fill="white" stroke="black"/>
<path id="Using" d="M309.24 86.16C307.4 86.16 306.007 85.68 305.06 84.72C304.113 83.76 303.64 82.3467 303.64 80.48V72.64C303.64 72.3867 303.713 72.1867 303.86 72.04C304.007 71.88 304.207 71.8 304.46 71.8C304.7 71.8 304.893 71.88 305.04 72.04C305.187 72.1867 305.26 72.3867 305.26 72.64V80.62C305.26 81.9933 305.593 83.0267 306.26 83.72C306.94 84.4133 307.933 84.76 309.24 84.76C310.547 84.76 311.533 84.4133 312.2 83.72C312.867 83.0267 313.2 81.9933 313.2 80.62V72.64C313.2 72.3867 313.273 72.1867 313.42 72.04C313.58 71.88 313.78 71.8 314.02 71.8C314.273 71.8 314.473 71.88 314.62 72.04C314.767 72.1867 314.84 72.3867 314.84 72.64V80.48C314.84 82.3333 314.36 83.7467 313.4 84.72C312.453 85.68 311.067 86.16 309.24 86.16ZM321.253 86.14C320.639 86.14 320.053 86.0667 319.493 85.92C318.946 85.7733 318.459 85.5667 318.033 85.3C317.793 85.14 317.619 84.9933 317.513 84.86C317.419 84.7133 317.373 84.54 317.373 84.34C317.373 84.1667 317.419 84.0267 317.513 83.92C317.619 83.8 317.753 83.74 317.913 83.74C318.073 83.74 318.306 83.84 318.613 84.04C319.013 84.28 319.406 84.4733 319.793 84.62C320.193 84.7533 320.686 84.82 321.273 84.82C321.993 84.82 322.553 84.6933 322.953 84.44C323.353 84.1867 323.553 83.82 323.553 83.34C323.553 83.0467 323.479 82.8133 323.333 82.64C323.186 82.4533 322.933 82.2933 322.573 82.16C322.213 82.0133 321.686 81.8667 320.993 81.72C319.819 81.4667 318.979 81.1267 318.473 80.7C317.966 80.2733 317.713 79.6933 317.713 78.96C317.713 78.3867 317.873 77.88 318.193 77.44C318.513 77 318.953 76.6533 319.513 76.4C320.086 76.1467 320.733 76.02 321.453 76.02C321.973 76.02 322.473 76.0933 322.953 76.24C323.446 76.3733 323.879 76.5667 324.253 76.82C324.706 77.14 324.933 77.4733 324.933 77.82C324.933 77.9933 324.879 78.14 324.773 78.26C324.666 78.38 324.539 78.44 324.393 78.44C324.233 78.44 323.993 78.3267 323.673 78.1C323.299 77.86 322.946 77.6733 322.613 77.54C322.279 77.4067 321.866 77.34 321.373 77.34C320.746 77.34 320.239 77.48 319.853 77.76C319.479 78.04 319.293 78.4133 319.293 78.88C319.293 79.1733 319.359 79.4133 319.493 79.6C319.639 79.7733 319.873 79.9333 320.193 80.08C320.526 80.2133 320.999 80.3467 321.613 80.48C322.519 80.68 323.219 80.9 323.713 81.14C324.219 81.38 324.579 81.6733 324.793 82.02C325.006 82.3667 325.113 82.8067 325.113 83.34C325.113 84.18 324.759 84.86 324.053 85.38C323.346 85.8867 322.413 86.14 321.253 86.14ZM328.402 86.1C328.162 86.1 327.962 86.0333 327.802 85.9C327.655 85.7533 327.582 85.5533 327.582 85.3V76.86C327.582 76.6067 327.655 76.4133 327.802 76.28C327.962 76.1333 328.162 76.06 328.402 76.06C328.642 76.06 328.835 76.1333 328.982 76.28C329.129 76.4133 329.202 76.6067 329.202 76.86V85.3C329.202 85.5667 329.129 85.7667 328.982 85.9C328.835 86.0333 328.642 86.1 328.402 86.1ZM328.402 73.96C328.082 73.96 327.822 73.8667 327.622 73.68C327.422 73.4933 327.322 73.2467 327.322 72.94C327.322 72.6467 327.422 72.4067 327.622 72.22C327.822 72.0333 328.082 71.94 328.402 71.94C328.722 71.94 328.982 72.0333 329.182 72.22C329.382 72.4067 329.482 72.6467 329.482 72.94C329.482 73.2467 329.382 73.4933 329.182 73.68C328.982 73.8667 328.722 73.96 328.402 73.96ZM337.13 76.02C339.464 76.02 340.63 77.3067 340.63 79.88V85.3C340.63 85.5533 340.557 85.7533 340.41 85.9C340.277 86.0333 340.084 86.1 339.83 86.1C339.577 86.1 339.377 86.0333 339.23 85.9C339.084 85.7533 339.01 85.5533 339.01 85.3V79.98C339.01 79.0733 338.83 78.4133 338.47 78C338.124 77.5867 337.564 77.38 336.79 77.38C335.897 77.38 335.184 77.6533 334.65 78.2C334.117 78.7467 333.85 79.4867 333.85 80.42V85.3C333.85 85.5533 333.777 85.7533 333.63 85.9C333.497 86.0333 333.304 86.1 333.05 86.1C332.797 86.1 332.597 86.0333 332.45 85.9C332.304 85.7533 332.23 85.5533 332.23 85.3V76.86C332.23 76.62 332.304 76.4267 332.45 76.28C332.597 76.1333 332.797 76.06 333.05 76.06C333.29 76.06 333.477 76.1333 333.61 76.28C333.757 76.4267 333.83 76.6133 333.83 76.84V77.86C334.15 77.26 334.597 76.8067 335.17 76.5C335.744 76.18 336.397 76.02 337.13 76.02ZM351.498 76.06C351.751 76.06 351.951 76.1333 352.098 76.28C352.244 76.4267 352.318 76.62 352.318 76.86V85.34C352.318 86.7933 351.944 87.8867 351.198 88.62C350.451 89.3667 349.344 89.74 347.878 89.74C346.451 89.74 345.264 89.46 344.318 88.9C343.838 88.6333 343.598 88.3267 343.598 87.98C343.598 87.7933 343.644 87.64 343.738 87.52C343.844 87.4 343.978 87.34 344.138 87.34C344.271 87.34 344.511 87.4333 344.858 87.62C345.324 87.86 345.784 88.0533 346.238 88.2C346.691 88.3467 347.231 88.42 347.858 88.42C348.804 88.42 349.518 88.1667 349.998 87.66C350.478 87.1667 350.718 86.44 350.718 85.48V83.76C350.438 84.3867 350.004 84.8667 349.418 85.2C348.844 85.5333 348.164 85.7 347.378 85.7C346.524 85.7 345.764 85.5 345.098 85.1C344.444 84.7 343.931 84.1333 343.558 83.4C343.198 82.6667 343.018 81.82 343.018 80.86C343.018 79.9 343.198 79.0533 343.558 78.32C343.931 77.5867 344.444 77.02 345.098 76.62C345.764 76.22 346.524 76.02 347.378 76.02C348.151 76.02 348.824 76.1867 349.398 76.52C349.971 76.8533 350.404 77.3267 350.698 77.94V76.86C350.698 76.62 350.764 76.4267 350.898 76.28C351.044 76.1333 351.244 76.06 351.498 76.06ZM347.698 84.36C348.631 84.36 349.364 84.0533 349.898 83.44C350.431 82.8133 350.698 81.9533 350.698 80.86C350.698 79.78 350.431 78.9333 349.898 78.32C349.378 77.6933 348.644 77.38 347.698 77.38C346.751 77.38 346.004 77.6933 345.458 78.32C344.924 78.9333 344.658 79.78 344.658 80.86C344.658 81.9533 344.924 82.8133 345.458 83.44C346.004 84.0533 346.751 84.36 347.698 84.36Z" fill="black"/>
</g>
<g id="treatment-phase">
<circle id="Ellipse 17" cx="556.66" cy="28" r="19.5" fill="white" stroke="black"/>
<path id="Treatment" d="M517.98 86.1C517.727 86.1 517.52 86.0267 517.36 85.88C517.213 85.72 517.14 85.5133 517.14 85.26V73.3H512.84C512.6 73.3 512.413 73.24 512.28 73.12C512.147 73 512.08 72.8267 512.08 72.6C512.08 72.3733 512.147 72.2 512.28 72.08C512.413 71.96 512.6 71.9 512.84 71.9H523.1C523.34 71.9 523.527 71.96 523.66 72.08C523.793 72.2 523.86 72.3733 523.86 72.6C523.86 72.8267 523.793 73 523.66 73.12C523.527 73.24 523.34 73.3 523.1 73.3H518.8V85.26C518.8 85.5133 518.727 85.72 518.58 85.88C518.433 86.0267 518.233 86.1 517.98 86.1ZM528.75 76.06C529.31 76.02 529.59 76.2467 529.59 76.74C529.59 76.9533 529.53 77.1267 529.41 77.26C529.29 77.38 529.083 77.4533 528.79 77.48L528.19 77.54C527.296 77.62 526.63 77.94 526.19 78.5C525.763 79.0467 525.55 79.6933 525.55 80.44V85.3C525.55 85.5667 525.476 85.7667 525.33 85.9C525.183 86.0333 524.99 86.1 524.75 86.1C524.51 86.1 524.31 86.0333 524.15 85.9C524.003 85.7533 523.93 85.5533 523.93 85.3V76.86C523.93 76.6067 524.01 76.4133 524.17 76.28C524.33 76.1333 524.523 76.06 524.75 76.06C524.963 76.06 525.143 76.1333 525.29 76.28C525.436 76.4133 525.51 76.6 525.51 76.84V77.96C525.79 77.3733 526.183 76.9267 526.69 76.62C527.21 76.3133 527.803 76.1333 528.47 76.08L528.75 76.06ZM538.325 83.74C538.472 83.74 538.598 83.8 538.705 83.92C538.812 84.04 538.865 84.1933 538.865 84.38C538.865 84.7133 538.632 85.02 538.165 85.3C537.685 85.58 537.178 85.7933 536.645 85.94C536.112 86.0733 535.592 86.14 535.085 86.14C533.578 86.14 532.385 85.6933 531.505 84.8C530.638 83.9067 530.205 82.6733 530.205 81.1C530.205 80.1 530.398 79.22 530.785 78.46C531.172 77.6867 531.712 77.0867 532.405 76.66C533.112 76.2333 533.912 76.02 534.805 76.02C536.072 76.02 537.078 76.4333 537.825 77.26C538.572 78.0867 538.945 79.2067 538.945 80.62C538.945 80.8867 538.892 81.08 538.785 81.2C538.678 81.32 538.505 81.38 538.265 81.38H531.825C531.945 83.6733 533.032 84.82 535.085 84.82C535.605 84.82 536.052 84.7533 536.425 84.62C536.798 84.4733 537.198 84.28 537.625 84.04C537.972 83.84 538.205 83.74 538.325 83.74ZM534.825 77.28C533.972 77.28 533.285 77.5467 532.765 78.08C532.258 78.6133 531.958 79.3667 531.865 80.34H537.525C537.498 79.3533 537.252 78.6 536.785 78.08C536.318 77.5467 535.665 77.28 534.825 77.28ZM545.312 76.02C547.752 76.02 548.972 77.3 548.972 79.86V85.3C548.972 85.54 548.899 85.7333 548.752 85.88C548.619 86.0267 548.432 86.1 548.192 86.1C547.952 86.1 547.759 86.0267 547.612 85.88C547.465 85.7333 547.392 85.54 547.392 85.3V84.34C547.139 84.9133 546.752 85.36 546.232 85.68C545.712 85.9867 545.112 86.14 544.432 86.14C543.805 86.14 543.225 86.0133 542.692 85.76C542.172 85.5067 541.759 85.1533 541.452 84.7C541.145 84.2467 540.992 83.7467 540.992 83.2C540.992 82.4667 541.179 81.9 541.552 81.5C541.925 81.0867 542.539 80.7933 543.392 80.62C544.245 80.4333 545.432 80.34 546.952 80.34H547.392V79.68C547.392 78.88 547.225 78.2933 546.892 77.92C546.572 77.5467 546.045 77.36 545.312 77.36C544.405 77.36 543.485 77.6067 542.552 78.1C542.192 78.3267 541.939 78.44 541.792 78.44C541.632 78.44 541.499 78.38 541.392 78.26C541.285 78.14 541.232 77.9867 541.232 77.8C541.232 77.6133 541.285 77.4533 541.392 77.32C541.512 77.1733 541.699 77.0267 541.952 76.88C542.419 76.6133 542.945 76.4067 543.532 76.26C544.132 76.1 544.725 76.02 545.312 76.02ZM544.652 84.86C545.452 84.86 546.105 84.5933 546.612 84.06C547.132 83.5133 547.392 82.8133 547.392 81.96V81.38H547.032C545.859 81.38 544.965 81.4333 544.352 81.54C543.739 81.6333 543.299 81.8 543.032 82.04C542.779 82.2667 542.652 82.6067 542.652 83.06C542.652 83.58 542.839 84.0133 543.212 84.36C543.599 84.6933 544.079 84.86 544.652 84.86ZM556.438 84.82C556.904 84.86 557.138 85.0733 557.138 85.46C557.138 85.6867 557.051 85.86 556.878 85.98C556.718 86.0867 556.471 86.1267 556.138 86.1L555.598 86.06C554.531 85.98 553.744 85.66 553.238 85.1C552.731 84.54 552.478 83.6933 552.478 82.56V77.54H551.138C550.911 77.54 550.731 77.4867 550.598 77.38C550.478 77.26 550.417 77.1067 550.417 76.92C550.417 76.72 550.478 76.56 550.598 76.44C550.731 76.32 550.911 76.26 551.138 76.26H552.478V74C552.478 73.7467 552.551 73.5533 552.698 73.42C552.844 73.2733 553.044 73.2 553.298 73.2C553.538 73.2 553.731 73.2733 553.878 73.42C554.024 73.5533 554.098 73.7467 554.098 74V76.26H556.317C556.531 76.26 556.698 76.32 556.818 76.44C556.951 76.56 557.018 76.72 557.018 76.92C557.018 77.1067 556.951 77.26 556.818 77.38C556.698 77.4867 556.531 77.54 556.317 77.54H554.098V82.64C554.098 83.3733 554.244 83.9067 554.538 84.24C554.844 84.56 555.298 84.74 555.898 84.78L556.438 84.82ZM569.574 76.02C571.734 76.02 572.814 77.3067 572.814 79.88V85.3C572.814 85.5533 572.741 85.7533 572.594 85.9C572.448 86.0333 572.254 86.1 572.014 86.1C571.774 86.1 571.574 86.0333 571.414 85.9C571.268 85.7533 571.194 85.5533 571.194 85.3V79.92C571.194 79.0267 571.034 78.38 570.714 77.98C570.394 77.58 569.894 77.38 569.214 77.38C568.401 77.38 567.761 77.6533 567.294 78.2C566.828 78.7467 566.594 79.4867 566.594 80.42V85.3C566.594 85.5533 566.514 85.7533 566.354 85.9C566.208 86.0333 566.014 86.1 565.774 86.1C565.534 86.1 565.341 86.0333 565.194 85.9C565.048 85.7533 564.974 85.5533 564.974 85.3V79.92C564.974 79.0267 564.814 78.38 564.494 77.98C564.174 77.58 563.668 77.38 562.974 77.38C562.174 77.38 561.534 77.6533 561.054 78.2C560.588 78.7467 560.354 79.4867 560.354 80.42V85.3C560.354 85.5533 560.281 85.7533 560.134 85.9C559.988 86.0333 559.794 86.1 559.554 86.1C559.314 86.1 559.114 86.0333 558.954 85.9C558.808 85.7533 558.734 85.5533 558.734 85.3V76.86C558.734 76.62 558.808 76.4267 558.954 76.28C559.114 76.1333 559.314 76.06 559.554 76.06C559.781 76.06 559.968 76.1333 560.114 76.28C560.261 76.4133 560.334 76.6 560.334 76.84V77.8C560.628 77.2267 561.034 76.7867 561.554 76.48C562.074 76.1733 562.674 76.02 563.354 76.02C564.874 76.02 565.868 76.66 566.334 77.94C566.614 77.3533 567.041 76.8867 567.614 76.54C568.188 76.1933 568.841 76.02 569.574 76.02ZM583.306 83.74C583.452 83.74 583.579 83.8 583.686 83.92C583.792 84.04 583.846 84.1933 583.846 84.38C583.846 84.7133 583.612 85.02 583.146 85.3C582.666 85.58 582.159 85.7933 581.626 85.94C581.092 86.0733 580.572 86.14 580.066 86.14C578.559 86.14 577.366 85.6933 576.486 84.8C575.619 83.9067 575.186 82.6733 575.186 81.1C575.186 80.1 575.379 79.22 575.766 78.46C576.152 77.6867 576.692 77.0867 577.386 76.66C578.092 76.2333 578.892 76.02 579.786 76.02C581.052 76.02 582.059 76.4333 582.806 77.26C583.552 78.0867 583.926 79.2067 583.926 80.62C583.926 80.8867 583.872 81.08 583.766 81.2C583.659 81.32 583.486 81.38 583.246 81.38H576.806C576.926 83.6733 578.012 84.82 580.066 84.82C580.586 84.82 581.032 84.7533 581.406 84.62C581.779 84.4733 582.179 84.28 582.606 84.04C582.952 83.84 583.186 83.74 583.306 83.74ZM579.806 77.28C578.952 77.28 578.266 77.5467 577.746 78.08C577.239 78.6133 576.939 79.3667 576.846 80.34H582.506C582.479 79.3533 582.232 78.6 581.766 78.08C581.299 77.5467 580.646 77.28 579.806 77.28ZM591.213 76.02C593.546 76.02 594.713 77.3067 594.713 79.88V85.3C594.713 85.5533 594.639 85.7533 594.493 85.9C594.359 86.0333 594.166 86.1 593.913 86.1C593.659 86.1 593.459 86.0333 593.313 85.9C593.166 85.7533 593.093 85.5533 593.093 85.3V79.98C593.093 79.0733 592.913 78.4133 592.553 78C592.206 77.5867 591.646 77.38 590.873 77.38C589.979 77.38 589.266 77.6533 588.733 78.2C588.199 78.7467 587.933 79.4867 587.933 80.42V85.3C587.933 85.5533 587.859 85.7533 587.713 85.9C587.579 86.0333 587.386 86.1 587.133 86.1C586.879 86.1 586.679 86.0333 586.533 85.9C586.386 85.7533 586.313 85.5533 586.313 85.3V76.86C586.313 76.62 586.386 76.4267 586.533 76.28C586.679 76.1333 586.879 76.06 587.133 76.06C587.373 76.06 587.559 76.1333 587.693 76.28C587.839 76.4267 587.913 76.6133 587.913 76.84V77.86C588.233 77.26 588.679 76.8067 589.253 76.5C589.826 76.18 590.479 76.02 591.213 76.02ZM602.18 84.82C602.646 84.86 602.88 85.0733 602.88 85.46C602.88 85.6867 602.793 85.86 602.62 85.98C602.46 86.0867 602.213 86.1267 601.88 86.1L601.34 86.06C600.273 85.98 599.486 85.66 598.98 85.1C598.473 84.54 598.22 83.6933 598.22 82.56V77.54H596.88C596.653 77.54 596.473 77.4867 596.34 77.38C596.22 77.26 596.16 77.1067 596.16 76.92C596.16 76.72 596.22 76.56 596.34 76.44C596.473 76.32 596.653 76.26 596.88 76.26H598.22V74C598.22 73.7467 598.293 73.5533 598.44 73.42C598.586 73.2733 598.786 73.2 599.04 73.2C599.28 73.2 599.473 73.2733 599.62 73.42C599.766 73.5533 599.84 73.7467 599.84 74V76.26H602.06C602.273 76.26 602.44 76.32 602.56 76.44C602.693 76.56 602.76 76.72 602.76 76.92C602.76 77.1067 602.693 77.26 602.56 77.38C602.44 77.4867 602.273 77.54 602.06 77.54H599.84V82.64C599.84 83.3733 599.986 83.9067 600.28 84.24C600.586 84.56 601.04 84.74 601.64 84.78L602.18 84.82Z" fill="black"/>
</g>
<g id="recovery-phase">
<circle id="Ellipse 15" cx="780" cy="28" r="19.5" fill="white" stroke="black"/>
<path id="Recovery" d="M750.5 84.98C750.593 85.1267 750.64 85.28 750.64 85.44C750.64 85.64 750.56 85.8067 750.4 85.94C750.253 86.06 750.08 86.12 749.88 86.12C749.573 86.12 749.333 85.9867 749.16 85.72L746.48 81.48C746.133 80.9333 745.773 80.56 745.4 80.36C745.027 80.1467 744.52 80.04 743.88 80.04H741.36V85.26C741.36 85.5133 741.287 85.72 741.14 85.88C740.993 86.0267 740.8 86.1 740.56 86.1C740.307 86.1 740.107 86.0267 739.96 85.88C739.813 85.72 739.74 85.5133 739.74 85.26V72.7C739.74 72.46 739.813 72.2667 739.96 72.12C740.12 71.9733 740.327 71.9 740.58 71.9H745.54C747.073 71.9 748.24 72.24 749.04 72.92C749.853 73.6 750.26 74.6 750.26 75.92C750.26 77.04 749.933 77.94 749.28 78.62C748.64 79.3 747.72 79.7133 746.52 79.86C746.853 79.9667 747.153 80.14 747.42 80.38C747.687 80.62 747.953 80.9533 748.22 81.38L750.5 84.98ZM745.4 78.68C746.493 78.68 747.307 78.4533 747.84 78C748.387 77.5467 748.66 76.86 748.66 75.94C748.66 75.0333 748.393 74.36 747.86 73.92C747.327 73.48 746.507 73.26 745.4 73.26H741.36V78.68H745.4ZM760.751 83.74C760.898 83.74 761.024 83.8 761.131 83.92C761.238 84.04 761.291 84.1933 761.291 84.38C761.291 84.7133 761.058 85.02 760.591 85.3C760.111 85.58 759.604 85.7933 759.071 85.94C758.538 86.0733 758.018 86.14 757.511 86.14C756.004 86.14 754.811 85.6933 753.931 84.8C753.064 83.9067 752.631 82.6733 752.631 81.1C752.631 80.1 752.824 79.22 753.211 78.46C753.598 77.6867 754.138 77.0867 754.831 76.66C755.538 76.2333 756.338 76.02 757.231 76.02C758.498 76.02 759.504 76.4333 760.251 77.26C760.998 78.0867 761.371 79.2067 761.371 80.62C761.371 80.8867 761.318 81.08 761.211 81.2C761.104 81.32 760.931 81.38 760.691 81.38H754.251C754.371 83.6733 755.458 84.82 757.511 84.82C758.031 84.82 758.478 84.7533 758.851 84.62C759.224 84.4733 759.624 84.28 760.051 84.04C760.398 83.84 760.631 83.74 760.751 83.74ZM757.251 77.28C756.398 77.28 755.711 77.5467 755.191 78.08C754.684 78.6133 754.384 79.3667 754.291 80.34H759.951C759.924 79.3533 759.678 78.6 759.211 78.08C758.744 77.5467 758.091 77.28 757.251 77.28ZM767.778 86.14C766.871 86.14 766.064 85.9333 765.358 85.52C764.664 85.1067 764.124 84.52 763.738 83.76C763.364 83 763.178 82.12 763.178 81.12C763.178 80.12 763.371 79.2333 763.758 78.46C764.158 77.6867 764.711 77.0867 765.418 76.66C766.124 76.2333 766.938 76.02 767.858 76.02C768.364 76.02 768.864 76.0933 769.358 76.24C769.864 76.3733 770.304 76.5733 770.678 76.84C770.918 77 771.084 77.16 771.178 77.32C771.284 77.4667 771.338 77.6333 771.338 77.82C771.338 78.0067 771.284 78.16 771.178 78.28C771.084 78.4 770.958 78.46 770.798 78.46C770.704 78.46 770.604 78.4333 770.498 78.38C770.391 78.3267 770.298 78.2733 770.218 78.22C770.151 78.1667 770.104 78.1333 770.078 78.12C769.731 77.8933 769.398 77.7133 769.078 77.58C768.771 77.4467 768.391 77.38 767.938 77.38C766.964 77.38 766.204 77.7133 765.658 78.38C765.124 79.0333 764.858 79.9467 764.858 81.12C764.858 82.2933 765.124 83.2 765.658 83.84C766.204 84.48 766.964 84.8 767.938 84.8C768.391 84.8 768.778 84.7333 769.098 84.6C769.431 84.4667 769.764 84.2867 770.098 84.06C770.244 83.9667 770.384 83.8867 770.518 83.82C770.651 83.7533 770.764 83.72 770.858 83.72C771.004 83.72 771.124 83.78 771.218 83.9C771.324 84.02 771.378 84.1733 771.378 84.36C771.378 84.5333 771.331 84.6933 771.238 84.84C771.144 84.9733 770.971 85.1267 770.718 85.3C770.344 85.5533 769.891 85.76 769.358 85.92C768.838 86.0667 768.311 86.14 767.778 86.14ZM777.368 86.14C776.448 86.14 775.635 85.9333 774.928 85.52C774.235 85.1067 773.695 84.52 773.308 83.76C772.935 82.9867 772.748 82.0933 772.748 81.08C772.748 80.0667 772.935 79.18 773.308 78.42C773.695 77.6467 774.235 77.0533 774.928 76.64C775.635 76.2267 776.448 76.02 777.368 76.02C778.288 76.02 779.101 76.2267 779.808 76.64C780.515 77.0533 781.055 77.6467 781.428 78.42C781.815 79.18 782.008 80.0667 782.008 81.08C782.008 82.0933 781.815 82.9867 781.428 83.76C781.055 84.52 780.515 85.1067 779.808 85.52C779.101 85.9333 778.288 86.14 777.368 86.14ZM777.368 84.8C778.328 84.8 779.061 84.4867 779.568 83.86C780.088 83.22 780.348 82.2933 780.348 81.08C780.348 79.8933 780.088 78.98 779.568 78.34C779.048 77.6867 778.315 77.36 777.368 77.36C776.421 77.36 775.688 77.6867 775.168 78.34C774.648 78.98 774.388 79.8933 774.388 81.08C774.388 82.28 774.641 83.2 775.148 83.84C775.668 84.48 776.408 84.8 777.368 84.8ZM791.325 76.56C791.471 76.24 791.705 76.08 792.025 76.08C792.225 76.08 792.405 76.1467 792.565 76.28C792.725 76.4133 792.805 76.58 792.805 76.78C792.805 76.9 792.778 77.0067 792.725 77.1L788.825 85.5C788.745 85.6733 788.625 85.8133 788.465 85.92C788.305 86.0133 788.131 86.06 787.945 86.06C787.771 86.06 787.605 86.0133 787.445 85.92C787.285 85.8133 787.158 85.6733 787.065 85.5L783.185 77.1C783.131 77.0067 783.105 76.9067 783.105 76.8C783.105 76.6 783.191 76.4267 783.365 76.28C783.551 76.1333 783.751 76.06 783.965 76.06C784.098 76.06 784.225 76.1 784.345 76.18C784.478 76.26 784.578 76.3733 784.645 76.52L787.985 84.02L791.325 76.56ZM802.001 83.74C802.148 83.74 802.274 83.8 802.381 83.92C802.488 84.04 802.541 84.1933 802.541 84.38C802.541 84.7133 802.308 85.02 801.841 85.3C801.361 85.58 800.854 85.7933 800.321 85.94C799.788 86.0733 799.268 86.14 798.761 86.14C797.254 86.14 796.061 85.6933 795.181 84.8C794.314 83.9067 793.881 82.6733 793.881 81.1C793.881 80.1 794.074 79.22 794.461 78.46C794.848 77.6867 795.388 77.0867 796.081 76.66C796.788 76.2333 797.588 76.02 798.481 76.02C799.748 76.02 800.754 76.4333 801.501 77.26C802.248 78.0867 802.621 79.2067 802.621 80.62C802.621 80.8867 802.568 81.08 802.461 81.2C802.354 81.32 802.181 81.38 801.941 81.38H795.501C795.621 83.6733 796.708 84.82 798.761 84.82C799.281 84.82 799.728 84.7533 800.101 84.62C800.474 84.4733 800.874 84.28 801.301 84.04C801.648 83.84 801.881 83.74 802.001 83.74ZM798.501 77.28C797.648 77.28 796.961 77.5467 796.441 78.08C795.934 78.6133 795.634 79.3667 795.541 80.34H801.201C801.174 79.3533 800.928 78.6 800.461 78.08C799.994 77.5467 799.341 77.28 798.501 77.28ZM809.828 76.06C810.388 76.02 810.668 76.2467 810.668 76.74C810.668 76.9533 810.608 77.1267 810.488 77.26C810.368 77.38 810.161 77.4533 809.868 77.48L809.268 77.54C808.374 77.62 807.708 77.94 807.268 78.5C806.841 79.0467 806.628 79.6933 806.628 80.44V85.3C806.628 85.5667 806.554 85.7667 806.408 85.9C806.261 86.0333 806.068 86.1 805.828 86.1C805.588 86.1 805.388 86.0333 805.228 85.9C805.081 85.7533 805.008 85.5533 805.008 85.3V76.86C805.008 76.6067 805.088 76.4133 805.248 76.28C805.408 76.1333 805.601 76.06 805.828 76.06C806.041 76.06 806.221 76.1333 806.368 76.28C806.514 76.4133 806.588 76.6 806.588 76.84V77.96C806.868 77.3733 807.261 76.9267 807.768 76.62C808.288 76.3133 808.881 76.1333 809.548 76.08L809.828 76.06ZM819.684 76.56C819.831 76.24 820.064 76.08 820.384 76.08C820.584 76.08 820.764 76.1467 820.924 76.28C821.084 76.4133 821.164 76.58 821.164 76.78C821.164 76.9 821.137 77.0067 821.084 77.1L815.464 89.22C815.397 89.3667 815.297 89.48 815.164 89.56C815.044 89.64 814.917 89.68 814.784 89.68C814.584 89.68 814.404 89.6133 814.244 89.48C814.097 89.36 814.024 89.2 814.024 89C814.024 88.8933 814.051 88.7867 814.104 88.68L815.504 85.66L811.544 77.1C811.491 77.0067 811.464 76.9067 811.464 76.8C811.464 76.6 811.551 76.4267 811.724 76.28C811.911 76.1333 812.111 76.06 812.324 76.06C812.457 76.06 812.584 76.1 812.704 76.18C812.837 76.26 812.937 76.3733 813.004 76.52L816.344 84.02L819.684 76.56Z" fill="black"/>
</g>
</g>
</svg>
