<svg width="900" height="100" viewBox="0 0 900 100" fill="none" xmlns="http://www.w3.org/2000/svg">
<g id="timeline">
<rect width="900" height="100" fill="white"/>
<rect id="progress-crisis" x="31" y="27" width="70" height="11" fill="#C4C4C4"/>
<rect id="progress-using" x="101" y="28" width="218" height="10" fill="#C4C4C4"/>
<rect id="progress-treatment" x="319" y="28" width="229" height="10" fill="#C4C4C4"/>
<rect id="progress-recovery" x="548" y="28" width="225" height="10" fill="#C4C4C4"/>
<rect id="progress-recovery_2" x="773" y="28" width="68" height="10" fill="#C4C4C4"/>
<line id="line" x1="31" y1="27.5" x2="841" y2="27.4999" stroke="black"/>
<line id="line_2" x1="41" y1="37.5" x2="841" y2="37.5" stroke="black"/>
<g id="crisis-phase">
<path id="Crisis" d="M83.72 82.16C82.3867 82.16 81.2333 81.8733 80.26 81.3C79.2867 80.7133 78.5333 79.88 78 78.8C77.48 77.7067 77.22 76.42 77.22 74.94C77.22 73.4733 77.48 72.2 78 71.12C78.5333 70.0267 79.2867 69.1933 80.26 68.62C81.2333 68.0333 82.3867 67.74 83.72 67.74C84.6133 67.74 85.4533 67.8867 86.24 68.18C87.04 68.46 87.7333 68.8667 88.32 69.4C88.5333 69.6 88.64 69.8333 88.64 70.1C88.64 70.2867 88.5867 70.4533 88.48 70.6C88.3733 70.7333 88.2467 70.8 88.1 70.8C87.94 70.8 87.7467 70.7267 87.52 70.58C86.84 70.0467 86.22 69.6733 85.66 69.46C85.1133 69.2467 84.48 69.14 83.76 69.14C82.2133 69.14 81.02 69.6467 80.18 70.66C79.3533 71.66 78.94 73.0867 78.94 74.94C78.94 76.8067 79.3533 78.2467 80.18 79.26C81.02 80.26 82.2133 80.76 83.76 80.76C84.4667 80.76 85.1 80.6533 85.66 80.44C86.22 80.2267 86.84 79.8533 87.52 79.32C87.7467 79.1733 87.94 79.1 88.1 79.1C88.2467 79.1 88.3733 79.1667 88.48 79.3C88.5867 79.4333 88.64 79.6 88.64 79.8C88.64 80.0667 88.5333 80.3 88.32 80.5C87.7333 81.0333 87.04 81.4467 86.24 81.74C85.4533 82.02 84.6133 82.16 83.72 82.16ZM95.8552 72.06C96.4152 72.02 96.6952 72.2467 96.6952 72.74C96.6952 72.9533 96.6352 73.1267 96.5152 73.26C96.3952 73.38 96.1885 73.4533 95.8952 73.48L95.2952 73.54C94.4018 73.62 93.7352 73.94 93.2952 74.5C92.8685 75.0467 92.6552 75.6933 92.6552 76.44V81.3C92.6552 81.5667 92.5818 81.7667 92.4352 81.9C92.2885 82.0333 92.0952 82.1 91.8552 82.1C91.6152 82.1 91.4152 82.0333 91.2552 81.9C91.1085 81.7533 91.0352 81.5533 91.0352 81.3V72.86C91.0352 72.6067 91.1152 72.4133 91.2752 72.28C91.4352 72.1333 91.6285 72.06 91.8552 72.06C92.0685 72.06 92.2485 72.1333 92.3952 72.28C92.5418 72.4133 92.6152 72.6 92.6152 72.84V73.96C92.8952 73.3733 93.2885 72.9267 93.7952 72.62C94.3152 72.3133 94.9085 72.1333 95.5752 72.08L95.8552 72.06ZM98.9059 82.1C98.6659 82.1 98.4659 82.0333 98.3059 81.9C98.1593 81.7533 98.0859 81.5533 98.0859 81.3V72.86C98.0859 72.6067 98.1593 72.4133 98.3059 72.28C98.4659 72.1333 98.6659 72.06 98.9059 72.06C99.1459 72.06 99.3393 72.1333 99.4859 72.28C99.6326 72.4133 99.7059 72.6067 99.7059 72.86V81.3C99.7059 81.5667 99.6326 81.7667 99.4859 81.9C99.3393 82.0333 99.1459 82.1 98.9059 82.1ZM98.9059 69.96C98.5859 69.96 98.3259 69.8667 98.1259 69.68C97.9259 69.4933 97.8259 69.2467 97.8259 68.94C97.8259 68.6467 97.9259 68.4067 98.1259 68.22C98.3259 68.0333 98.5859 67.94 98.9059 67.94C99.2259 67.94 99.4859 68.0333 99.6859 68.22C99.8859 68.4067 99.9859 68.6467 99.9859 68.94C99.9859 69.2467 99.8859 69.4933 99.6859 69.68C99.4859 69.8667 99.2259 69.96 98.9059 69.96ZM106.014 82.14C105.401 82.14 104.814 82.0667 104.254 81.92C103.708 81.7733 103.221 81.5667 102.794 81.3C102.554 81.14 102.381 80.9933 102.274 80.86C102.181 80.7133 102.134 80.54 102.134 80.34C102.134 80.1667 102.181 80.0267 102.274 79.92C102.381 79.8 102.514 79.74 102.674 79.74C102.834 79.74 103.068 79.84 103.374 80.04C103.774 80.28 104.168 80.4733 104.554 80.62C104.954 80.7533 105.448 80.82 106.034 80.82C106.754 80.82 107.314 80.6933 107.714 80.44C108.114 80.1867 108.314 79.82 108.314 79.34C108.314 79.0467 108.241 78.8133 108.094 78.64C107.948 78.4533 107.694 78.2933 107.334 78.16C106.974 78.0133 106.448 77.8667 105.754 77.72C104.581 77.4667 103.741 77.1267 103.234 76.7C102.728 76.2733 102.474 75.6933 102.474 74.96C102.474 74.3867 102.634 73.88 102.954 73.44C103.274 73 103.714 72.6533 104.274 72.4C104.848 72.1467 105.494 72.02 106.214 72.02C106.734 72.02 107.234 72.0933 107.714 72.24C108.208 72.3733 108.641 72.5667 109.014 72.82C109.468 73.14 109.694 73.4733 109.694 73.82C109.694 73.9933 109.641 74.14 109.534 74.26C109.428 74.38 109.301 74.44 109.154 74.44C108.994 74.44 108.754 74.3267 108.434 74.1C108.061 73.86 107.708 73.6733 107.374 73.54C107.041 73.4067 106.628 73.34 106.134 73.34C105.508 73.34 105.001 73.48 104.614 73.76C104.241 74.04 104.054 74.4133 104.054 74.88C104.054 75.1733 104.121 75.4133 104.254 75.6C104.401 75.7733 104.634 75.9333 104.954 76.08C105.288 76.2133 105.761 76.3467 106.374 76.48C107.281 76.68 107.981 76.9 108.474 77.14C108.981 77.38 109.341 77.6733 109.554 78.02C109.768 78.3667 109.874 78.8067 109.874 79.34C109.874 80.18 109.521 80.86 108.814 81.38C108.108 81.8867 107.174 82.14 106.014 82.14ZM113.164 82.1C112.924 82.1 112.724 82.0333 112.564 81.9C112.417 81.7533 112.344 81.5533 112.344 81.3V72.86C112.344 72.6067 112.417 72.4133 112.564 72.28C112.724 72.1333 112.924 72.06 113.164 72.06C113.404 72.06 113.597 72.1333 113.744 72.28C113.89 72.4133 113.964 72.6067 113.964 72.86V81.3C113.964 81.5667 113.89 81.7667 113.744 81.9C113.597 82.0333 113.404 82.1 113.164 82.1ZM113.164 69.96C112.844 69.96 112.584 69.8667 112.384 69.68C112.184 69.4933 112.084 69.2467 112.084 68.94C112.084 68.6467 112.184 68.4067 112.384 68.22C112.584 68.0333 112.844 67.94 113.164 67.94C113.484 67.94 113.744 68.0333 113.944 68.22C114.144 68.4067 114.244 68.6467 114.244 68.94C114.244 69.2467 114.144 69.4933 113.944 69.68C113.744 69.8667 113.484 69.96 113.164 69.96ZM120.272 82.14C119.659 82.14 119.072 82.0667 118.512 81.92C117.966 81.7733 117.479 81.5667 117.052 81.3C116.812 81.14 116.639 80.9933 116.532 80.86C116.439 80.7133 116.392 80.54 116.392 80.34C116.392 80.1667 116.439 80.0267 116.532 79.92C116.639 79.8 116.772 79.74 116.932 79.74C117.092 79.74 117.326 79.84 117.632 80.04C118.032 80.28 118.426 80.4733 118.812 80.62C119.212 80.7533 119.706 80.82 120.292 80.82C121.012 80.82 121.572 80.6933 121.972 80.44C122.372 80.1867 122.572 79.82 122.572 79.34C122.572 79.0467 122.499 78.8133 122.352 78.64C122.206 78.4533 121.952 78.2933 121.592 78.16C121.232 78.0133 120.706 77.8667 120.012 77.72C118.839 77.4667 117.999 77.1267 117.492 76.7C116.986 76.2733 116.732 75.6933 116.732 74.96C116.732 74.3867 116.892 73.88 117.212 73.44C117.532 73 117.972 72.6533 118.532 72.4C119.106 72.1467 119.752 72.02 120.472 72.02C120.992 72.02 121.492 72.0933 121.972 72.24C122.466 72.3733 122.899 72.5667 123.272 72.82C123.726 73.14 123.952 73.4733 123.952 73.82C123.952 73.9933 123.899 74.14 123.792 74.26C123.686 74.38 123.559 74.44 123.412 74.44C123.252 74.44 123.012 74.3267 122.692 74.1C122.319 73.86 121.966 73.6733 121.632 73.54C121.299 73.4067 120.886 73.34 120.392 73.34C119.766 73.34 119.259 73.48 118.872 73.76C118.499 74.04 118.312 74.4133 118.312 74.88C118.312 75.1733 118.379 75.4133 118.512 75.6C118.659 75.7733 118.892 75.9333 119.212 76.08C119.546 76.2133 120.019 76.3467 120.632 76.48C121.539 76.68 122.239 76.9 122.732 77.14C123.239 77.38 123.599 77.6733 123.812 78.02C124.026 78.3667 124.132 78.8067 124.132 79.34C124.132 80.18 123.779 80.86 123.072 81.38C122.366 81.8867 121.432 82.14 120.272 82.14Z" fill="black"/>
<circle id="Ellipse 14" cx="101" cy="33" r="19.5" fill="white" stroke="black"/>
</g>
<g id="using-phase">
<circle id="Ellipse 16" cx="319" cy="33" r="19.5" fill="white" stroke="black"/>
<path id="Using" d="M300.24 82.16C298.4 82.16 297.007 81.68 296.06 80.72C295.113 79.76 294.64 78.3467 294.64 76.48V68.64C294.64 68.3867 294.713 68.1867 294.86 68.04C295.007 67.88 295.207 67.8 295.46 67.8C295.7 67.8 295.893 67.88 296.04 68.04C296.187 68.1867 296.26 68.3867 296.26 68.64V76.62C296.26 77.9933 296.593 79.0267 297.26 79.72C297.94 80.4133 298.933 80.76 300.24 80.76C301.547 80.76 302.533 80.4133 303.2 79.72C303.867 79.0267 304.2 77.9933 304.2 76.62V68.64C304.2 68.3867 304.273 68.1867 304.42 68.04C304.58 67.88 304.78 67.8 305.02 67.8C305.273 67.8 305.473 67.88 305.62 68.04C305.767 68.1867 305.84 68.3867 305.84 68.64V76.48C305.84 78.3333 305.36 79.7467 304.4 80.72C303.453 81.68 302.067 82.16 300.24 82.16ZM312.253 82.14C311.639 82.14 311.053 82.0667 310.493 81.92C309.946 81.7733 309.459 81.5667 309.033 81.3C308.793 81.14 308.619 80.9933 308.513 80.86C308.419 80.7133 308.373 80.54 308.373 80.34C308.373 80.1667 308.419 80.0267 308.513 79.92C308.619 79.8 308.753 79.74 308.913 79.74C309.073 79.74 309.306 79.84 309.613 80.04C310.013 80.28 310.406 80.4733 310.793 80.62C311.193 80.7533 311.686 80.82 312.273 80.82C312.993 80.82 313.553 80.6933 313.953 80.44C314.353 80.1867 314.553 79.82 314.553 79.34C314.553 79.0467 314.479 78.8133 314.333 78.64C314.186 78.4533 313.933 78.2933 313.573 78.16C313.213 78.0133 312.686 77.8667 311.993 77.72C310.819 77.4667 309.979 77.1267 309.473 76.7C308.966 76.2733 308.713 75.6933 308.713 74.96C308.713 74.3867 308.873 73.88 309.193 73.44C309.513 73 309.953 72.6533 310.513 72.4C311.086 72.1467 311.733 72.02 312.453 72.02C312.973 72.02 313.473 72.0933 313.953 72.24C314.446 72.3733 314.879 72.5667 315.253 72.82C315.706 73.14 315.933 73.4733 315.933 73.82C315.933 73.9933 315.879 74.14 315.773 74.26C315.666 74.38 315.539 74.44 315.393 74.44C315.233 74.44 314.993 74.3267 314.673 74.1C314.299 73.86 313.946 73.6733 313.613 73.54C313.279 73.4067 312.866 73.34 312.373 73.34C311.746 73.34 311.239 73.48 310.853 73.76C310.479 74.04 310.293 74.4133 310.293 74.88C310.293 75.1733 310.359 75.4133 310.493 75.6C310.639 75.7733 310.873 75.9333 311.193 76.08C311.526 76.2133 311.999 76.3467 312.613 76.48C313.519 76.68 314.219 76.9 314.713 77.14C315.219 77.38 315.579 77.6733 315.793 78.02C316.006 78.3667 316.113 78.8067 316.113 79.34C316.113 80.18 315.759 80.86 315.053 81.38C314.346 81.8867 313.413 82.14 312.253 82.14ZM319.402 82.1C319.162 82.1 318.962 82.0333 318.802 81.9C318.655 81.7533 318.582 81.5533 318.582 81.3V72.86C318.582 72.6067 318.655 72.4133 318.802 72.28C318.962 72.1333 319.162 72.06 319.402 72.06C319.642 72.06 319.835 72.1333 319.982 72.28C320.129 72.4133 320.202 72.6067 320.202 72.86V81.3C320.202 81.5667 320.129 81.7667 319.982 81.9C319.835 82.0333 319.642 82.1 319.402 82.1ZM319.402 69.96C319.082 69.96 318.822 69.8667 318.622 69.68C318.422 69.4933 318.322 69.2467 318.322 68.94C318.322 68.6467 318.422 68.4067 318.622 68.22C318.822 68.0333 319.082 67.94 319.402 67.94C319.722 67.94 319.982 68.0333 320.182 68.22C320.382 68.4067 320.482 68.6467 320.482 68.94C320.482 69.2467 320.382 69.4933 320.182 69.68C319.982 69.8667 319.722 69.96 319.402 69.96ZM328.13 72.02C330.464 72.02 331.63 73.3067 331.63 75.88V81.3C331.63 81.5533 331.557 81.7533 331.41 81.9C331.277 82.0333 331.084 82.1 330.83 82.1C330.577 82.1 330.377 82.0333 330.23 81.9C330.084 81.7533 330.01 81.5533 330.01 81.3V75.98C330.01 75.0733 329.83 74.4133 329.47 74C329.124 73.5867 328.564 73.38 327.79 73.38C326.897 73.38 326.184 73.6533 325.65 74.2C325.117 74.7467 324.85 75.4867 324.85 76.42V81.3C324.85 81.5533 324.777 81.7533 324.63 81.9C324.497 82.0333 324.304 82.1 324.05 82.1C323.797 82.1 323.597 82.0333 323.45 81.9C323.304 81.7533 323.23 81.5533 323.23 81.3V72.86C323.23 72.62 323.304 72.4267 323.45 72.28C323.597 72.1333 323.797 72.06 324.05 72.06C324.29 72.06 324.477 72.1333 324.61 72.28C324.757 72.4267 324.83 72.6133 324.83 72.84V73.86C325.15 73.26 325.597 72.8067 326.17 72.5C326.744 72.18 327.397 72.02 328.13 72.02ZM342.498 72.06C342.751 72.06 342.951 72.1333 343.098 72.28C343.244 72.4267 343.318 72.62 343.318 72.86V81.34C343.318 82.7933 342.944 83.8867 342.198 84.62C341.451 85.3667 340.344 85.74 338.878 85.74C337.451 85.74 336.264 85.46 335.318 84.9C334.838 84.6333 334.598 84.3267 334.598 83.98C334.598 83.7933 334.644 83.64 334.738 83.52C334.844 83.4 334.978 83.34 335.138 83.34C335.271 83.34 335.511 83.4333 335.858 83.62C336.324 83.86 336.784 84.0533 337.238 84.2C337.691 84.3467 338.231 84.42 338.858 84.42C339.804 84.42 340.518 84.1667 340.998 83.66C341.478 83.1667 341.718 82.44 341.718 81.48V79.76C341.438 80.3867 341.004 80.8667 340.418 81.2C339.844 81.5333 339.164 81.7 338.378 81.7C337.524 81.7 336.764 81.5 336.098 81.1C335.444 80.7 334.931 80.1333 334.558 79.4C334.198 78.6667 334.018 77.82 334.018 76.86C334.018 75.9 334.198 75.0533 334.558 74.32C334.931 73.5867 335.444 73.02 336.098 72.62C336.764 72.22 337.524 72.02 338.378 72.02C339.151 72.02 339.824 72.1867 340.398 72.52C340.971 72.8533 341.404 73.3267 341.698 73.94V72.86C341.698 72.62 341.764 72.4267 341.898 72.28C342.044 72.1333 342.244 72.06 342.498 72.06ZM338.698 80.36C339.631 80.36 340.364 80.0533 340.898 79.44C341.431 78.8133 341.698 77.9533 341.698 76.86C341.698 75.78 341.431 74.9333 340.898 74.32C340.378 73.6933 339.644 73.38 338.698 73.38C337.751 73.38 337.004 73.6933 336.458 74.32C335.924 74.9333 335.658 75.78 335.658 76.86C335.658 77.9533 335.924 78.8133 336.458 79.44C337.004 80.0533 337.751 80.36 338.698 80.36Z" fill="black"/>
</g>
<g id="treatment-phase">
<circle id="Ellipse 17" cx="547.66" cy="33" r="19.5" fill="white" stroke="black"/>
<path id="Treatment" d="M508.98 82.1C508.727 82.1 508.52 82.0267 508.36 81.88C508.213 81.72 508.14 81.5133 508.14 81.26V69.3H503.84C503.6 69.3 503.413 69.24 503.28 69.12C503.147 69 503.08 68.8267 503.08 68.6C503.08 68.3733 503.147 68.2 503.28 68.08C503.413 67.96 503.6 67.9 503.84 67.9H514.1C514.34 67.9 514.527 67.96 514.66 68.08C514.793 68.2 514.86 68.3733 514.86 68.6C514.86 68.8267 514.793 69 514.66 69.12C514.527 69.24 514.34 69.3 514.1 69.3H509.8V81.26C509.8 81.5133 509.727 81.72 509.58 81.88C509.433 82.0267 509.233 82.1 508.98 82.1ZM519.75 72.06C520.31 72.02 520.59 72.2467 520.59 72.74C520.59 72.9533 520.53 73.1267 520.41 73.26C520.29 73.38 520.083 73.4533 519.79 73.48L519.19 73.54C518.296 73.62 517.63 73.94 517.19 74.5C516.763 75.0467 516.55 75.6933 516.55 76.44V81.3C516.55 81.5667 516.476 81.7667 516.33 81.9C516.183 82.0333 515.99 82.1 515.75 82.1C515.51 82.1 515.31 82.0333 515.15 81.9C515.003 81.7533 514.93 81.5533 514.93 81.3V72.86C514.93 72.6067 515.01 72.4133 515.17 72.28C515.33 72.1333 515.523 72.06 515.75 72.06C515.963 72.06 516.143 72.1333 516.29 72.28C516.436 72.4133 516.51 72.6 516.51 72.84V73.96C516.79 73.3733 517.183 72.9267 517.69 72.62C518.21 72.3133 518.803 72.1333 519.47 72.08L519.75 72.06ZM529.325 79.74C529.472 79.74 529.598 79.8 529.705 79.92C529.812 80.04 529.865 80.1933 529.865 80.38C529.865 80.7133 529.632 81.02 529.165 81.3C528.685 81.58 528.178 81.7933 527.645 81.94C527.112 82.0733 526.592 82.14 526.085 82.14C524.578 82.14 523.385 81.6933 522.505 80.8C521.638 79.9067 521.205 78.6733 521.205 77.1C521.205 76.1 521.398 75.22 521.785 74.46C522.172 73.6867 522.712 73.0867 523.405 72.66C524.112 72.2333 524.912 72.02 525.805 72.02C527.072 72.02 528.078 72.4333 528.825 73.26C529.572 74.0867 529.945 75.2067 529.945 76.62C529.945 76.8867 529.892 77.08 529.785 77.2C529.678 77.32 529.505 77.38 529.265 77.38H522.825C522.945 79.6733 524.032 80.82 526.085 80.82C526.605 80.82 527.052 80.7533 527.425 80.62C527.798 80.4733 528.198 80.28 528.625 80.04C528.972 79.84 529.205 79.74 529.325 79.74ZM525.825 73.28C524.972 73.28 524.285 73.5467 523.765 74.08C523.258 74.6133 522.958 75.3667 522.865 76.34H528.525C528.498 75.3533 528.252 74.6 527.785 74.08C527.318 73.5467 526.665 73.28 525.825 73.28ZM536.312 72.02C538.752 72.02 539.972 73.3 539.972 75.86V81.3C539.972 81.54 539.899 81.7333 539.752 81.88C539.619 82.0267 539.432 82.1 539.192 82.1C538.952 82.1 538.759 82.0267 538.612 81.88C538.465 81.7333 538.392 81.54 538.392 81.3V80.34C538.139 80.9133 537.752 81.36 537.232 81.68C536.712 81.9867 536.112 82.14 535.432 82.14C534.805 82.14 534.225 82.0133 533.692 81.76C533.172 81.5067 532.759 81.1533 532.452 80.7C532.145 80.2467 531.992 79.7467 531.992 79.2C531.992 78.4667 532.179 77.9 532.552 77.5C532.925 77.0867 533.539 76.7933 534.392 76.62C535.245 76.4333 536.432 76.34 537.952 76.34H538.392V75.68C538.392 74.88 538.225 74.2933 537.892 73.92C537.572 73.5467 537.045 73.36 536.312 73.36C535.405 73.36 534.485 73.6067 533.552 74.1C533.192 74.3267 532.939 74.44 532.792 74.44C532.632 74.44 532.499 74.38 532.392 74.26C532.285 74.14 532.232 73.9867 532.232 73.8C532.232 73.6133 532.285 73.4533 532.392 73.32C532.512 73.1733 532.699 73.0267 532.952 72.88C533.419 72.6133 533.945 72.4067 534.532 72.26C535.132 72.1 535.725 72.02 536.312 72.02ZM535.652 80.86C536.452 80.86 537.105 80.5933 537.612 80.06C538.132 79.5133 538.392 78.8133 538.392 77.96V77.38H538.032C536.859 77.38 535.965 77.4333 535.352 77.54C534.739 77.6333 534.299 77.8 534.032 78.04C533.779 78.2667 533.652 78.6067 533.652 79.06C533.652 79.58 533.839 80.0133 534.212 80.36C534.599 80.6933 535.079 80.86 535.652 80.86ZM547.438 80.82C547.904 80.86 548.138 81.0733 548.138 81.46C548.138 81.6867 548.051 81.86 547.878 81.98C547.718 82.0867 547.471 82.1267 547.138 82.1L546.598 82.06C545.531 81.98 544.744 81.66 544.238 81.1C543.731 80.54 543.478 79.6933 543.478 78.56V73.54H542.138C541.911 73.54 541.731 73.4867 541.598 73.38C541.478 73.26 541.417 73.1067 541.417 72.92C541.417 72.72 541.478 72.56 541.598 72.44C541.731 72.32 541.911 72.26 542.138 72.26H543.478V70C543.478 69.7467 543.551 69.5533 543.698 69.42C543.844 69.2733 544.044 69.2 544.298 69.2C544.538 69.2 544.731 69.2733 544.878 69.42C545.024 69.5533 545.098 69.7467 545.098 70V72.26H547.317C547.531 72.26 547.698 72.32 547.818 72.44C547.951 72.56 548.018 72.72 548.018 72.92C548.018 73.1067 547.951 73.26 547.818 73.38C547.698 73.4867 547.531 73.54 547.317 73.54H545.098V78.64C545.098 79.3733 545.244 79.9067 545.538 80.24C545.844 80.56 546.298 80.74 546.898 80.78L547.438 80.82ZM560.574 72.02C562.734 72.02 563.814 73.3067 563.814 75.88V81.3C563.814 81.5533 563.741 81.7533 563.594 81.9C563.448 82.0333 563.254 82.1 563.014 82.1C562.774 82.1 562.574 82.0333 562.414 81.9C562.268 81.7533 562.194 81.5533 562.194 81.3V75.92C562.194 75.0267 562.034 74.38 561.714 73.98C561.394 73.58 560.894 73.38 560.214 73.38C559.401 73.38 558.761 73.6533 558.294 74.2C557.828 74.7467 557.594 75.4867 557.594 76.42V81.3C557.594 81.5533 557.514 81.7533 557.354 81.9C557.208 82.0333 557.014 82.1 556.774 82.1C556.534 82.1 556.341 82.0333 556.194 81.9C556.048 81.7533 555.974 81.5533 555.974 81.3V75.92C555.974 75.0267 555.814 74.38 555.494 73.98C555.174 73.58 554.668 73.38 553.974 73.38C553.174 73.38 552.534 73.6533 552.054 74.2C551.588 74.7467 551.354 75.4867 551.354 76.42V81.3C551.354 81.5533 551.281 81.7533 551.134 81.9C550.988 82.0333 550.794 82.1 550.554 82.1C550.314 82.1 550.114 82.0333 549.954 81.9C549.808 81.7533 549.734 81.5533 549.734 81.3V72.86C549.734 72.62 549.808 72.4267 549.954 72.28C550.114 72.1333 550.314 72.06 550.554 72.06C550.781 72.06 550.968 72.1333 551.114 72.28C551.261 72.4133 551.334 72.6 551.334 72.84V73.8C551.628 73.2267 552.034 72.7867 552.554 72.48C553.074 72.1733 553.674 72.02 554.354 72.02C555.874 72.02 556.868 72.66 557.334 73.94C557.614 73.3533 558.041 72.8867 558.614 72.54C559.188 72.1933 559.841 72.02 560.574 72.02ZM574.306 79.74C574.452 79.74 574.579 79.8 574.686 79.92C574.792 80.04 574.846 80.1933 574.846 80.38C574.846 80.7133 574.612 81.02 574.146 81.3C573.666 81.58 573.159 81.7933 572.626 81.94C572.092 82.0733 571.572 82.14 571.066 82.14C569.559 82.14 568.366 81.6933 567.486 80.8C566.619 79.9067 566.186 78.6733 566.186 77.1C566.186 76.1 566.379 75.22 566.766 74.46C567.152 73.6867 567.692 73.0867 568.386 72.66C569.092 72.2333 569.892 72.02 570.786 72.02C572.052 72.02 573.059 72.4333 573.806 73.26C574.552 74.0867 574.926 75.2067 574.926 76.62C574.926 76.8867 574.872 77.08 574.766 77.2C574.659 77.32 574.486 77.38 574.246 77.38H567.806C567.926 79.6733 569.012 80.82 571.066 80.82C571.586 80.82 572.032 80.7533 572.406 80.62C572.779 80.4733 573.179 80.28 573.606 80.04C573.952 79.84 574.186 79.74 574.306 79.74ZM570.806 73.28C569.952 73.28 569.266 73.5467 568.746 74.08C568.239 74.6133 567.939 75.3667 567.846 76.34H573.506C573.479 75.3533 573.232 74.6 572.766 74.08C572.299 73.5467 571.646 73.28 570.806 73.28ZM582.213 72.02C584.546 72.02 585.713 73.3067 585.713 75.88V81.3C585.713 81.5533 585.639 81.7533 585.493 81.9C585.359 82.0333 585.166 82.1 584.913 82.1C584.659 82.1 584.459 82.0333 584.313 81.9C584.166 81.7533 584.093 81.5533 584.093 81.3V75.98C584.093 75.0733 583.913 74.4133 583.553 74C583.206 73.5867 582.646 73.38 581.873 73.38C580.979 73.38 580.266 73.6533 579.733 74.2C579.199 74.7467 578.933 75.4867 578.933 76.42V81.3C578.933 81.5533 578.859 81.7533 578.713 81.9C578.579 82.0333 578.386 82.1 578.133 82.1C577.879 82.1 577.679 82.0333 577.533 81.9C577.386 81.7533 577.313 81.5533 577.313 81.3V72.86C577.313 72.62 577.386 72.4267 577.533 72.28C577.679 72.1333 577.879 72.06 578.133 72.06C578.373 72.06 578.559 72.1333 578.693 72.28C578.839 72.4267 578.913 72.6133 578.913 72.84V73.86C579.233 73.26 579.679 72.8067 580.253 72.5C580.826 72.18 581.479 72.02 582.213 72.02ZM593.18 80.82C593.646 80.86 593.88 81.0733 593.88 81.46C593.88 81.6867 593.793 81.86 593.62 81.98C593.46 82.0867 593.213 82.1267 592.88 82.1L592.34 82.06C591.273 81.98 590.486 81.66 589.98 81.1C589.473 80.54 589.22 79.6933 589.22 78.56V73.54H587.88C587.653 73.54 587.473 73.4867 587.34 73.38C587.22 73.26 587.16 73.1067 587.16 72.92C587.16 72.72 587.22 72.56 587.34 72.44C587.473 72.32 587.653 72.26 587.88 72.26H589.22V70C589.22 69.7467 589.293 69.5533 589.44 69.42C589.586 69.2733 589.786 69.2 590.04 69.2C590.28 69.2 590.473 69.2733 590.62 69.42C590.766 69.5533 590.84 69.7467 590.84 70V72.26H593.06C593.273 72.26 593.44 72.32 593.56 72.44C593.693 72.56 593.76 72.72 593.76 72.92C593.76 73.1067 593.693 73.26 593.56 73.38C593.44 73.4867 593.273 73.54 593.06 73.54H590.84V78.64C590.84 79.3733 590.986 79.9067 591.28 80.24C591.586 80.56 592.04 80.74 592.64 80.78L593.18 80.82Z" fill="black"/>
</g>
<g id="recovery-phase">
<circle id="Ellipse 15" cx="771" cy="33" r="19.5" fill="white" stroke="black"/>
<path id="Recovery" d="M741.5 80.98C741.593 81.1267 741.64 81.28 741.64 81.44C741.64 81.64 741.56 81.8067 741.4 81.94C741.253 82.06 741.08 82.12 740.88 82.12C740.573 82.12 740.333 81.9867 740.16 81.72L737.48 77.48C737.133 76.9333 736.773 76.56 736.4 76.36C736.027 76.1467 735.52 76.04 734.88 76.04H732.36V81.26C732.36 81.5133 732.287 81.72 732.14 81.88C731.993 82.0267 731.8 82.1 731.56 82.1C731.307 82.1 731.107 82.0267 730.96 81.88C730.813 81.72 730.74 81.5133 730.74 81.26V68.7C730.74 68.46 730.813 68.2667 730.96 68.12C731.12 67.9733 731.327 67.9 731.58 67.9H736.54C738.073 67.9 739.24 68.24 740.04 68.92C740.853 69.6 741.26 70.6 741.26 71.92C741.26 73.04 740.933 73.94 740.28 74.62C739.64 75.3 738.72 75.7133 737.52 75.86C737.853 75.9667 738.153 76.14 738.42 76.38C738.687 76.62 738.953 76.9533 739.22 77.38L741.5 80.98ZM736.4 74.68C737.493 74.68 738.307 74.4533 738.84 74C739.387 73.5467 739.66 72.86 739.66 71.94C739.66 71.0333 739.393 70.36 738.86 69.92C738.327 69.48 737.507 69.26 736.4 69.26H732.36V74.68H736.4ZM751.751 79.74C751.898 79.74 752.024 79.8 752.131 79.92C752.238 80.04 752.291 80.1933 752.291 80.38C752.291 80.7133 752.058 81.02 751.591 81.3C751.111 81.58 750.604 81.7933 750.071 81.94C749.538 82.0733 749.018 82.14 748.511 82.14C747.004 82.14 745.811 81.6933 744.931 80.8C744.064 79.9067 743.631 78.6733 743.631 77.1C743.631 76.1 743.824 75.22 744.211 74.46C744.598 73.6867 745.138 73.0867 745.831 72.66C746.538 72.2333 747.338 72.02 748.231 72.02C749.498 72.02 750.504 72.4333 751.251 73.26C751.998 74.0867 752.371 75.2067 752.371 76.62C752.371 76.8867 752.318 77.08 752.211 77.2C752.104 77.32 751.931 77.38 751.691 77.38H745.251C745.371 79.6733 746.458 80.82 748.511 80.82C749.031 80.82 749.478 80.7533 749.851 80.62C750.224 80.4733 750.624 80.28 751.051 80.04C751.398 79.84 751.631 79.74 751.751 79.74ZM748.251 73.28C747.398 73.28 746.711 73.5467 746.191 74.08C745.684 74.6133 745.384 75.3667 745.291 76.34H750.951C750.924 75.3533 750.678 74.6 750.211 74.08C749.744 73.5467 749.091 73.28 748.251 73.28ZM758.778 82.14C757.871 82.14 757.064 81.9333 756.358 81.52C755.664 81.1067 755.124 80.52 754.738 79.76C754.364 79 754.178 78.12 754.178 77.12C754.178 76.12 754.371 75.2333 754.758 74.46C755.158 73.6867 755.711 73.0867 756.418 72.66C757.124 72.2333 757.938 72.02 758.858 72.02C759.364 72.02 759.864 72.0933 760.358 72.24C760.864 72.3733 761.304 72.5733 761.678 72.84C761.918 73 762.084 73.16 762.178 73.32C762.284 73.4667 762.338 73.6333 762.338 73.82C762.338 74.0067 762.284 74.16 762.178 74.28C762.084 74.4 761.958 74.46 761.798 74.46C761.704 74.46 761.604 74.4333 761.498 74.38C761.391 74.3267 761.298 74.2733 761.218 74.22C761.151 74.1667 761.104 74.1333 761.078 74.12C760.731 73.8933 760.398 73.7133 760.078 73.58C759.771 73.4467 759.391 73.38 758.938 73.38C757.964 73.38 757.204 73.7133 756.658 74.38C756.124 75.0333 755.858 75.9467 755.858 77.12C755.858 78.2933 756.124 79.2 756.658 79.84C757.204 80.48 757.964 80.8 758.938 80.8C759.391 80.8 759.778 80.7333 760.098 80.6C760.431 80.4667 760.764 80.2867 761.098 80.06C761.244 79.9667 761.384 79.8867 761.518 79.82C761.651 79.7533 761.764 79.72 761.858 79.72C762.004 79.72 762.124 79.78 762.218 79.9C762.324 80.02 762.378 80.1733 762.378 80.36C762.378 80.5333 762.331 80.6933 762.238 80.84C762.144 80.9733 761.971 81.1267 761.718 81.3C761.344 81.5533 760.891 81.76 760.358 81.92C759.838 82.0667 759.311 82.14 758.778 82.14ZM768.368 82.14C767.448 82.14 766.635 81.9333 765.928 81.52C765.235 81.1067 764.695 80.52 764.308 79.76C763.935 78.9867 763.748 78.0933 763.748 77.08C763.748 76.0667 763.935 75.18 764.308 74.42C764.695 73.6467 765.235 73.0533 765.928 72.64C766.635 72.2267 767.448 72.02 768.368 72.02C769.288 72.02 770.101 72.2267 770.808 72.64C771.515 73.0533 772.055 73.6467 772.428 74.42C772.815 75.18 773.008 76.0667 773.008 77.08C773.008 78.0933 772.815 78.9867 772.428 79.76C772.055 80.52 771.515 81.1067 770.808 81.52C770.101 81.9333 769.288 82.14 768.368 82.14ZM768.368 80.8C769.328 80.8 770.061 80.4867 770.568 79.86C771.088 79.22 771.348 78.2933 771.348 77.08C771.348 75.8933 771.088 74.98 770.568 74.34C770.048 73.6867 769.315 73.36 768.368 73.36C767.421 73.36 766.688 73.6867 766.168 74.34C765.648 74.98 765.388 75.8933 765.388 77.08C765.388 78.28 765.641 79.2 766.148 79.84C766.668 80.48 767.408 80.8 768.368 80.8ZM782.325 72.56C782.471 72.24 782.705 72.08 783.025 72.08C783.225 72.08 783.405 72.1467 783.565 72.28C783.725 72.4133 783.805 72.58 783.805 72.78C783.805 72.9 783.778 73.0067 783.725 73.1L779.825 81.5C779.745 81.6733 779.625 81.8133 779.465 81.92C779.305 82.0133 779.131 82.06 778.945 82.06C778.771 82.06 778.605 82.0133 778.445 81.92C778.285 81.8133 778.158 81.6733 778.065 81.5L774.185 73.1C774.131 73.0067 774.105 72.9067 774.105 72.8C774.105 72.6 774.191 72.4267 774.365 72.28C774.551 72.1333 774.751 72.06 774.965 72.06C775.098 72.06 775.225 72.1 775.345 72.18C775.478 72.26 775.578 72.3733 775.645 72.52L778.985 80.02L782.325 72.56ZM793.001 79.74C793.148 79.74 793.274 79.8 793.381 79.92C793.488 80.04 793.541 80.1933 793.541 80.38C793.541 80.7133 793.308 81.02 792.841 81.3C792.361 81.58 791.854 81.7933 791.321 81.94C790.788 82.0733 790.268 82.14 789.761 82.14C788.254 82.14 787.061 81.6933 786.181 80.8C785.314 79.9067 784.881 78.6733 784.881 77.1C784.881 76.1 785.074 75.22 785.461 74.46C785.848 73.6867 786.388 73.0867 787.081 72.66C787.788 72.2333 788.588 72.02 789.481 72.02C790.748 72.02 791.754 72.4333 792.501 73.26C793.248 74.0867 793.621 75.2067 793.621 76.62C793.621 76.8867 793.568 77.08 793.461 77.2C793.354 77.32 793.181 77.38 792.941 77.38H786.501C786.621 79.6733 787.708 80.82 789.761 80.82C790.281 80.82 790.728 80.7533 791.101 80.62C791.474 80.4733 791.874 80.28 792.301 80.04C792.648 79.84 792.881 79.74 793.001 79.74ZM789.501 73.28C788.648 73.28 787.961 73.5467 787.441 74.08C786.934 74.6133 786.634 75.3667 786.541 76.34H792.201C792.174 75.3533 791.928 74.6 791.461 74.08C790.994 73.5467 790.341 73.28 789.501 73.28ZM800.828 72.06C801.388 72.02 801.668 72.2467 801.668 72.74C801.668 72.9533 801.608 73.1267 801.488 73.26C801.368 73.38 801.161 73.4533 800.868 73.48L800.268 73.54C799.374 73.62 798.708 73.94 798.268 74.5C797.841 75.0467 797.628 75.6933 797.628 76.44V81.3C797.628 81.5667 797.554 81.7667 797.408 81.9C797.261 82.0333 797.068 82.1 796.828 82.1C796.588 82.1 796.388 82.0333 796.228 81.9C796.081 81.7533 796.008 81.5533 796.008 81.3V72.86C796.008 72.6067 796.088 72.4133 796.248 72.28C796.408 72.1333 796.601 72.06 796.828 72.06C797.041 72.06 797.221 72.1333 797.368 72.28C797.514 72.4133 797.588 72.6 797.588 72.84V73.96C797.868 73.3733 798.261 72.9267 798.768 72.62C799.288 72.3133 799.881 72.1333 800.548 72.08L800.828 72.06ZM810.684 72.56C810.831 72.24 811.064 72.08 811.384 72.08C811.584 72.08 811.764 72.1467 811.924 72.28C812.084 72.4133 812.164 72.58 812.164 72.78C812.164 72.9 812.137 73.0067 812.084 73.1L806.464 85.22C806.397 85.3667 806.297 85.48 806.164 85.56C806.044 85.64 805.917 85.68 805.784 85.68C805.584 85.68 805.404 85.6133 805.244 85.48C805.097 85.36 805.024 85.2 805.024 85C805.024 84.8933 805.051 84.7867 805.104 84.68L806.504 81.66L802.544 73.1C802.491 73.0067 802.464 72.9067 802.464 72.8C802.464 72.6 802.551 72.4267 802.724 72.28C802.911 72.1333 803.111 72.06 803.324 72.06C803.457 72.06 803.584 72.1 803.704 72.18C803.837 72.26 803.937 72.3733 804.004 72.52L807.344 80.02L810.684 72.56Z" fill="black"/>
</g>
<line id="Line 3" x1="840.5" y1="28" x2="840.5" y2="15" stroke="black"/>
<line id="Line 4" x1="840.5" y1="51" x2="840.5" y2="38" stroke="black"/>
<line id="Line 5" x1="840.257" y1="14.5713" x2="870.257" y2="32.5713" stroke="black"/>
<line id="Line 6" x1="840.743" y1="50.5713" x2="870.743" y2="32.5713" stroke="black"/>
<line id="Line 7" x1="31.5" y1="27" x2="31.5" y2="37" stroke="black"/>
<line id="Line 8" x1="31" y1="37.5" x2="81" y2="37.5" stroke="black"/>
<path id="Polygon 1" d="M840.887 15.75L870.137 32.6375L840.887 49.525L840.887 15.75Z" fill="#C4C4C4"/>
</g>
</svg>
